{
copyright = "Copyright (c) 2019 by Vladimir Nikolic. All rights reserved.";
designer = "Vladimir Nikolic";
designerURL = "https://www.coroflot.com/vladimirnikolic";
familyName = Subscribe;
customParameters = (
{
name = glyphOrder;
value = (
.notdef,
NULL,
uni000D,
space,
exclam,
quotedbl,
numbersign,
dollar,
percent,
ampersand,
quotesingle,
parenleft,
parenright,
asterisk,
plus,
comma,
hyphen,
period,
slash,
zero,
one,
two,
three,
four,
five,
six,
seven,
eight,
nine,
colon,
semicolon,
less,
equal,
greater,
question,
at,
A,
B,
C,
D,
E,
F,
G,
H,
I,
J,
K,
L,
M,
N,
O,
P,
Q,
R,
S,
T,
U,
V,
W,
X,
Y,
Z,
bracketleft,
backslash,
bracketright,
asciicircum,
underscore,
grave,
a,
b,
c,
d,
e,
f,
g,
h,
i,
j,
k,
l,
m,
n,
o,
p,
q,
r,
s,
t,
u,
v,
w,
x,
y,
z,
braceleft,
bar,
braceright,
uni00A0,
exclamdown,
cent,
sterling,
currency,
yen,
brokenbar,
section,
dieresis,
copyright,
ordfeminine,
guillemotleft,
uni00AD,
registered,
macron,
degree,
plusminus,
acute,
paragraph,
periodcentered,
cedilla,
ordmasculine,
guillemotright,
questiondown,
Agrave,
Aacute,
Acircumflex,
Atilde,
Adieresis,
Aring,
Ccedilla,
Egrave,
Eacute,
Ecircumflex,
Edieresis,
Igrave,
Iacute,
Icircumflex,
Idieresis,
Eth,
Ntilde,
Ograve,
Oacute,
Ocircumflex,
Otilde,
Odieresis,
multiply,
Oslash,
Ugrave,
Uacute,
Ucircumflex,
Udieresis,
Yacute,
Thorn,
germandbls,
agrave,
aacute,
acircumflex,
atilde,
adieresis,
aring,
ccedilla,
egrave,
eacute,
ecircumflex,
edieresis,
igrave,
iacute,
icircumflex,
idieresis,
eth,
ntilde,
ograve,
oacute,
ocircumflex,
otilde,
odieresis,
divide,
oslash,
ugrave,
uacute,
ucircumflex,
udieresis,
yacute,
thorn,
ydieresis,
Amacron,
amacron,
Abreve,
abreve,
Aogonek,
aogonek,
Cacute,
cacute,
Ccircumflex,
ccircumflex,
Cdotaccent,
cdotaccent,
Ccaron,
ccaron,
Dcaron,
dcaron,
Dcroat,
Emacron,
emacron,
Ebreve,
ebreve,
Edotaccent,
edotaccent,
Eogonek,
eogonek,
Ecaron,
ecaron,
Gcircumflex,
gcircumflex,
Gbreve,
gbreve,
Gdotaccent,
gdotaccent,
Hcircumflex,
hcircumflex,
Hbar,
hbar,
Itilde,
itilde,
Imacron,

glyphs = (
{
glyphname = exclam;
layers = (
{
layerId = "A2B16AE3-7741-4CE5-AF1B-C234A467F8D6";
paths = (
{
nodes = (
"114 200 OFFCURVE",
"107 200 QCURVE SMOOTH",
"76 200 OFFCURVE",
"34 241 OFFCURVE",
"34 272 QCURVE",
"34 274 OFFCURVE",
"34 277 QCURVE SMOOTH",
"34 302 OFFCURVE",
"30 370 OFFCURVE",
"26 444 OFFCURVE",
"25 488 OFFCURVE",
"25 495 QCURVE SMOOTH",
"25 526 OFFCURVE",
"30 588 OFFCURVE",
"43 641 OFFCURVE",
"56 656 QCURVE",
"63 673 OFFCURVE",
"95 683 OFFCURVE",
"108 683 QCURVE SMOOTH",
"114 683 OFFCURVE",
"141 679 OFFCURVE",
"175 658 OFFCURVE",
"178 641 QCURVE SMOOTH",
"180 629 OFFCURVE",
"188 556 OFFCURVE",
"193 471 OFFCURVE",
"193 432 QCURVE SMOOTH",
"193 419 OFFCURVE",
"192 351 OFFCURVE",
"178 261 OFFCURVE",
"148 202 OFFCURVE",
"121 201 QCURVE"
);
},
{
nodes = (
"110 9 OFFCURVE",
"105 9 QCURVE SMOOTH",
"83 9 OFFCURVE",
"49 28 OFFCURVE",
"28 62 OFFCURVE",
"27 84 OFFCURVE",
"27 85 QCURVE",
"27 105 OFFCURVE",
"44 142 OFFCURVE",
"81 169 OFFCURVE",
"110 172 QCURVE",
"139 166 OFFCURVE",
"173 137 OFFCURVE",
"186 103 OFFCURVE",
"186 87 QCURVE SMOOTH",
"186 84 OFFCURVE",
"184 60 OFFCURVE",
"165 27 OFFCURVE",
"137 9 OFFCURVE",
"121 9 QCURVE SMOOTH",
"117 9 OFFCURVE",
"114 9 QCURVE SMOOTH"
);
}
);
width = 216;
}
);
unicode = 0021;
},
{
glyphname = quotedbl;
layers = (
{
layerId = "A2B16AE3-7741-4CE5-AF1B-C234A467F8D6";
paths = (
{
nodes = (
"169 602 OFFCURVE",
"170 514 OFFCURVE",
"170 510 QCURVE SMOOTH",
"170 434 OFFCURVE",
"135 405 OFFCURVE",
"108 398 OFFCURVE",
"99 398 QCURVE SMOOTH",
"91 398 OFFCURVE",
"82 400 QCURVE SMOOTH",
"68 403 OFFCURVE",
"41 419 OFFCURVE",
"24 444 OFFCURVE",
"24 516 QCURVE SMOOTH",
"24 521 OFFCURVE",
"25 605 OFFCURVE",
"33 641 OFFCURVE",
"51 661 OFFCURVE",
"77 670 OFFCURVE",
"90 670 QCURVE",
"92 670 OFFCURVE",
"111 669 OFFCURVE",
"140 658 OFFCURVE",
"161 638 OFFCURVE",
"163 625 QCURVE"
);
},
{
nodes = (
"344 602 OFFCURVE",
"345 514 OFFCURVE",
"345 510 QCURVE SMOOTH",
"345 434 OFFCURVE",
"310 405 OFFCURVE",
"283 398 OFFCURVE",
"274 398 QCURVE SMOOTH",
"266 398 OFFCURVE",
"257 400 QCURVE SMOOTH",
"243 403 OFFCURVE",
"216 419 OFFCURVE",
"199 444 OFFCURVE",
"199 516 QCURVE SMOOTH",
"199 521 OFFCURVE",
"200 605 OFFCURVE",
"208 641 OFFCURVE",
"226 661 OFFCURVE",
"252 670 OFFCURVE",
"265 670 QCURVE",
"267 670 OFFCURVE",
"286 669 OFFCURVE",
"315 658 OFFCURVE",
"336 638 OFFCURVE",
"338 625 QCURVE"
);
}
);
width = 366;
}
);
unicode = 0022;
},
{
glyphname = numbersign;
layers = (
{
layerId = "A2B16AE3-7741-4CE5-AF1B-C234A467F8D6";
paths = (
{
nodes = (
"570 312 OFFCURVE",
"592 277 OFFCURVE",
"592 256 QCURVE SMOOTH",
"592 233 OFFCURVE",
"568 192 OFFCURVE",
"547 189 QCURVE SMOOTH",
"538 187 OFFCURVE",
"458 185 QCURVE",
"456 106 OFFCURVE",
"455 93 QCURVE",
"451 72 OFFCURVE",
"417 51 OFFCURVE",
"397 51 QCURVE SMOOTH",
"374 51 OFFCURVE",
"333 74 OFFCURVE",
"329 94 QCURVE",
"327 99 OFFCURVE",
"326 144 OFFCURVE",
"324 183 QCURVE",
"280 183 LINE",
"278 101 OFFCURVE",
"276 90 QCURVE SMOOTH",
"271 68 OFFCURVE",
"237 47 OFFCURVE",
"215 47 QCURVE SMOOTH",
"193 47 OFFCURVE",
"155 70 OFFCURVE",
"150 91 QCURVE SMOOTH",
"148 100 OFFCURVE",
"146 185 QCURVE",
"51 188 OFFCURVE",
"40 199 QCURVE",
"21 225 OFFCURVE",
"21 249 QCURVE SMOOTH",
"21 257 OFFCURVE",
"23 265 QCURVE",
"23 264 LINE",
"27 278 OFFCURVE",
"41 302 OFFCURVE",
"52 310 QCURVE SMOOTH",
"61 316 OFFCURVE",
"144 317 QCURVE",
"144 364 LINE",
"48 367 OFFCURVE",
"37 378 QCURVE",
"18 404 OFFCURVE",
"18 428 QCURVE SMOOTH",
"18 436 OFFCURVE",
"20 444 QCURVE",
"22 458 OFFCURVE",
"37 482 OFFCURVE",
"50 490 QCURVE",
"49 489 LINE",
"55 494 OFFCURVE",
"146 497 QCURVE",
"149 588 OFFCURVE",
"160 597 QCURVE SMOOTH",
"185 617 OFFCURVE",
"210 617 QCURVE SMOOTH",
"219 617 OFFCURVE",
"227 615 QCURVE",
"241 613 OFFCURVE",
"265 598 OFFCURVE",
"273 584 QCURVE",
"272 585 LINE",
"278 576 OFFCURVE",
"279 498 QCURVE",
"324 498 LINE",
"329 591 OFFCURVE",
"340 600 QCURVE SMOOTH",
"365 620 OFFCURVE",
"390 620 QCURVE SMOOTH",
"398 620 OFFCURVE",
"406 618 QCURVE SMOOTH",
"418 615 OFFCURVE",
"444 602 OFFCURVE",
"452 588 QCURVE",
"451 589 LINE",
"457 580 OFFCURVE",
"458 497 QCURVE",
"534 495 OFFCURVE",
"545 493 QCURVE SMOOTH",
"566 489 OFFCURVE",
"588 456 OFFCURVE",
"588 436 QCURVE SMOOTH",
"588 413 OFFCURVE",
"564 372 OFFCURVE",
"544 367 QCURVE SMOOTH",
"533 365 OFFCURVE",
"459 364 QCURVE",
"459 318 LINE",
"497 317 OFFCURVE",
"541 316 OFFCURVE",
"548 314 QCURVE"
);
},
{
nodes = (
"322 319 LINE",
"322 362 LINE",
"281 362 LINE",
"281 319 LINE"
);
}
);
width = 609;
}
);
unicode = 0023;
},
{
glyphname = dollar;
layers = (
{
layerId = "A2B16AE3-7741-4CE5-AF1B-C234A467F8D6";
paths = (
{
nodes = (
"408 286 OFFCURVE",
"411 257 OFFCURVE",
"411 243 QCURVE SMOOTH",
"411 186 OFFCURVE",
"352 110 OFFCURVE",
"308 92 QCURVE",
"306 75 OFFCURVE",
"296 45 OFFCURVE",
"288 37 QCURVE",
"270 23 OFFCURVE",
"240 16 OFFCURVE",
"229 16 QCURVE SMOOTH",
"221 16 OFFCURVE",
"214 17 QCURVE SMOOTH",
"198 19 OFFCURVE",
"171 36 OFFCURVE",
"160 48 QCURVE",
"153 58 OFFCURVE",
"148 87 QCURVE",
"119 94 OFFCURVE",
"65 115 OFFCURVE",
"26 145 OFFCURVE",
"12 177 OFFCURVE",
"12 191 QCURVE SMOOTH",
"12 201 OFFCURVE",
"15 213 QCURVE SMOOTH",
"26 251 OFFCURVE",
"57 273 OFFCURVE",
"80 273 QCURVE SMOOTH",
"93 273 OFFCURVE",
"121 261 OFFCURVE",
"152 252 OFFCURVE",
"171 251 OFFCURVE",
"172 251 QCURVE",
"189 251 OFFCURVE",
"211 262 QCURVE",
"186 270 OFFCURVE",
"120 289 OFFCURVE",
"60 324 OFFCURVE",
"19 382 OFFCURVE",
"19 429 QCURVE SMOOTH",
"19 447 OFFCURVE",
"26 489 OFFCURVE",
"35 512 QCURVE SMOOTH",
"50 551 OFFCURVE",
"109 592 OFFCURVE",
"140 600 QCURVE",
"140 601 OFFCURVE",
"140 602 QCURVE",
"140 603 OFFCURVE",
"140 603 QCURVE",
"140 604 LINE",
"140 604 OFFCURVE",
"140 605 QCURVE",
"140 610 LINE",
"140 610 OFFCURVE",
"140 611 QCURVE",
"140 612 OFFCURVE",
"140 612 QCURVE",
"140 623 LINE SMOOTH",
"140 632 OFFCURVE",
"142 638 QCURVE",
"144 665 OFFCURVE",
"186 689 OFFCURVE",
"213 689 QCURVE SMOOTH",
"239 689 OFFCURVE",
"283 665 OFFCURVE",
"290 643 QCURVE SMOOTH",
"293 635 OFFCURVE",
"297 615 OFFCURVE",
"298 599 QCURVE",
"320 594 OFFCURVE",
"360 578 OFFCURVE",
"392 554 OFFCURVE",
"411 520 OFFCURVE",
"411 497 QCURVE SMOOTH",
"411 453 OFFCURVE",
"370 422 OFFCURVE",
"338 422 QCURVE SMOOTH",
"333 422 OFFCURVE",
"292 429 OFFCURVE",
"246 438 OFFCURVE",
"213 444 OFFCURVE",
"210 444 QCURVE",
"209 444 OFFCURVE",
"209 444 QCURVE",
"208 440 OFFCURVE",
"208 437 QCURVE SMOOTH",
"208 427 OFFCURVE",
"236 416 OFFCURVE",
"259 410 QCURVE SMOOTH",
"279 405 OFFCURVE",
"323 392 OFFCURVE",
"362 369 OFFCURVE",
"394 332 OFFCURVE",
"403 302 QCURVE SMOOTH"
);
}
);
width = 429;
}
);
unicode = 0024;
},
{
glyphname = percent;
layers = (
{
layerId = "A2B16AE3-7741-4CE5-AF1B-C234A467F8D6";
paths = (
{
nodes = (
"22 566 OFFCURVE",
"40 620 OFFCURVE",
"73 659 OFFCURVE",
"123 682 OFFCURVE",
"155 682 QCURVE SMOOTH",
"225 682 OFFCURVE",
"288 609 OFFCURVE",
"288 542 QCURVE SMOOTH",
"288 516 OFFCURVE",
"275 463 OFFCURVE",
"246 418 OFFCURVE",
"197 389 OFFCURVE",
"159 387 QCURVE",
"153 387 OFFCURVE",
"148 387 QCURVE SMOOTH",
"117 387 OFFCURVE",
"68 408 OFFCURVE",
"35 451 OFFCURVE",
"22 508 OFFCURVE",
"22 537 QCURVE SMOOTH"
);
},
{
nodes = (
"448 681 OFFCURVE",
"452 681 QCURVE SMOOTH",
"458 681 OFFCURVE",
"478 679 OFFCURVE",
"498 669 OFFCURVE",
"516 654 OFFCURVE",
"517 641 QCURVE",
"517 624 OFFCURVE",
"497 564 OFFCURVE",
"465 487 OFFCURVE",
"424 394 OFFCURVE",
"372 280 OFFCURVE",
"338 214 OFFCURVE",
"318 166 OFFCURVE",
"285 100 OFFCURVE",
"244 44 OFFCURVE",
"206 20 OFFCURVE",
"193 20 QCURVE SMOOTH",
"182 20 OFFCURVE",
"171 26 QCURVE SMOOTH",
"155 34 OFFCURVE",
"150 60 OFFCURVE",
"150 69 QCURVE SMOOTH",
"150 80 OFFCURVE",
"156 115 OFFCURVE",
"175 167 OFFCURVE",
"196 217 OFFCURVE",
"217 269 OFFCURVE",
"222 281 QCURVE",
"258 349 OFFCURVE",
"369 588 OFFCURVE",
"370 588 QCURVE",
"370 588 OFFCURVE",
"370 588 QCURVE",
"373 594 OFFCURVE",
"376 599 QCURVE",
"376 600 LINE",
"380 608 OFFCURVE",
"384 616 QCURVE SMOOTH",
"391 630 OFFCURVE",
"408 655 OFFCURVE",
"428 676 OFFCURVE",
"443 681 QCURVE",
"443 681 OFFCURVE",
"443 681 QCURVE",
"443 681 OFFCURVE",
"443 681 QCURVE",
"443 681 OFFCURVE",
"443 681 QCURVE",
"443 681 OFFCURVE",
"444 681 QCURVE",
"444 681 OFFCURVE",
"444 681 QCURVE",
"444 681 OFFCURVE",
"444 681 QCURVE",
"444 681 OFFCURVE",
"444 681 QCURVE",
"444 681 OFFCURVE",
"444 681 QCURVE"
);
},
{
nodes = (
"173 487 OFFCURVE",
"184 518 OFFCURVE",
"184 539 QCURVE SMOOTH",
"184 555 OFFCURVE",
"164 580 OFFCURVE",
"150 580 QCURVE SMOOTH",
"136 580 OFFCURVE",
"125 553 OFFCURVE",
"125 538 QCURVE SMOOTH",
"125 529 OFFCURVE",
"126 512 OFFCURVE",
"132 497 OFFCURVE",
"143 487 OFFCURVE",
"152 487 QCURVE SMOOTH"
);
},
{
nodes = (
"366 195 OFFCURVE",
"384 249 OFFCURVE",
"417 288 OFFCURVE",
"467 311 OFFCURVE",
"499 311 QCURVE SMOOTH",
"569 311 OFFCURVE",
"632 238 OFFCURVE",
"632 171 QCURVE SMOOTH",
"632 145 OFFCURVE",
"619 92 OFFCURVE",
"590 47 OFFCURVE",
"541 18 OFFCURVE",
"503 16 QCURVE",
"497 16 OFFCURVE",
"492 16 QCURVE SMOOTH",
"461 16 OFFCURVE",
"412 37 OFFCURVE",
"379 80 OFFCURVE",
"366 137 OFFCURVE",
"366 166 QCURVE SMOOTH"
);
},
{
nodes = (
"517 116 OFFCURVE",
"528 147 OFFCURVE",
"528 168 QCURVE SMOOTH",
"528 184 OFFCURVE",
"508 209 OFFCURVE",
"494 209 QCURVE SMOOTH",
"480 209 OFFCURVE",
"469 182 OFFCURVE",
"469 167 QCURVE SMOOTH",
"469 158 OFFCURVE",
"470 141 OFFCURVE",
"476 126 OFFCURVE",
"487 116 OFFCURVE",
"496 116 QCURVE SMOOTH"
);
}
);
width = 648;
}
);
unicode = 0025;
},
{
glyphname = ampersand;
layers = (
{
layerId = "A2B16AE3-7741-4CE5-AF1B-C234A467F8D6";
paths = (
{
nodes = (
"521 236 OFFCURVE",
"517 211 OFFCURVE",
"507 190 OFFCURVE",
"491 177 OFFCURVE",
"478 177 QCURVE SMOOTH",
"468 177 OFFCURVE",
"450 173 OFFCURVE",
"446 173 QCURVE SMOOTH",
"439 173 OFFCURVE",
"434 176 QCURVE",
"426 143 OFFCURVE",
"409 87 OFFCURVE",
"378 45 OFFCURVE",
"327 17 OFFCURVE",
"285 13 QCURVE SMOOTH",
"269 11 OFFCURVE",
"253 11 QCURVE SMOOTH",
"220 11 OFFCURVE",
"140 29 OFFCURVE",
"64 80 OFFCURVE",
"18 161 OFFCURVE",
"18 217 QCURVE SMOOTH",
"18 244 OFFCURVE",
"29 299 OFFCURVE",
"53 349 OFFCURVE",
"90 388 OFFCURVE",
"117 400 QCURVE",
"88 425 OFFCURVE",
"52 496 OFFCURVE",
"52 535 QCURVE SMOOTH",
"52 540 LINE",
"58 591 OFFCURVE",
"111 656 OFFCURVE",
"184 688 OFFCURVE",
"229 689 OFFCURVE",
"230 689 QCURVE",
"272 689 OFFCURVE",
"309 677 QCURVE SMOOTH",
"334 669 OFFCURVE",
"362 654 OFFCURVE",
"377 636 OFFCURVE",
"379 617 OFFCURVE",
"379 608 QCURVE SMOOTH",
"379 602 OFFCURVE",
"379 596 QCURVE",
"378 571 OFFCURVE",
"352 551 OFFCURVE",
"318 546 OFFCURVE",
"302 546 QCURVE SMOOTH",
"296 546 OFFCURVE",
"283 546 OFFCURVE",
"276 546 QCURVE SMOOTH",
"262 546 OFFCURVE",
"229 543 OFFCURVE",
"202 525 OFFCURVE",
"200 501 QCURVE",
"200 495 OFFCURVE",
"206 482 OFFCURVE",
"216 471 OFFCURVE",
"228 463 OFFCURVE",
"233 463 QCURVE",
"248 461 OFFCURVE",
"261 461 OFFCURVE",
"271 463 OFFCURVE",
"283 464 OFFCURVE",
"297 464 QCURVE SMOOTH",
"312 464 OFFCURVE",
"328 450 OFFCURVE",
"335 429 OFFCURVE",
"337 403 OFFCURVE",
"337 391 QCURVE SMOOTH",
"337 367 OFFCURVE",
"314 343 OFFCURVE",
"280 328 OFFCURVE",
"239 318 OFFCURVE",
"205 298 OFFCURVE",
"182 264 OFFCURVE",
"182 234 QCURVE SMOOTH",
"182 210 OFFCURVE",
"212 174 OFFCURVE",
"238 174 QCURVE SMOOTH",
"262 174 OFFCURVE",
"290 196 OFFCURVE",
"307 230 OFFCURVE",
"321 269 OFFCURVE",
"340 303 OFFCURVE",
"372 325 OFFCURVE",
"399 325 QCURVE SMOOTH",
"421 325 OFFCURVE",
"465 318 OFFCURVE",
"499 300 OFFCURVE",
"521 270 OFFCURVE",
"521 247 QCURVE SMOOTH"
);
}
);
width = 540;
}
);
unicode = 0026;
},
{
glyphname = quotesingle;
layers = (
{
layerId = "A2B16AE3-7741-4CE5-AF1B-C234A467F8D6";
paths = (
{
nodes = (
"169 602 OFFCURVE",
"170 514 OFFCURVE",
"170 510 QCURVE SMOOTH",
"170 434 OFFCURVE",
"135 405 OFFCURVE",
"108 398 OFFCURVE",
"99 398 QCURVE SMOOTH",
"91 398 OFFCURVE",
"82 400 QCURVE SMOOTH",
"68 403 OFFCURVE",
"41 419 OFFCURVE",
"24 444 OFFCURVE",
"24 516 QCURVE SMOOTH",
"24 521 OFFCURVE",
"25 605 OFFCURVE",
"33 641 OFFCURVE",
"51 661 OFFCURVE",
"77 670 OFFCURVE",
"90 670 QCURVE",
"92 670 OFFCURVE",
"111 669 OFFCURVE",
"140 658 OFFCURVE",
"161 638 OFFCURVE",
"163 625 QCURVE"
);
}
);
width = 197;
}
);
unicode = 0027;
},
{
glyphname = parenleft;
layers = (
{
layerId = "A2B16AE3-7741-4CE5-AF1B-C234A467F8D6";
paths = (
{
nodes = (
"188 137 LINE",
"188 137 OFFCURVE",
"188 138 QCURVE",
"188 140 LINE",
"188 139 OFFCURVE",
"188 138 QCURVE"
);
},
{
nodes = (
"188 136 LINE",
"188 135 OFFCURVE",
"188 135 QCURVE"
);
},
{
nodes = (
"232 -18 OFFCURVE",
"248 -69 OFFCURVE",
"248 -85 QCURVE SMOOTH",
"248 -97 OFFCURVE",
"237 -133 OFFCURVE",
"201 -149 OFFCURVE",
"187 -149 QCURVE SMOOTH",
"168 -149 OFFCURVE",
"143 -140 QCURVE SMOOTH",
"103 -127 OFFCURVE",
"55 -69 OFFCURVE",
"30 6 OFFCURVE",
"22 93 OFFCURVE",
"22 136 QCURVE",
"22 137 LINE",
"22 138 OFFCURVE",
"22 139 QCURVE",
"22 140 OFFCURVE",
"22 140 QCURVE",
"22 141 LINE",
"22 142 OFFCURVE",
"22 142 QCURVE",
"22 144 LINE",
"22 144 OFFCURVE",
"22 145 QCURVE",
"22 147 LINE",
"22 147 OFFCURVE",
"22 148 QCURVE",
"22 165 LINE",
"22 166 OFFCURVE",
"22 167 QCURVE",
"22 181 LINE SMOOTH",
"22 184 OFFCURVE",
"22 187 QCURVE",
"22 189 LINE",
"22 190 OFFCURVE",
"22 191 QCURVE",
"22 193 LINE",
"22 195 OFFCURVE",
"22 197 QCURVE",
"22 201 LINE",
"22 203 OFFCURVE",
"22 204 QCURVE",
"22 207 LINE",
"22 209 OFFCURVE",
"22 210 QCURVE",
"22 241 LINE",
"22 243 OFFCURVE",
"22 244 QCURVE",
"22 264 LINE SMOOTH",
"22 268 OFFCURVE",
"22 272 QCURVE SMOOTH",
"22 275 LINE",
"22 276 OFFCURVE",
"22 278 QCURVE",
"22 281 LINE",
"22 283 OFFCURVE",
"22 285 QCURVE",
"22 291 LINE",
"22 293 OFFCURVE",
"22 294 QCURVE",
"22 299 LINE",
"22 301 OFFCURVE",
"22 302 QCURVE",
"22 341 LINE",
"22 342 OFFCURVE",
"22 344 QCURVE",
"22 367 LINE SMOOTH",
"22 371 OFFCURVE",
"22 375 QCURVE SMOOTH",
"22 379 LINE",
"22 380 OFFCURVE",
"22 382 QCURVE",
"22 385 LINE SMOOTH",
"22 388 OFFCURVE",
"22 390 QCURVE",
"22 396 LINE",
"22 398 OFFCURVE",
"22 400 QCURVE",
"22 404 LINE",
"22 406 OFFCURVE",
"22 407 QCURVE",
"22 444 LINE",
"22 446 OFFCURVE",
"22 447 QCURVE",
"22 468 LINE SMOOTH",
"22 471 OFFCURVE",
"22 475 QCURVE",
"22 477 LINE",
"22 479 OFFCURVE",
"22 480 QCURVE",
"22 483 LINE",
"22 485 OFFCURVE",
"22 487 QCURVE",
"22 492 LINE",
"22 493 OFFCURVE",
"22 495 QCURVE",
"22 498 LINE",
"22 500 OFFCURVE",
"22 501 QCURVE",
"22 529 LINE",
"22 530 OFFCURVE",
"22 532 QCURVE",
"22 546 LINE",
"22 548 OFFCURVE",
"22 551 QCURVE",
"22 552 LINE",
"22 553 OFFCURVE",
"22 554 QCURVE",
"22 556 LINE",
"22 557 OFFCURVE",
"22 558 QCURVE",
"22 561 LINE",
"22 562 OFFCURVE",
"22 562 QCURVE",
"22 564 LINE",
"22 565 OFFCURVE",
"22 566 QCURVE",
"22 577 LINE",
"22 577 OFFCURVE",
"22 577 QCURVE",
"22 579 LINE",
"22 618 OFFCURVE",
"30 695 OFFCURVE",
"55 761 OFFCURVE",
"103 811 OFFCURVE",
"143 824 QCURVE SMOOTH",
"167 831 OFFCURVE",
"185 831 QCURVE SMOOTH",
"200 831 OFFCURVE",
"237 817 OFFCURVE",
"248 785 OFFCURVE",
"248 775 QCURVE SMOOTH",
"248 761 OFFCURVE",
"232 716 OFFCURVE",
"203 693 QCURVE SMOOTH",
"197 688 OFFCURVE",
"191 654 OFFCURVE",
"189 628 QCURVE SMOOTH",
"188 615 OFFCURVE",
"188 602 QCURVE SMOOTH",
"188 599 LINE",
"188 598 OFFCURVE",
"188 596 QCURVE",
"188 595 OFFCURVE",
"188 594 QCURVE",
"188 593 LINE",
"188 593 OFFCURVE",
"188 593 QCURVE",
"188 590 LINE",
"188 590 OFFCURVE",
"188 589 QCURVE",
"188 588 OFFCURVE",
"188 588 QCURVE",
"188 577 LINE",
"188 576 OFFCURVE",
"188 576 QCURVE",
"188 572 LINE",
"189 567 OFFCURVE",
"190 515 OFFCURVE",
"191 457 OFFCURVE",
"191 436 QCURVE SMOOTH",
"191 415 OFFCURVE",
"190 346 OFFCURVE",
"190 255 OFFCURVE",
"189 177 OFFCURVE",
"188 128 OFFCURVE",
"188 124 QCURVE",
"188 123 LINE",
"188 123 OFFCURVE",
"188 123 OFFCURVE",
"188 123 QCURVE",
"188 115 LINE",
"188 114 OFFCURVE",
"188 114 QCURVE",
"188 110 LINE SMOOTH",
"188 94 OFFCURVE",
"189 80 QCURVE SMOOTH",
"191 52 OFFCURVE",
"197 13 OFFCURVE",
"203 8 QCURVE SMOOTH"
);
},
{
nodes = (
"188 134 LINE",
"188 134 OFFCURVE",
"188 134 QCURVE",
"188 133 LINE",
"188 132 OFFCURVE",
"188 132 QCURVE"
);
},
{
nodes = (
"188 130 LINE",
"188 129 OFFCURVE",
"188 129 QCURVE"
);
},
{
nodes = (
"188 128 LINE",
"188 127 OFFCURVE",
"188 127 QCURVE"
);
}
);
width = 233;
}
);
unicode = 0028;
},
{
glyphname = parenright;
layers = (
{
layerId = "A2B16AE3-7741-4CE5-AF1B-C234A467F8D6";
paths = (
{
nodes = (
"32 13 OFFCURVE",
"37 52 OFFCURVE",
"39 80 QCURVE SMOOTH",
"40 94 OFFCURVE",
"40 110 QCURVE SMOOTH",
"40 117 LINE",
"40 117 OFFCURVE",
"40 118 QCURVE",
"40 119 LINE",
"40 120 OFFCURVE",
"40 120 QCURVE",
"40 122 LINE",
"40 123 OFFCURVE",
"40 123 QCURVE",
"40 124 LINE",
"40 128 OFFCURVE",
"39 177 OFFCURVE",
"38 255 OFFCURVE",
"38 346 OFFCURVE",
"37 415 OFFCURVE",
"37 436 QCURVE SMOOTH",
"37 457 OFFCURVE",
"38 515 OFFCURVE",
"39 567 OFFCURVE",
"40 572 QCURVE",
"40 579 LINE",
"40 579 OFFCURVE",
"40 580 QCURVE",
"40 581 LINE",
"40 581 OFFCURVE",
"40 582 QCURVE",
"40 584 LINE",
"40 585 OFFCURVE",
"40 585 QCURVE",
"40 586 LINE",
"40 587 OFFCURVE",
"40 587 QCURVE",
"40 602 LINE SMOOTH",
"40 615 OFFCURVE",
"39 628 QCURVE SMOOTH",
"37 654 OFFCURVE",
"32 688 OFFCURVE",
"25 693 QCURVE SMOOTH",
"-4 716 OFFCURVE",
"-20 761 OFFCURVE",
"-20 775 QCURVE SMOOTH",
"-20 785 OFFCURVE",
"-9 817 OFFCURVE",
"28 831 OFFCURVE",
"43 831 QCURVE SMOOTH",
"61 831 OFFCURVE",
"85 824 QCURVE SMOOTH",
"125 811 OFFCURVE",
"172 761 OFFCURVE",
"197 695 OFFCURVE",
"205 618 OFFCURVE",
"205 579 QCURVE",
"205 578 LINE",
"205 578 OFFCURVE",
"205 577 QCURVE",
"205 575 LINE",
"205 575 OFFCURVE",
"205 574 QCURVE",
"205 573 OFFCURVE",
"205 573 QCURVE",
"205 572 LINE",
"205 571 OFFCURVE",
"205 571 QCURVE",
"205 567 LINE",
"205 567 OFFCURVE",
"205 566 QCURVE",
"205 534 LINE",
"205 532 OFFCURVE",
"205 530 QCURVE",
"205 524 LINE",
"205 523 OFFCURVE",
"205 521 QCURVE",
"205 519 LINE",
"205 518 OFFCURVE",
"205 517 QCURVE",
"205 514 LINE",
"205 513 OFFCURVE",
"205 512 QCURVE",
"205 505 LINE",
"205 504 OFFCURVE",
"205 502 QCURVE",
"205 450 LINE",
"205 448 OFFCURVE",
"205 446 QCURVE",
"205 437 LINE",
"205 435 OFFCURVE",
"205 434 QCURVE",
"205 431 LINE",
"205 429 OFFCURVE",
"205 428 QCURVE",
"205 425 LINE",
"205 423 OFFCURVE",
"205 421 QCURVE",
"205 412 LINE",
"205 411 OFFCURVE",
"205 409 QCURVE",
"205 347 LINE",
"205 345 OFFCURVE",
"205 342 QCURVE SMOOTH",
"205 332 LINE",
"205 331 OFFCURVE",
"205 329 QCURVE",
"205 326 LINE",
"205 324 OFFCURVE",
"205 323 QCURVE",
"205 319 LINE",
"205 318 OFFCURVE",
"205 316 QCURVE",
"205 307 LINE",
"205 305 OFFCURVE",
"205 304 QCURVE",
"205 247 LINE",
"205 245 OFFCURVE",
"205 243 QCURVE",
"205 234 LINE",
"205 233 OFFCURVE",
"205 232 QCURVE",
"205 229 LINE",
"205 228 OFFCURVE",
"205 226 QCURVE",
"205 224 LINE",
"205 222 OFFCURVE",
"205 221 QCURVE",
"205 214 LINE",
"205 212 OFFCURVE",
"205 211 QCURVE",
"205 169 LINE",
"205 168 OFFCURVE",
"205 166 QCURVE",
"205 161 LINE",
"205 160 OFFCURVE",
"205 159 QCURVE",
"205 158 LINE",
"205 157 OFFCURVE",
"205 156 QCURVE",
"205 155 LINE",
"205 154 OFFCURVE",
"205 153 QCURVE",
"205 150 LINE",
"205 149 OFFCURVE",
"205 148 QCURVE",
"205 136 LINE SMOOTH",
"205 93 OFFCURVE",
"197 6 OFFCURVE",
"172 -69 OFFCURVE",
"125 -127 OFFCURVE",
"85 -140 QCURVE",
"61 -149 OFFCURVE",
"42 -149 QCURVE SMOOTH",
"28 -149 OFFCURVE",
"-9 -133 OFFCURVE",
"-20 -97 OFFCURVE",
"-20 -85 QCURVE SMOOTH",
"-20 -69 OFFCURVE",
"-4 -18 OFFCURVE",
"25 8 QCURVE"
);
},
{
nodes = (
"40 134 LINE",
"40 133 OFFCURVE",
"40 133 QCURVE"
);
},
{
nodes = (
"40 132 LINE",
"40 131 OFFCURVE",
"40 130 QCURVE"
);
},
{
nodes = (
"40 129 LINE",
"40 128 OFFCURVE",
"40 128 QCURVE"
);
},
{
nodes = (
"40 127 LINE",
"40 127 OFFCURVE",
"40 126 QCURVE"
);
}
);
width = 233;
}
);
unicode = 0029;
},
{
glyphname = asterisk;
layers = (
{
layerId = "A2B16AE3-7741-4CE5-AF1B-C234A467F8D6";
paths = (
{
nodes = (
"469 307 OFFCURVE",
"469 289 QCURVE",
"469 287 OFFCURVE",
"467 266 OFFCURVE",
"439 236 OFFCURVE",
"410 228 OFFCURVE",
"403 228 QCURVE SMOOTH",
"390 228 OFFCURVE",
"379 234 QCURVE SMOOTH",
"365 241 OFFCURVE",
"316 277 QCURVE",
"315 246 OFFCURVE",
"314 209 OFFCURVE",
"312 204 QCURVE",
"310 179 OFFCURVE",
"278 158 OFFCURVE",
"260 158 QCURVE",
"258 158 OFFCURVE",
"234 160 OFFCURVE",
"199 184 OFFCURVE",
"196 204 QCURVE",
"194 211 OFFCURVE",
"192 249 OFFCURVE",
"191 282 QCURVE",
"160 258 OFFCURVE",
"124 232 OFFCURVE",
"118 229 QCURVE",
"103 218 OFFCURVE",
"89 218 QCURVE SMOOTH",
"83 218 OFFCURVE",
"57 226 OFFCURVE",
"33 259 OFFCURVE",
"31 283 OFFCURVE",
"31 285 QCURVE",
"31 303 OFFCURVE",
"43 317 QCURVE SMOOTH",
"49 324 OFFCURVE",
"101 368 OFFCURVE",
"147 406 QCURVE",
"22 507 OFFCURVE",
"19 525 QCURVE SMOOTH",
"18 531 OFFCURVE",
"18 537 QCURVE SMOOTH",
"18 571 OFFCURVE",
"43 585 QCURVE",
"52 593 OFFCURVE",
"74 599 OFFCURVE",
"82 599 QCURVE SMOOTH",
"89 599 OFFCURVE",
"95 598 QCURVE SMOOTH",
"106 597 OFFCURVE",
"190 532 QCURVE",
"193 647 OFFCURVE",
"204 658 QCURVE SMOOTH",
"228 682 OFFCURVE",
"251 682 QCURVE SMOOTH",
"259 682 OFFCURVE",
"267 679 QCURVE",
"279 677 OFFCURVE",
"303 660 OFFCURVE",
"310 646 QCURVE SMOOTH",
"316 635 OFFCURVE",
"317 542 QCURVE",
"394 600 OFFCURVE",
"409 600 QCURVE",
"409 600 OFFCURVE",
"409 600 QCURVE",
"431 599 OFFCURVE",
"460 580 OFFCURVE",
"466 566 QCURVE SMOOTH",
"470 555 OFFCURVE",
"472 539 OFFCURVE",
"472 536 QCURVE SMOOTH",
"472 525 OFFCURVE",
"467 513 QCURVE SMOOTH",
"463 501 OFFCURVE",
"349 409 QCURVE",
"440 335 OFFCURVE",
"452 322 QCURVE"
);
}
);
width = 489;
}
);
unicode = 002A;
},
{
glyphname = plus;
layers = (
{
layerId = "A2B16AE3-7741-4CE5-AF1B-C234A467F8D6";
paths = (
{
nodes = (
"393 379 OFFCURVE",
"414 342 OFFCURVE",
"414 320 QCURVE",
"414 318 OFFCURVE",
"413 293 OFFCURVE",
"389 252 OFFCURVE",
"369 249 QCURVE",
"353 245 OFFCURVE",
"286 244 QCURVE",
"284 176 OFFCURVE",
"280 163 QCURVE",
"278 139 OFFCURVE",
"241 118 OFFCURVE",
"219 118 QCURVE",
"217 118 OFFCURVE",
"192 119 OFFCURVE",
"151 143 OFFCURVE",
"148 163 QCURVE",
"146 171 OFFCURVE",
"144 211 OFFCURVE",
"143 243 QCURVE",
"55 246 OFFCURVE",
"43 259 QCURVE",
"21 287 OFFCURVE",
"21 313 QCURVE SMOOTH",
"21 322 OFFCURVE",
"23 330 QCURVE SMOOTH",
"26 344 OFFCURVE",
"42 371 OFFCURVE",
"55 379 QCURVE SMOOTH",
"66 387 OFFCURVE",
"142 387 QCURVE",
"143 478 OFFCURVE",
"158 489 QCURVE",
"186 512 OFFCURVE",
"212 512 QCURVE SMOOTH",
"221 512 OFFCURVE",
"229 509 QCURVE",
"243 506 OFFCURVE",
"270 490 OFFCURVE",
"278 477 QCURVE",
"286 467 OFFCURVE",
"286 387 QCURVE",
"357 385 OFFCURVE",
"369 381 QCURVE"
);
}
);
width = 433;
}
);
unicode = 002B;
},
{
glyphname = comma;
layers = (
{
layerId = "A2B16AE3-7741-4CE5-AF1B-C234A467F8D6";
paths = (
{
nodes = (
"42 -57 OFFCURVE",
"42 -51 QCURVE SMOOTH",
"42 -47 OFFCURVE",
"45 -34 OFFCURVE",
"51 -14 OFFCURVE",
"53 -3 OFFCURVE",
"53 -1 QCURVE",
"53 7 OFFCURVE",
"48 14 QCURVE",
"39 33 OFFCURVE",
"24 69 OFFCURVE",
"24 83 QCURVE SMOOTH",
"24 91 OFFCURVE",
"26 100 QCURVE",
"26 102 OFFCURVE",
"26 104 QCURVE",
"26 126 OFFCURVE",
"46 160 OFFCURVE",
"79 181 OFFCURVE",
"104 184 OFFCURVE",
"108 184 QCURVE SMOOTH",
"123 184 OFFCURVE",
"137 178 QCURVE",
"151 176 OFFCURVE",
"171 157 OFFCURVE",
"185 130 OFFCURVE",
"191 99 OFFCURVE",
"191 85 QCURVE",
"188 37 OFFCURVE",
"152 -39 OFFCURVE",
"106 -83 OFFCURVE",
"80 -86 OFFCURVE",
"78 -86 QCURVE",
"57 -86 OFFCURVE",
"45 -63 QCURVE SMOOTH"
);
}
);
width = 225;
}
);
unicode = 002C;
},
{
glyphname = hyphen;
layers = (
{
layerId = "A2B16AE3-7741-4CE5-AF1B-C234A467F8D6";
paths = (
{
nodes = (
"284 238 OFFCURVE",
"165 237 OFFCURVE",
"159 237 QCURVE SMOOTH",
"56 237 OFFCURVE",
"27 272 OFFCURVE",
"20 299 OFFCURVE",
"20 308 QCURVE SMOOTH",
"20 317 OFFCURVE",
"22 325 QCURVE SMOOTH",
"25 339 OFFCURVE",
"41 366 OFFCURVE",
"66 383 OFFCURVE",
"165 383 QCURVE SMOOTH",
"171 383 OFFCURVE",
"287 382 OFFCURVE",
"307 376 QCURVE",
"323 374 OFFCURVE",
"343 356 OFFCURVE",
"352 330 OFFCURVE",
"352 317 QCURVE",
"352 315 OFFCURVE",
"351 296 OFFCURVE",
"340 267 OFFCURVE",
"320 246 OFFCURVE",
"307 244 QCURVE"
);
}
);
width = 366;
}
);
unicode = 002D;
},
{
glyphname = period;
layers = (
{
layerId = "A2B16AE3-7741-4CE5-AF1B-C234A467F8D6";
paths = (
{
nodes = (
"113 15 OFFCURVE",
"101 15 QCURVE SMOOTH",
"86 15 OFFCURVE",
"51 26 OFFCURVE",
"22 55 OFFCURVE",
"14 84 OFFCURVE",
"14 93 QCURVE SMOOTH",
"14 104 OFFCURVE",
"17 114 QCURVE",
"20 130 OFFCURVE",
"37 159 OFFCURVE",
"64 178 OFFCURVE",
"91 184 OFFCURVE",
"99 184 QCURVE SMOOTH",
"112 184 OFFCURVE",
"126 180 QCURVE",
"146 178 OFFCURVE",
"171 155 OFFCURVE",
"182 123 OFFCURVE",
"182 107 QCURVE SMOOTH",
"182 104 OFFCURVE",
"181 81 OFFCURVE",
"167 46 OFFCURVE",
"143 21 OFFCURVE",
"127 18 QCURVE SMOOTH"
);
}
);
width = 201;
}
);
unicode = 002E;
},
{
glyphname = slash;
layers = (
{
layerId = "A2B16AE3-7741-4CE5-AF1B-C234A467F8D6";
paths = (
{
nodes = (
"317 681 OFFCURVE",
"321 681 QCURVE SMOOTH",
"327 681 OFFCURVE",
"347 679 OFFCURVE",
"367 669 OFFCURVE",
"385 654 OFFCURVE",
"386 641 QCURVE",
"386 624 OFFCURVE",
"366 564 OFFCURVE",
"334 487 OFFCURVE",
"293 394 OFFCURVE",
"241 280 OFFCURVE",
"207 214 OFFCURVE",
"197 196 QCURVE",
"187 166 OFFCURVE",
"154 100 OFFCURVE",
"113 44 OFFCURVE",
"75 20 OFFCURVE",
"62 20 QCURVE SMOOTH",
"51 20 OFFCURVE",
"40 26 QCURVE SMOOTH",
"24 34 OFFCURVE",
"19 60 OFFCURVE",
"19 69 QCURVE SMOOTH",
"19 80 OFFCURVE",
"25 115 OFFCURVE",
"44 167 OFFCURVE",
"65 217 OFFCURVE",
"86 269 OFFCURVE",
"91 281 QCURVE",
"127 349 OFFCURVE",
"238 588 OFFCURVE",
"239 588 QCURVE",
"239 588 OFFCURVE",
"239 588 QCURVE",
"246 602 OFFCURVE",
"260 630 OFFCURVE",
"277 655 OFFCURVE",
"297 676 OFFCURVE",
"312 681 QCURVE",
"312 681 OFFCURVE",
"312 681 QCURVE",
"312 681 OFFCURVE",
"312 681 QCURVE",
"312 681 OFFCURVE",
"312 681 QCURVE",
"312 681 OFFCURVE",
"313 681 QCURVE",
"313 681 OFFCURVE",
"313 681 QCURVE",
"313 681 OFFCURVE",
"313 681 QCURVE",
"313 681 OFFCURVE",
"313 681 QCURVE",
"313 681 OFFCURVE",
"313 681 QCURVE"
);
}
);
width = 400;
}
);
unicode = 002F;
},
{
glyphname = zero;
layers = (
{
layerId = "A2B16AE3-7741-4CE5-AF1B-C234A467F8D6";
paths = (
{
nodes = (
"222 15 OFFCURVE",
"217 15 QCURVE SMOOTH",
"159 15 OFFCURVE",
"85 62 OFFCURVE",
"43 136 OFFCURVE",
"27 222 OFFCURVE",
"24 258 QCURVE",
"20 293 OFFCURVE",
"20 327 QCURVE SMOOTH",
"20 350 OFFCURVE",
"26 430 OFFCURVE",
"37 497 QCURVE",
"37 499 LINE",
"43 518 OFFCURVE",
"56 557 OFFCURVE",
"76 593 OFFCURVE",
"105 625 OFFCURVE",
"126 637 QCURVE SMOOTH",
"154 653 OFFCURVE",
"217 670 OFFCURVE",
"248 670 QCURVE SMOOTH",
"263 670 OFFCURVE",
"292 667 OFFCURVE",
"306 663 QCURVE",
"307 663 LINE",
"336 651 OFFCURVE",
"388 610 OFFCURVE",
"408 580 QCURVE",
"408 579 LINE",
"427 542 OFFCURVE",
"450 442 OFFCURVE",
"454 364 OFFCURVE",
"454 342 QCURVE SMOOTH",
"454 309 OFFCURVE",
"447 220 OFFCURVE",
"424 126 OFFCURVE",
"387 56 OFFCURVE",
"362 43 QCURVE SMOOTH",
"327 24 OFFCURVE",
"262 15 OFFCURVE",
"227 15 QCURVE SMOOTH"
);
},
{
nodes = (
"276 225 OFFCURVE",
"285 278 OFFCURVE",
"290 336 OFFCURVE",
"290 363 QCURVE SMOOTH",
"290 369 OFFCURVE",
"289 407 OFFCURVE",
"277 461 OFFCURVE",
"254 493 OFFCURVE",
"235 493 QCURVE",
"234 493 OFFCURVE",
"233 493 QCURVE",
"214 491 OFFCURVE",
"191 451 OFFCURVE",
"179 395 OFFCURVE",
"178 356 OFFCURVE",
"178 347 QCURVE SMOOTH",
"178 329 OFFCURVE",
"179 316 QCURVE SMOOTH",
"182 293 OFFCURVE",
"187 234 OFFCURVE",
"200 209 QCURVE",
"216 190 OFFCURVE",
"254 190 OFFCURVE",
"271 213 QCURVE"
);
}
);
width = 474;
}
);
unicode = 0030;
},
{
glyphname = one;
layers = (
{
layerId = "A2B16AE3-7741-4CE5-AF1B-C234A467F8D6";
paths = (
{
nodes = (
"274 44 OFFCURVE",
"242 19 OFFCURVE",
"215 13 OFFCURVE",
"207 13 QCURVE SMOOTH",
"197 13 OFFCURVE",
"168 21 OFFCURVE",
"158 38 QCURVE",
"141 71 OFFCURVE",
"138 150 OFFCURVE",
"136 186 QCURVE SMOOTH",
"134 214 OFFCURVE",
"133 257 OFFCURVE",
"133 268 QCURVE SMOOTH",
"133 290 OFFCURVE",
"135 345 OFFCURVE",
"137 410 OFFCURVE",
"137 438 QCURVE",
"115 418 OFFCURVE",
"85 412 OFFCURVE",
"77 412 QCURVE SMOOTH",
"65 412 OFFCURVE",
"37 423 OFFCURVE",
"19 451 OFFCURVE",
"19 467 QCURVE SMOOTH",
"19 471 OFFCURVE",
"19 474 QCURVE",
"27 506 OFFCURVE",
"54 555 OFFCURVE",
"89 596 OFFCURVE",
"132 632 OFFCURVE",
"156 651 QCURVE SMOOTH",
"170 662 OFFCURVE",
"201 668 OFFCURVE",
"211 668 QCURVE SMOOTH",
"219 668 OFFCURVE",
"245 664 OFFCURVE",
"272 644 OFFCURVE",
"274 628 QCURVE",
"284 577 OFFCURVE",
"284 529 QCURVE SMOOTH",
"284 521 OFFCURVE",
"283 484 OFFCURVE",
"283 456 QCURVE SMOOTH",
"283 427 OFFCURVE",
"284 398 QCURVE",
"282 366 OFFCURVE",
"282 340 QCURVE SMOOTH",
"282 333 OFFCURVE",
"283 296 OFFCURVE",
"284 243 OFFCURVE",
"284 222 QCURVE SMOOTH",
"284 202 OFFCURVE",
"283 132 OFFCURVE",
"279 62 QCURVE"
);
}
);
width = 310;
}
);
unicode = 0031;
},
{
glyphname = two;
layers = (
{
layerId = "A2B16AE3-7741-4CE5-AF1B-C234A467F8D6";
paths = (
{
nodes = (
"25 529 OFFCURVE",
"25 532 QCURVE SMOOTH",
"25 568 OFFCURVE",
"81 633 OFFCURVE",
"169 677 OFFCURVE",
"230 683 OFFCURVE",
"240 683 QCURVE SMOOTH",
"278 683 OFFCURVE",
"309 668 QCURVE",
"333 660 OFFCURVE",
"377 627 OFFCURVE",
"409 584 OFFCURVE",
"423 543 OFFCURVE",
"423 526 QCURVE SMOOTH",
"423 519 OFFCURVE",
"422 511 QCURVE",
"420 442 OFFCURVE",
"379 346 OFFCURVE",
"322 274 OFFCURVE",
"258 220 OFFCURVE",
"233 194 QCURVE",
"258 194 OFFCURVE",
"293 197 OFFCURVE",
"313 198 OFFCURVE",
"316 198 QCURVE SMOOTH",
"332 198 OFFCURVE",
"371 193 OFFCURVE",
"403 184 QCURVE",
"421 171 OFFCURVE",
"432 131 OFFCURVE",
"432 116 QCURVE SMOOTH",
"432 107 OFFCURVE",
"426 73 OFFCURVE",
"398 34 OFFCURVE",
"376 31 QCURVE",
"336 19 OFFCURVE",
"237 9 OFFCURVE",
"193 9 QCURVE SMOOTH",
"189 9 OFFCURVE",
"137 10 OFFCURVE",
"65 24 OFFCURVE",
"56 37 QCURVE",
"42 49 OFFCURVE",
"25 86 OFFCURVE",
"21 117 OFFCURVE",
"21 127 QCURVE SMOOTH",
"21 137 OFFCURVE",
"25 168 OFFCURVE",
"35 183 QCURVE SMOOTH",
"60 219 OFFCURVE",
"133 300 OFFCURVE",
"200 377 OFFCURVE",
"241 440 OFFCURVE",
"241 461 QCURVE SMOOTH",
"241 464 OFFCURVE",
"240 468 QCURVE",
"240 469 OFFCURVE",
"240 471 QCURVE",
"240 477 OFFCURVE",
"224 498 OFFCURVE",
"216 500 QCURVE SMOOTH",
"214 501 OFFCURVE",
"211 501 QCURVE SMOOTH",
"202 501 OFFCURVE",
"172 491 OFFCURVE",
"130 476 OFFCURVE",
"91 465 OFFCURVE",
"76 465 QCURVE SMOOTH",
"72 465 OFFCURVE",
"49 467 OFFCURVE",
"26 494 OFFCURVE",
"25 525 QCURVE"
);
}
);
width = 443;
}
);
unicode = 0032;
},
{
glyphname = three;
layers = (
{
layerId = "A2B16AE3-7741-4CE5-AF1B-C234A467F8D6";
paths = (
{
nodes = (
"16 126 OFFCURVE",
"14 147 OFFCURVE",
"14 150 QCURVE SMOOTH",
"14 164 OFFCURVE",
"27 194 OFFCURVE",
"59 219 OFFCURVE",
"84 224 QCURVE SMOOTH",
"90 225 OFFCURVE",
"95 225 QCURVE SMOOTH",
"117 225 OFFCURVE",
"158 204 OFFCURVE",
"197 181 OFFCURVE",
"217 176 OFFCURVE",
"220 176 QCURVE SMOOTH",
"234 176 OFFCURVE",
"248 191 QCURVE",
"263 216 OFFCURVE",
"264 234 OFFCURVE",
"264 235 QCURVE",
"264 251 OFFCURVE",
"247 271 OFFCURVE",
"216 284 OFFCURVE",
"180 292 OFFCURVE",
"144 299 OFFCURVE",
"132 304 QCURVE SMOOTH",
"118 311 OFFCURVE",
"107 335 OFFCURVE",
"106 352 OFFCURVE",
"106 354 QCURVE",
"106 365 OFFCURVE",
"112 388 OFFCURVE",
"118 399 QCURVE",
"122 411 OFFCURVE",
"146 428 OFFCURVE",
"176 441 OFFCURVE",
"208 454 OFFCURVE",
"234 471 OFFCURVE",
"247 493 OFFCURVE",
"247 507 QCURVE SMOOTH",
"247 510 OFFCURVE",
"247 514 QCURVE",
"239 530 OFFCURVE",
"223 530 QCURVE",
"222 530 OFFCURVE",
"203 529 OFFCURVE",
"156 514 OFFCURVE",
"116 504 OFFCURVE",
"103 504 QCURVE SMOOTH",
"91 504 OFFCURVE",
"79 507 QCURVE",
"54 510 OFFCURVE",
"27 543 OFFCURVE",
"24 569 OFFCURVE",
"24 573 QCURVE SMOOTH",
"24 589 OFFCURVE",
"40 626 OFFCURVE",
"60 636 QCURVE",
"106 663 OFFCURVE",
"189 688 OFFCURVE",
"222 688 QCURVE SMOOTH",
"244 688 OFFCURVE",
"266 684 QCURVE",
"295 682 OFFCURVE",
"347 656 OFFCURVE",
"388 617 OFFCURVE",
"414 569 OFFCURVE",
"417 544 QCURVE",
"418 526 OFFCURVE",
"418 512 QCURVE SMOOTH",
"418 495 OFFCURVE",
"413 457 OFFCURVE",
"394 423 OFFCURVE",
"365 397 OFFCURVE",
"346 381 QCURVE",
"373 366 OFFCURVE",
"413 318 OFFCURVE",
"423 292 QCURVE SMOOTH",
"432 266 OFFCURVE",
"432 239 QCURVE SMOOTH",
"432 212 OFFCURVE",
"403 130 OFFCURVE",
"365 87 QCURVE",
"328 52 OFFCURVE",
"243 18 OFFCURVE",
"202 18 QCURVE SMOOTH",
"198 18 OFFCURVE",
"147 20 OFFCURVE",
"60 66 OFFCURVE",
"25 111 QCURVE"
);
}
);
width = 453;
}
);
unicode = 0033;
},
{
glyphname = four;
layers = (
{
layerId = "A2B16AE3-7741-4CE5-AF1B-C234A467F8D6";
paths = (
{
nodes = (
"344 29 OFFCURVE",
"307 12 OFFCURVE",
"284 11 OFFCURVE",
"281 11 QCURVE SMOOTH",
"263 11 OFFCURVE",
"226 25 OFFCURVE",
"219 41 QCURVE SMOOTH",
"208 68 OFFCURVE",
"205 103 OFFCURVE",
"205 116 QCURVE SMOOTH",
"205 123 OFFCURVE",
"206 149 OFFCURVE",
"208 179 OFFCURVE",
"208 189 QCURVE SMOOTH",
"208 203 OFFCURVE",
"207 219 QCURVE",
"196 220 OFFCURVE",
"184 220 QCURVE SMOOTH",
"172 220 OFFCURVE",
"139 217 OFFCURVE",
"120 217 QCURVE SMOOTH",
"115 217 OFFCURVE",
"86 218 OFFCURVE",
"44 233 OFFCURVE",
"31 254 QCURVE",
"16 274 OFFCURVE",
"12 304 OFFCURVE",
"12 312 QCURVE SMOOTH",
"12 326 OFFCURVE",
"21 362 OFFCURVE",
"43 405 OFFCURVE",
"55 423 QCURVE SMOOTH",
"73 452 OFFCURVE",
"90 483 QCURVE",
"90 483 OFFCURVE",
"91 484 QCURVE",
"93 489 LINE",
"93 489 OFFCURVE",
"94 490 QCURVE",
"96 494 LINE",
"97 495 OFFCURVE",
"97 496 QCURVE",
"100 501 LINE",
"100 502 OFFCURVE",
"100 502 QCURVE",
"103 507 LINE",
"104 508 OFFCURVE",
"104 509 QCURVE",
"107 514 LINE",
"107 514 OFFCURVE",
"107 514 QCURVE",
"110 519 LINE",
"110 520 OFFCURVE",
"111 521 QCURVE",
"114 526 LINE",
"114 526 OFFCURVE",
"114 527 QCURVE",
"117 532 LINE",
"117 533 OFFCURVE",
"118 534 QCURVE",
"120 538 LINE",
"121 539 OFFCURVE",
"121 539 QCURVE",
"123 544 LINE",
"124 545 OFFCURVE",
"124 545 QCURVE",
"141 576 OFFCURVE",
"178 637 OFFCURVE",
"200 664 QCURVE",
"208 679 OFFCURVE",
"242 688 OFFCURVE",
"256 688 QCURVE SMOOTH",
"263 688 OFFCURVE",
"293 684 OFFCURVE",
"328 664 OFFCURVE",
"331 649 QCURVE SMOOTH",
"333 641 OFFCURVE",
"333 633 QCURVE SMOOTH",
"333 622 OFFCURVE",
"324 590 OFFCURVE",
"304 550 OFFCURVE",
"280 512 OFFCURVE",
"272 496 QCURVE SMOOTH",
"258 465 OFFCURVE",
"218 407 OFFCURVE",
"204 376 QCURVE",
"213 377 OFFCURVE",
"225 377 OFFCURVE",
"233 378 QCURVE",
"236 389 OFFCURVE",
"247 412 OFFCURVE",
"265 430 OFFCURVE",
"283 437 OFFCURVE",
"291 437 QCURVE SMOOTH",
"297 437 OFFCURVE",
"305 435 QCURVE",
"311 436 OFFCURVE",
"317 436 QCURVE SMOOTH",
"339 436 OFFCURVE",
"370 401 OFFCURVE",
"374 378 QCURVE",
"383 376 OFFCURVE",
"396 376 OFFCURVE",
"406 374 OFFCURVE",
"416 369 OFFCURVE",
"423 362 QCURVE SMOOTH",
"441 342 OFFCURVE",
"441 319 QCURVE SMOOTH",
"441 313 OFFCURVE",
"434 277 OFFCURVE",
"414 254 QCURVE SMOOTH",
"406 246 OFFCURVE",
"397 239 OFFCURVE",
"390 237 OFFCURVE",
"387 237 QCURVE",
"385 237 OFFCURVE",
"377 238 OFFCURVE",
"366 238 QCURVE",
"366 227 OFFCURVE",
"366 217 QCURVE SMOOTH",
"366 197 OFFCURVE",
"369 157 OFFCURVE",
"370 132 OFFCURVE",
"370 127 QCURVE SMOOTH",
"370 111 OFFCURVE",
"364 74 OFFCURVE",
"351 46 QCURVE SMOOTH"
);
}
);
width = 441;
}
);
unicode = 0034;
},
{
glyphname = five;
layers = (
{
layerId = "A2B16AE3-7741-4CE5-AF1B-C234A467F8D6";
paths = (
{
nodes = (
"38 170 OFFCURVE",
"63 174 OFFCURVE",
"70 174 QCURVE SMOOTH",
"85 174 OFFCURVE",
"102 169 QCURVE",
"118 169 OFFCURVE",
"146 164 OFFCURVE",
"158 164 QCURVE SMOOTH",
"161 164 OFFCURVE",
"179 165 OFFCURVE",
"215 176 OFFCURVE",
"237 190 QCURVE",
"249 200 OFFCURVE",
"255 228 OFFCURVE",
"255 239 QCURVE SMOOTH",
"255 246 OFFCURVE",
"252 271 OFFCURVE",
"234 302 OFFCURVE",
"219 310 QCURVE SMOOTH",
"202 318 OFFCURVE",
"170 322 OFFCURVE",
"155 322 QCURVE SMOOTH",
"151 322 OFFCURVE",
"128 321 OFFCURVE",
"107 320 OFFCURVE",
"104 320 QCURVE SMOOTH",
"88 320 OFFCURVE",
"73 323 QCURVE",
"60 323 OFFCURVE",
"41 338 OFFCURVE",
"28 359 OFFCURVE",
"23 382 OFFCURVE",
"23 391 QCURVE SMOOTH",
"23 394 OFFCURVE",
"23 397 QCURVE",
"19 444 OFFCURVE",
"19 488 QCURVE SMOOTH",
"19 497 OFFCURVE",
"20 559 OFFCURVE",
"34 622 QCURVE",
"42 641 OFFCURVE",
"82 670 OFFCURVE",
"113 670 QCURVE SMOOTH",
"125 670 OFFCURVE",
"136 670 QCURVE SMOOTH",
"154 670 OFFCURVE",
"201 672 OFFCURVE",
"240 673 OFFCURVE",
"249 673 QCURVE SMOOTH",
"269 673 OFFCURVE",
"317 671 OFFCURVE",
"346 665 QCURVE",
"361 665 OFFCURVE",
"385 649 OFFCURVE",
"403 624 OFFCURVE",
"414 593 OFFCURVE",
"414 578 QCURVE SMOOTH",
"414 575 OFFCURVE",
"414 571 QCURVE SMOOTH",
"414 550 OFFCURVE",
"378 523 OFFCURVE",
"355 521 QCURVE",
"314 519 OFFCURVE",
"289 519 QCURVE SMOOTH",
"285 519 LINE",
"284 519 OFFCURVE",
"283 519 QCURVE",
"279 519 LINE",
"278 519 OFFCURVE",
"277 519 QCURVE",
"267 519 LINE",
"267 519 OFFCURVE",
"266 519 QCURVE",
"245 519 LINE SMOOTH",
"226 519 OFFCURVE",
"193 518 OFFCURVE",
"169 516 QCURVE",
"171 457 LINE",
"191 459 OFFCURVE",
"209 459 QCURVE SMOOTH",
"251 459 OFFCURVE",
"334 431 OFFCURVE",
"395 367 OFFCURVE",
"419 290 OFFCURVE",
"419 254 QCURVE SMOOTH",
"419 245 OFFCURVE",
"415 191 OFFCURVE",
"375 106 OFFCURVE",
"304 42 OFFCURVE",
"219 14 OFFCURVE",
"178 14 QCURVE SMOOTH",
"158 14 OFFCURVE",
"136 17 QCURVE",
"103 23 OFFCURVE",
"51 37 OFFCURVE",
"20 64 OFFCURVE",
"16 91 OFFCURVE",
"16 96 QCURVE SMOOTH",
"16 117 OFFCURVE",
"26 147 QCURVE"
);
}
);
width = 431;
}
);
unicode = 0035;
},
{
glyphname = six;
layers = (
{
layerId = "A2B16AE3-7741-4CE5-AF1B-C234A467F8D6";
paths = (
{
nodes = (
"380 43 OFFCURVE",
"283 17 OFFCURVE",
"249 17 QCURVE SMOOTH",
"224 17 OFFCURVE",
"144 35 OFFCURVE",
"59 112 OFFCURVE",
"44 173 QCURVE",
"25 242 OFFCURVE",
"25 308 QCURVE SMOOTH",
"25 313 OFFCURVE",
"27 389 OFFCURVE",
"65 511 OFFCURVE",
"137 608 OFFCURVE",
"234 666 OFFCURVE",
"305 673 OFFCURVE",
"317 673 QCURVE SMOOTH",
"367 673 OFFCURVE",
"422 653 QCURVE SMOOTH",
"440 646 OFFCURVE",
"460 613 OFFCURVE",
"461 592 OFFCURVE",
"461 590 QCURVE",
"461 574 OFFCURVE",
"446 542 OFFCURVE",
"428 534 QCURVE",
"420 528 OFFCURVE",
"407 528 QCURVE SMOOTH",
"404 528 OFFCURVE",
"384 530 OFFCURVE",
"349 534 OFFCURVE",
"333 534 QCURVE SMOOTH",
"327 534 OFFCURVE",
"297 533 OFFCURVE",
"254 512 OFFCURVE",
"217 463 OFFCURVE",
"205 417 QCURVE",
"239 430 OFFCURVE",
"288 438 OFFCURVE",
"303 438 QCURVE SMOOTH",
"320 438 OFFCURVE",
"366 429 OFFCURVE",
"420 392 OFFCURVE",
"442 358 QCURVE SMOOTH",
"482 299 OFFCURVE",
"483 230 OFFCURVE",
"483 229 QCURVE",
"483 163 OFFCURVE",
"433 93 QCURVE"
);
},
{
nodes = (
"312 275 OFFCURVE",
"280 290 OFFCURVE",
"267 290 QCURVE SMOOTH",
"261 290 OFFCURVE",
"236 285 OFFCURVE",
"202 257 OFFCURVE",
"196 235 QCURVE",
"196 233 OFFCURVE",
"196 231 QCURVE",
"196 206 OFFCURVE",
"218 174 OFFCURVE",
"247 163 OFFCURVE",
"259 163 QCURVE SMOOTH",
"265 163 OFFCURVE",
"290 167 OFFCURVE",
"319 189 OFFCURVE",
"327 216 OFFCURVE",
"327 224 QCURVE SMOOTH",
"327 237 OFFCURVE",
"322 253 QCURVE"
);
}
);
width = 498;
}
);
unicode = 0036;
},
{
glyphname = seven;
layers = (
{
layerId = "A2B16AE3-7741-4CE5-AF1B-C234A467F8D6";
paths = (
{
nodes = (
"20 567 OFFCURVE",
"20 584 QCURVE SMOOTH",
"20 616 OFFCURVE",
"56 661 OFFCURVE",
"134 677 OFFCURVE",
"177 677 QCURVE SMOOTH",
"189 677 OFFCURVE",
"260 674 OFFCURVE",
"321 674 QCURVE",
"364 672 OFFCURVE",
"404 622 OFFCURVE",
"404 589 QCURVE",
"387 517 OFFCURVE",
"345 389 OFFCURVE",
"294 267 OFFCURVE",
"235 146 OFFCURVE",
"202 80 QCURVE",
"186 52 OFFCURVE",
"144 24 OFFCURVE",
"120 22 OFFCURVE",
"116 22 QCURVE SMOOTH",
"100 22 OFFCURVE",
"67 39 OFFCURVE",
"48 75 OFFCURVE",
"48 100 QCURVE",
"48 102 OFFCURVE",
"49 132 OFFCURVE",
"65 166 QCURVE",
"83 213 OFFCURVE",
"118 295 OFFCURVE",
"153 374 OFFCURVE",
"188 455 OFFCURVE",
"206 502 QCURVE",
"188 504 OFFCURVE",
"169 504 QCURVE SMOOTH",
"159 504 OFFCURVE",
"131 503 OFFCURVE",
"114 503 QCURVE SMOOTH",
"103 503 OFFCURVE",
"66 504 OFFCURVE",
"29 522 OFFCURVE",
"24 546 QCURVE SMOOTH"
);
}
);
width = 423;
}
);
unicode = 0037;
},
{
glyphname = eight;
layers = (
{
layerId = "A2B16AE3-7741-4CE5-AF1B-C234A467F8D6";
paths = (
{
nodes = (
"406 608 OFFCURVE",
"432 548 OFFCURVE",
"432 516 QCURVE",
"432 515 OFFCURVE",
"431 481 OFFCURVE",
"405 419 OFFCURVE",
"380 397 QCURVE",
"420 367 OFFCURVE",
"456 285 OFFCURVE",
"456 241 QCURVE",
"456 240 OFFCURVE",
"455 194 OFFCURVE",
"420 108 OFFCURVE",
"358 44 OFFCURVE",
"286 15 OFFCURVE",
"253 15 QCURVE SMOOTH",
"237 15 OFFCURVE",
"221 18 QCURVE",
"217 18 OFFCURVE",
"214 18 QCURVE SMOOTH",
"181 18 OFFCURVE",
"119 36 OFFCURVE",
"68 70 OFFCURVE",
"30 117 OFFCURVE",
"20 144 QCURVE",
"11 178 OFFCURVE",
"11 257 OFFCURVE",
"30 329 OFFCURVE",
"68 386 OFFCURVE",
"97 398 QCURVE",
"65 425 OFFCURVE",
"45 497 OFFCURVE",
"45 531 QCURVE SMOOTH",
"45 535 OFFCURVE",
"45 538 QCURVE",
"57 601 OFFCURVE",
"135 673 OFFCURVE",
"207 687 OFFCURVE",
"229 687 QCURVE SMOOTH",
"258 687 OFFCURVE",
"341 666 OFFCURVE",
"379 630 QCURVE"
);
},
{
nodes = (
"228 468 OFFCURVE",
"240 468 QCURVE",
"241 468 OFFCURVE",
"255 469 OFFCURVE",
"274 483 OFFCURVE",
"280 498 OFFCURVE",
"280 503 QCURVE SMOOTH",
"280 510 OFFCURVE",
"276 517 QCURVE",
"270 535 OFFCURVE",
"250 537 OFFCURVE",
"248 537 QCURVE",
"234 537 OFFCURVE",
"208 522 OFFCURVE",
"203 503 OFFCURVE",
"203 500 QCURVE SMOOTH",
"203 488 OFFCURVE",
"217 476 QCURVE SMOOTH"
);
},
{
nodes = (
"205 171 OFFCURVE",
"228 171 QCURVE",
"229 171 OFFCURVE",
"253 172 OFFCURVE",
"284 204 OFFCURVE",
"286 230 OFFCURVE",
"286 231 QCURVE",
"286 254 OFFCURVE",
"262 275 QCURVE",
"249 290 OFFCURVE",
"212 290 OFFCURVE",
"183 267 OFFCURVE",
"175 239 OFFCURVE",
"175 231 QCURVE SMOOTH",
"175 215 OFFCURVE",
"184 197 QCURVE"
);
}
);
width = 472;
}
);
unicode = 0038;
},
{
glyphname = nine;
layers = (
{
layerId = "A2B16AE3-7741-4CE5-AF1B-C234A467F8D6";
paths = (
{
nodes = (
"108 653 OFFCURVE",
"201 682 OFFCURVE",
"235 682 QCURVE SMOOTH",
"258 682 OFFCURVE",
"338 664 OFFCURVE",
"429 585 OFFCURVE",
"447 525 QCURVE SMOOTH",
"470 452 OFFCURVE",
"472 376 OFFCURVE",
"472 370 QCURVE SMOOTH",
"472 306 OFFCURVE",
"439 188 OFFCURVE",
"371 91 OFFCURVE",
"276 31 OFFCURVE",
"199 21 OFFCURVE",
"182 21 QCURVE SMOOTH",
"137 21 OFFCURVE",
"87 36 QCURVE SMOOTH",
"69 42 OFFCURVE",
"49 79 OFFCURVE",
"47 104 OFFCURVE",
"47 109 QCURVE SMOOTH",
"47 125 OFFCURVE",
"60 160 OFFCURVE",
"78 169 QCURVE",
"86 175 OFFCURVE",
"100 175 QCURVE",
"102 175 OFFCURVE",
"121 174 OFFCURVE",
"162 169 OFFCURVE",
"208 169 OFFCURVE",
"250 186 OFFCURVE",
"287 229 OFFCURVE",
"298 269 QCURVE",
"265 254 OFFCURVE",
"208 247 OFFCURVE",
"190 247 QCURVE SMOOTH",
"172 247 OFFCURVE",
"119 254 OFFCURVE",
"60 288 OFFCURVE",
"44 317 QCURVE SMOOTH",
"23 356 OFFCURVE",
"9 415 OFFCURVE",
"9 438 QCURVE SMOOTH",
"9 449 OFFCURVE",
"14 494 OFFCURVE",
"42 562 OFFCURVE",
"66 598 QCURVE"
);
},
{
nodes = (
"190 415 OFFCURVE",
"222 396 OFFCURVE",
"237 396 QCURVE",
"239 396 OFFCURVE",
"258 398 OFFCURVE",
"286 422 OFFCURVE",
"291 444 QCURVE",
"291 472 OFFCURVE",
"270 504 OFFCURVE",
"244 514 OFFCURVE",
"233 514 QCURVE SMOOTH",
"228 514 OFFCURVE",
"206 510 OFFCURVE",
"181 490 OFFCURVE",
"174 467 OFFCURVE",
"174 460 QCURVE SMOOTH",
"174 449 OFFCURVE",
"179 437 QCURVE"
);
}
);
width = 487;
}
);
unicode = 0039;
},
{
glyphname = colon;
layers = (
{
layerId = "A2B16AE3-7741-4CE5-AF1B-C234A467F8D6";
paths = (
{
nodes = (
"116 400 OFFCURVE",
"104 400 QCURVE SMOOTH",
"89 400 OFFCURVE",
"54 411 OFFCURVE",
"25 440 OFFCURVE",
"17 469 OFFCURVE",
"17 478 QCURVE SMOOTH",
"17 489 OFFCURVE",
"20 499 QCURVE",
"23 515 OFFCURVE",
"40 544 OFFCURVE",
"67 563 OFFCURVE",
"94 569 OFFCURVE",
"102 569 QCURVE SMOOTH",
"115 569 OFFCURVE",
"129 565 QCURVE",
"149 563 OFFCURVE",
"174 540 OFFCURVE",
"185 508 OFFCURVE",
"185 492 QCURVE SMOOTH",
"185 489 OFFCURVE",
"184 466 OFFCURVE",
"170 431 OFFCURVE",
"146 406 OFFCURVE",
"130 403 QCURVE SMOOTH"
);
},
{
nodes = (
"118 15 OFFCURVE",
"106 15 QCURVE SMOOTH",
"91 15 OFFCURVE",
"56 26 OFFCURVE",
"27 55 OFFCURVE",
"19 84 OFFCURVE",
"19 93 QCURVE SMOOTH",
"19 104 OFFCURVE",
"22 114 QCURVE",
"25 130 OFFCURVE",
"42 159 OFFCURVE",
"69 178 OFFCURVE",
"96 184 OFFCURVE",
"104 184 QCURVE SMOOTH",
"117 184 OFFCURVE",
"131 180 QCURVE",
"151 178 OFFCURVE",
"176 155 OFFCURVE",
"187 123 OFFCURVE",
"187 107 QCURVE SMOOTH",
"187 104 OFFCURVE",
"186 81 OFFCURVE",
"172 46 OFFCURVE",
"148 21 OFFCURVE",
"132 18 QCURVE SMOOTH"
);
}
);
width = 206;
}
);
unicode = 003A;
},
{
glyphname = semicolon;
layers = (
{
layerId = "A2B16AE3-7741-4CE5-AF1B-C234A467F8D6";
paths = (
{
nodes = (
"116 400 OFFCURVE",
"104 400 QCURVE SMOOTH",
"89 400 OFFCURVE",
"54 411 OFFCURVE",
"25 440 OFFCURVE",
"17 469 OFFCURVE",
"17 478 QCURVE SMOOTH",
"17 489 OFFCURVE",
"20 499 QCURVE",
"23 515 OFFCURVE",
"40 544 OFFCURVE",
"67 563 OFFCURVE",
"94 569 OFFCURVE",
"102 569 QCURVE SMOOTH",
"115 569 OFFCURVE",
"129 565 QCURVE",
"149 563 OFFCURVE",
"174 540 OFFCURVE",
"185 508 OFFCURVE",
"185 492 QCURVE SMOOTH",
"185 489 OFFCURVE",
"184 466 OFFCURVE",
"170 431 OFFCURVE",
"146 406 OFFCURVE",
"130 403 QCURVE SMOOTH"
);
},
{
nodes = (
"40 -49 OFFCURVE",
"40 -43 QCURVE SMOOTH",
"40 -39 OFFCURVE",
"43 -26 OFFCURVE",
"49 -7 OFFCURVE",
"51 4 OFFCURVE",
"51 6 QCURVE",
"51 14 OFFCURVE",
"46 21 QCURVE",
"37 40 OFFCURVE",
"22 75 OFFCURVE",
"22 89 QCURVE SMOOTH",
"22 97 OFFCURVE",
"24 106 QCURVE",
"24 108 OFFCURVE",
"24 110 QCURVE",
"24 132 OFFCURVE",
"44 165 OFFCURVE",
"77 186 OFFCURVE",
"102 189 OFFCURVE",
"106 189 QCURVE SMOOTH",
"121 189 OFFCURVE",
"135 183 QCURVE",
"149 181 OFFCURVE",
"170 162 OFFCURVE",
"183 136 OFFCURVE",
"190 105 OFFCURVE",
"190 91 QCURVE",
"187 44 OFFCURVE",
"151 -32 OFFCURVE",
"104 -75 OFFCURVE",
"78 -77 OFFCURVE",
"76 -77 QCURVE",
"55 -77 OFFCURVE",
"43 -55 QCURVE SMOOTH"
);
}
);
width = 216;
}
);
unicode = 003B;
},
{
glyphname = less;
layers = (
{
layerId = "A2B16AE3-7741-4CE5-AF1B-C234A467F8D6";
paths = (
{
nodes = (
"315 123 OFFCURVE",
"273 129 OFFCURVE",
"220 143 OFFCURVE",
"160 163 OFFCURVE",
"104 191 OFFCURVE",
"56 228 OFFCURVE",
"41 250 QCURVE SMOOTH",
"37 257 OFFCURVE",
"33 288 OFFCURVE",
"33 297 QCURVE",
"33 298 OFFCURVE",
"33 298 QCURVE",
"33 299 OFFCURVE",
"33 299 QCURVE",
"33 300 LINE",
"33 300 OFFCURVE",
"33 301 QCURVE",
"33 301 OFFCURVE",
"33 302 QCURVE",
"33 302 OFFCURVE",
"33 302 QCURVE",
"33 303 OFFCURVE",
"33 303 QCURVE",
"33 311 LINE SMOOTH",
"33 320 OFFCURVE",
"34 324 QCURVE SMOOTH",
"40 366 OFFCURVE",
"70 411 OFFCURVE",
"91 425 QCURVE SMOOTH",
"103 433 OFFCURVE",
"141 453 OFFCURVE",
"187 474 OFFCURVE",
"235 493 OFFCURVE",
"279 505 OFFCURVE",
"304 508 OFFCURVE",
"310 508 QCURVE SMOOTH",
"321 508 OFFCURVE",
"328 505 QCURVE SMOOTH",
"338 502 OFFCURVE",
"351 484 OFFCURVE",
"357 461 OFFCURVE",
"358 435 OFFCURVE",
"358 425 QCURVE SMOOTH",
"358 409 OFFCURVE",
"341 384 OFFCURVE",
"313 365 OFFCURVE",
"277 349 OFFCURVE",
"241 335 OFFCURVE",
"208 324 OFFCURVE",
"196 319 QCURVE",
"208 314 OFFCURVE",
"242 301 OFFCURVE",
"278 283 OFFCURVE",
"314 262 OFFCURVE",
"342 236 OFFCURVE",
"358 206 OFFCURVE",
"358 190 QCURVE",
"357 180 OFFCURVE",
"352 157 OFFCURVE",
"343 137 OFFCURVE",
"332 123 OFFCURVE",
"326 123 QCURVE SMOOTH"
);
}
);
width = 389;
}
);
unicode = 003C;
},
{
glyphname = equal;
layers = (
{
layerId = "A2B16AE3-7741-4CE5-AF1B-C234A467F8D6";
paths = (
{
nodes = (
"284 316 OFFCURVE",
"165 315 OFFCURVE",
"159 315 QCURVE SMOOTH",
"56 315 OFFCURVE",
"27 350 OFFCURVE",
"20 377 OFFCURVE",
"20 386 QCURVE SMOOTH",
"20 395 OFFCURVE",
"22 403 QCURVE SMOOTH",
"25 417 OFFCURVE",
"41 444 OFFCURVE",
"66 461 OFFCURVE",
"165 461 QCURVE SMOOTH",
"171 461 OFFCURVE",
"287 460 OFFCURVE",
"307 454 QCURVE",
"323 452 OFFCURVE",
"343 434 OFFCURVE",
"352 408 OFFCURVE",
"352 395 QCURVE",
"352 393 OFFCURVE",
"351 374 OFFCURVE",
"340 345 OFFCURVE",
"320 324 OFFCURVE",
"307 322 QCURVE"
);
},
{
nodes = (
"284 132 OFFCURVE",
"165 131 OFFCURVE",
"159 131 QCURVE SMOOTH",
"56 131 OFFCURVE",
"27 166 OFFCURVE",
"20 193 OFFCURVE",
"20 202 QCURVE SMOOTH",
"20 211 OFFCURVE",
"22 219 QCURVE SMOOTH",
"25 233 OFFCURVE",
"41 260 OFFCURVE",
"66 277 OFFCURVE",
"165 277 QCURVE SMOOTH",
"171 277 OFFCURVE",
"287 276 OFFCURVE",
"307 270 QCURVE",
"323 268 OFFCURVE",
"343 250 OFFCURVE",
"352 224 OFFCURVE",
"352 211 QCURVE",
"352 209 OFFCURVE",
"351 190 OFFCURVE",
"340 161 OFFCURVE",
"320 140 OFFCURVE",
"307 138 QCURVE"
);
}
);
width = 376;
}
);
unicode = 003D;
},
{
glyphname = greater;
layers = (
{
layerId = "A2B16AE3-7741-4CE5-AF1B-C234A467F8D6";
paths = (
{
nodes = (
"59 123 OFFCURVE",
"48 137 OFFCURVE",
"39 157 OFFCURVE",
"34 180 OFFCURVE",
"33 190 QCURVE",
"33 206 OFFCURVE",
"49 236 OFFCURVE",
"77 262 OFFCURVE",
"113 283 OFFCURVE",
"149 301 OFFCURVE",
"183 314 OFFCURVE",
"195 319 QCURVE",
"183 324 OFFCURVE",
"150 335 OFFCURVE",
"114 349 OFFCURVE",
"78 365 OFFCURVE",
"50 384 OFFCURVE",
"33 409 OFFCURVE",
"33 425 QCURVE SMOOTH",
"33 435 OFFCURVE",
"34 461 OFFCURVE",
"40 484 OFFCURVE",
"53 502 OFFCURVE",
"63 505 QCURVE SMOOTH",
"70 508 OFFCURVE",
"81 508 QCURVE SMOOTH",
"87 508 OFFCURVE",
"112 505 OFFCURVE",
"156 493 OFFCURVE",
"204 474 OFFCURVE",
"250 453 OFFCURVE",
"288 433 OFFCURVE",
"300 425 QCURVE SMOOTH",
"321 411 OFFCURVE",
"351 366 OFFCURVE",
"357 324 QCURVE SMOOTH",
"358 320 OFFCURVE",
"358 311 QCURVE",
"358 309 LINE",
"358 309 OFFCURVE",
"358 309 QCURVE",
"358 307 LINE",
"358 307 OFFCURVE",
"358 306 QCURVE",
"358 306 OFFCURVE",
"358 306 QCURVE",
"358 298 LINE",
"358 298 OFFCURVE",
"358 298 QCURVE",
"358 297 LINE",
"358 288 OFFCURVE",
"354 257 OFFCURVE",
"350 250 QCURVE SMOOTH",
"335 228 OFFCURVE",
"287 191 OFFCURVE",
"231 163 OFFCURVE",
"171 143 OFFCURVE",
"118 129 OFFCURVE",
"76 123 OFFCURVE",
"65 123 QCURVE SMOOTH"
);
}
);
width = 389;
}
);
unicode = 003E;
},
{
glyphname = question;
layers = (
{
layerId = "A2B16AE3-7741-4CE5-AF1B-C234A467F8D6";
paths = (
{
nodes = (
"210 182 OFFCURVE",
"203 182 QCURVE SMOOTH",
"195 182 OFFCURVE",
"171 187 OFFCURVE",
"146 203 OFFCURVE",
"128 226 OFFCURVE",
"126 240 QCURVE",
"119 265 OFFCURVE",
"119 288 QCURVE SMOOTH",
"119 322 OFFCURVE",
"158 409 OFFCURVE",
"209 444 QCURVE",
"216 453 OFFCURVE",
"231 460 OFFCURVE",
"243 465 OFFCURVE",
"251 474 OFFCURVE",
"253 486 QCURVE",
"256 492 OFFCURVE",
"256 498 QCURVE SMOOTH",
"256 504 OFFCURVE",
"249 520 OFFCURVE",
"231 535 OFFCURVE",
"217 537 OFFCURVE",
"215 537 QCURVE",
"206 537 OFFCURVE",
"198 530 QCURVE SMOOTH",
"186 521 OFFCURVE",
"172 503 OFFCURVE",
"161 484 OFFCURVE",
"150 463 OFFCURVE",
"143 451 QCURVE",
"127 436 OFFCURVE",
"100 434 OFFCURVE",
"95 434 QCURVE SMOOTH",
"78 434 OFFCURVE",
"42 446 OFFCURVE",
"13 476 OFFCURVE",
"12 496 QCURVE",
"12 499 OFFCURVE",
"12 501 QCURVE",
"12 525 OFFCURVE",
"29 571 OFFCURVE",
"62 613 OFFCURVE",
"106 647 OFFCURVE",
"130 659 QCURVE",
"164 672 OFFCURVE",
"218 681 OFFCURVE",
"238 681 QCURVE SMOOTH",
"251 681 OFFCURVE",
"296 676 OFFCURVE",
"360 646 OFFCURVE",
"390 617 QCURVE",
"411 590 OFFCURVE",
"419 538 OFFCURVE",
"419 524 QCURVE SMOOTH",
"419 499 OFFCURVE",
"402 433 OFFCURVE",
"346 354 OFFCURVE",
"300 324 QCURVE",
"275 306 OFFCURVE",
"263 261 OFFCURVE",
"257 220 OFFCURVE",
"244 188 OFFCURVE",
"217 183 QCURVE SMOOTH"
);
},
{
nodes = (
"213 12 OFFCURVE",
"202 12 QCURVE SMOOTH",
"192 12 OFFCURVE",
"160 21 OFFCURVE",
"130 47 OFFCURVE",
"118 76 OFFCURVE",
"118 87 QCURVE SMOOTH",
"118 95 OFFCURVE",
"121 104 QCURVE",
"124 120 OFFCURVE",
"147 144 OFFCURVE",
"177 158 OFFCURVE",
"198 160 OFFCURVE",
"201 160 QCURVE SMOOTH",
"215 160 OFFCURVE",
"228 155 QCURVE",
"258 152 OFFCURVE",
"281 115 OFFCURVE",
"281 96 QCURVE SMOOTH",
"281 92 OFFCURVE",
"278 64 OFFCURVE",
"248 21 OFFCURVE",
"224 15 QCURVE SMOOTH"
);
}
);
width = 436;
}
);
unicode = 003F;
},
{
glyphname = at;
layers = (
{
layerId = "A2B16AE3-7741-4CE5-AF1B-C234A467F8D6";
paths = (
{
nodes = (
"420 673 OFFCURVE",
"541 632 OFFCURVE",
"622 551 OFFCURVE",
"665 430 OFFCURVE",
"671 350 QCURVE",
"671 290 OFFCURVE",
"640 173 OFFCURVE",
"597 126 QCURVE SMOOTH",
"576 103 OFFCURVE",
"526 64 OFFCURVE",
"499 49 QCURVE",
"483 42 LINE",
"471 38 OFFCURVE",
"458 34 QCURVE SMOOTH",
"447 31 OFFCURVE",
"420 27 OFFCURVE",
"408 27 QCURVE SMOOTH",
"388 27 OFFCURVE",
"373 35 QCURVE",
"373 34 LINE",
"359 41 OFFCURVE",
"345 67 OFFCURVE",
"338 98 OFFCURVE",
"338 131 OFFCURVE",
"339 145 QCURVE",
"339 150 OFFCURVE",
"341 159 OFFCURVE",
"341 163 QCURVE",
"343 198 LINE",
"269 198 OFFCURVE",
"188 267 OFFCURVE",
"188 350 QCURVE SMOOTH",
"188 354 OFFCURVE",
"188 358 QCURVE",
"189 388 OFFCURVE",
"214 438 OFFCURVE",
"256 474 OFFCURVE",
"310 494 OFFCURVE",
"339 494 QCURVE SMOOTH",
"383 494 OFFCURVE",
"438 462 OFFCURVE",
"468 410 OFFCURVE",
"479 343 OFFCURVE",
"479 307 QCURVE SMOOTH",
"479 284 OFFCURVE",
"476 236 OFFCURVE",
"474 215 QCURVE",
"473 194 LINE",
"490 205 OFFCURVE",
"500 221 QCURVE",
"538 276 OFFCURVE",
"538 354 QCURVE SMOOTH",
"538 360 OFFCURVE",
"538 366 QCURVE",
"536 450 OFFCURVE",
"473 492 QCURVE",
"411 536 OFFCURVE",
"313 536 QCURVE SMOOTH",
"218 536 OFFCURVE",
"181 482 QCURVE SMOOTH",
"144 429 OFFCURVE",
"144 364 QCURVE SMOOTH",
"144 334 OFFCURVE",
"152 270 OFFCURVE",
"177 213 OFFCURVE",
"223 169 OFFCURVE",
"262 159 QCURVE",
"275 152 OFFCURVE",
"285 142 QCURVE SMOOTH",
"293 134 OFFCURVE",
"304 113 OFFCURVE",
"304 101 QCURVE SMOOTH",
"304 97 OFFCURVE",
"304 93 QCURVE",
"303 88 OFFCURVE",
"302 80 OFFCURVE",
"302 75 QCURVE",
"301 63 OFFCURVE",
"298 43 OFFCURVE",
"287 29 OFFCURVE",
"266 23 OFFCURVE",
"250 23 QCURVE SMOOTH",
"246 23 OFFCURVE",
"241 23 QCURVE",
"179 36 OFFCURVE",
"94 100 OFFCURVE",
"41 188 OFFCURVE",
"17 295 OFFCURVE",
"17 351 QCURVE SMOOTH",
"17 418 OFFCURVE",
"33 475 QCURVE SMOOTH",
"52 539 OFFCURVE",
"131 603 QCURVE",
"172 633 OFFCURVE",
"276 670 OFFCURVE",
"336 673 QCURVE"
);
},
{
nodes = (
"334 314 OFFCURVE",
"344 315 OFFCURVE",
"349 316 QCURVE",
"349 321 OFFCURVE",
"350 331 OFFCURVE",
"350 336 QCURVE SMOOTH",
"350 346 OFFCURVE",
"349 361 OFFCURVE",
"348 368 QCURVE",
"346 368 OFFCURVE",
"338 370 OFFCURVE",
"336 370 QCURVE",
"332 371 OFFCURVE",
"319 372 OFFCURVE",
"315 372 QCURVE",
"302 367 OFFCURVE",
"301 349 OFFCURVE",
"301 343 QCURVE SMOOTH",
"301 336 OFFCURVE",
"301 329 QCURVE SMOOTH",
"301 320 OFFCURVE",
"323 314 OFFCURVE",
"331 314 QCURVE SMOOTH"
);
}
);
width = 699;
}
);
unicode = 0040;
},
{
glyphname = A;
layers = (
{
layerId = "A2B16AE3-7741-4CE5-AF1B-C234A467F8D6";
paths = (
{
nodes = (
"75 26 OFFCURVE",
"42 52 OFFCURVE",
"25 94 OFFCURVE",
"19 146 OFFCURVE",
"18 180 OFFCURVE",
"18 186 QCURVE SMOOTH",
"18 206 OFFCURVE",
"21 249 OFFCURVE",
"21 267 QCURVE SMOOTH",
"21 308 OFFCURVE",
"27 402 OFFCURVE",
"45 493 OFFCURVE",
"75 577 OFFCURVE",
"123 641 OFFCURVE",
"191 679 OFFCURVE",
"237 679 QCURVE SMOOTH",
"275 679 OFFCURVE",
"341 623 OFFCURVE",
"392 530 OFFCURVE",
"429 412 OFFCURVE",
"449 289 OFFCURVE",
"451 221 OFFCURVE",
"451 212 QCURVE SMOOTH",
"451 164 OFFCURVE",
"436 78 OFFCURVE",
"399 22 OFFCURVE",
"369 22 QCURVE SMOOTH",
"358 22 OFFCURVE",
"343 21 OFFCURVE",
"338 21 QCURVE SMOOTH",
"332 21 OFFCURVE",
"315 23 OFFCURVE",
"297 33 OFFCURVE",
"290 45 QCURVE",
"289 46 OFFCURVE",
"289 47 QCURVE",
"281 59 OFFCURVE",
"270 115 OFFCURVE",
"264 178 OFFCURVE",
"261 235 OFFCURVE",
"261 249 QCURVE",
"259 262 OFFCURVE",
"240 270 OFFCURVE",
"231 270 QCURVE SMOOTH",
"227 270 OFFCURVE",
"211 267 OFFCURVE",
"192 253 OFFCURVE",
"192 242 QCURVE",
"192 241 OFFCURVE",
"192 240 QCURVE",
"193 213 OFFCURVE",
"195 168 OFFCURVE",
"195 160 QCURVE SMOOTH",
"195 132 OFFCURVE",
"183 73 OFFCURVE",
"143 26 OFFCURVE",
"101 26 QCURVE SMOOTH"
);
},
{
nodes = (
"213 510 OFFCURVE",
"201 483 OFFCURVE",
"194 447 OFFCURVE",
"190 413 OFFCURVE",
"190 406 QCURVE SMOOTH",
"190 386 LINE",
"207 388 OFFCURVE",
"240 391 OFFCURVE",
"256 391 QCURVE",
"257 399 OFFCURVE",
"258 414 OFFCURVE",
"258 422 QCURVE SMOOTH",
"258 430 OFFCURVE",
"255 459 OFFCURVE",
"246 488 OFFCURVE",
"232 510 OFFCURVE",
"221 510 QCURVE SMOOTH"
);
}
);
width = 464;
}
);
unicode = 0041;
},
{
glyphname = B;
layers = (
{
layerId = "A2B16AE3-7741-4CE5-AF1B-C234A467F8D6";
paths = (
{
nodes = (
"174 7 OFFCURVE",
"93 15 OFFCURVE",
"46 43 OFFCURVE",
"28 97 OFFCURVE",
"26 161 OFFCURVE",
"26 185 QCURVE SMOOTH",
"26 216 OFFCURVE",
"28 298 OFFCURVE",
"28 354 QCURVE SMOOTH",
"28 383 OFFCURVE",
"28 414 QCURVE SMOOTH",
"28 444 OFFCURVE",
"24 501 OFFCURVE",
"24 518 QCURVE SMOOTH",
"24 539 OFFCURVE",
"29 595 OFFCURVE",
"55 654 OFFCURVE",
"87 664 QCURVE",
"110 670 OFFCURVE",
"170 676 OFFCURVE",
"196 676 QCURVE SMOOTH",
"207 676 OFFCURVE",
"257 674 OFFCURVE",
"335 658 OFFCURVE",
"398 622 OFFCURVE",
"438 563 OFFCURVE",
"440 520 QCURVE",
"440 516 OFFCURVE",
"440 511 QCURVE SMOOTH",
"440 480 OFFCURVE",
"414 414 OFFCURVE",
"387 385 QCURVE",
"413 378 OFFCURVE",
"444 344 OFFCURVE",
"461 299 OFFCURVE",
"466 246 OFFCURVE",
"466 219 QCURVE SMOOTH",
"466 167 OFFCURVE",
"430 88 OFFCURVE",
"368 34 OFFCURVE",
"285 7 OFFCURVE",
"238 7 QCURVE SMOOTH"
);
},
{
nodes = (
"241 436 OFFCURVE",
"277 467 OFFCURVE",
"277 494 QCURVE SMOOTH",
"277 518 OFFCURVE",
"251 535 OFFCURVE",
"237 535 QCURVE",
"235 535 OFFCURVE",
"216 533 OFFCURVE",
"193 514 OFFCURVE",
"193 501 QCURVE SMOOTH",
"193 498 OFFCURVE",
"194 495 QCURVE",
"194 469 OFFCURVE",
"210 436 OFFCURVE",
"221 436 QCURVE SMOOTH"
);
},
{
nodes = (
"291 255 OFFCURVE",
"262 291 OFFCURVE",
"241 294 OFFCURVE",
"239 294 QCURVE",
"224 294 OFFCURVE",
"197 266 OFFCURVE",
"197 232 QCURVE SMOOTH",
"197 203 OFFCURVE",
"214 165 OFFCURVE",
"239 165 QCURVE SMOOTH",
"248 165 OFFCURVE",
"266 176 OFFCURVE",
"281 193 OFFCURVE",
"291 214 OFFCURVE",
"291 224 QCURVE SMOOTH"
);
}
);
width = 481;
}
);
unicode = 0042;
},
{
glyphname = C;
layers = (
{
layerId = "A2B16AE3-7741-4CE5-AF1B-C234A467F8D6";
paths = (
{
nodes = (
"196 11 OFFCURVE",
"101 78 OFFCURVE",
"45 183 OFFCURVE",
"23 310 OFFCURVE",
"23 370 QCURVE SMOOTH",
"23 374 OFFCURVE",
"23 378 QCURVE SMOOTH",
"23 430 OFFCURVE",
"49 536 OFFCURVE",
"108 622 OFFCURVE",
"200 675 OFFCURVE",
"265 675 QCURVE SMOOTH",
"282 675 OFFCURVE",
"341 660 OFFCURVE",
"397 631 OFFCURVE",
"438 591 OFFCURVE",
"438 567 QCURVE SMOOTH",
"438 529 OFFCURVE",
"418 489 OFFCURVE",
"389 476 OFFCURVE",
"375 476 QCURVE SMOOTH",
"371 476 OFFCURVE",
"348 478 OFFCURVE",
"311 489 OFFCURVE",
"280 500 OFFCURVE",
"272 500 QCURVE SMOOTH",
"248 500 OFFCURVE",
"221 471 OFFCURVE",
"209 430 OFFCURVE",
"207 384 OFFCURVE",
"207 368 QCURVE SMOOTH",
"207 329 OFFCURVE",
"209 259 OFFCURVE",
"224 223 QCURVE",
"224 219 LINE",
"238 195 OFFCURVE",
"262 195 QCURVE",
"263 195 OFFCURVE",
"288 196 OFFCURVE",
"340 217 OFFCURVE",
"384 243 OFFCURVE",
"394 243 QCURVE SMOOTH",
"406 243 OFFCURVE",
"430 229 OFFCURVE",
"449 207 OFFCURVE",
"461 181 OFFCURVE",
"461 168 QCURVE SMOOTH",
"461 133 OFFCURVE",
"424 76 OFFCURVE",
"367 34 OFFCURVE",
"299 11 OFFCURVE",
"268 11 QCURVE SMOOTH"
);
}
);
width = 470;
}
);
unicode = 0043;
},
{
glyphname = D;
layers = (
{
layerId = "A2B16AE3-7741-4CE5-AF1B-C234A467F8D6";
paths = (
{
nodes = (
"434 221 OFFCURVE",
"375 107 OFFCURVE",
"294 44 OFFCURVE",
"196 19 OFFCURVE",
"148 15 QCURVE",
"126 15 OFFCURVE",
"99 14 OFFCURVE",
"95 14 QCURVE SMOOTH",
"78 14 OFFCURVE",
"47 21 OFFCURVE",
"30 42 OFFCURVE",
"30 60 QCURVE SMOOTH",
"30 66 OFFCURVE",
"31 72 QCURVE",
"27 90 OFFCURVE",
"24 163 OFFCURVE",
"24 281 OFFCURVE",
"25 450 OFFCURVE",
"25 563 QCURVE SMOOTH",
"25 589 OFFCURVE",
"27 634 OFFCURVE",
"39 665 OFFCURVE",
"63 681 OFFCURVE",
"82 681 QCURVE SMOOTH",
"85 681 OFFCURVE",
"87 681 QCURVE",
"112 683 OFFCURVE",
"136 683 QCURVE SMOOTH",
"208 683 OFFCURVE",
"334 639 OFFCURVE",
"420 538 OFFCURVE",
"446 420 OFFCURVE",
"446 368 QCURVE SMOOTH",
"446 341 OFFCURVE",
"443 313 QCURVE SMOOTH"
);
},
{
nodes = (
"284 345 OFFCURVE",
"284 348 QCURVE SMOOTH",
"284 398 OFFCURVE",
"254 469 OFFCURVE",
"215 509 OFFCURVE",
"192 515 OFFCURVE",
"188 515 QCURVE SMOOTH",
"181 515 OFFCURVE",
"180 509 QCURVE",
"180 189 LINE",
"193 189 OFFCURVE",
"229 209 OFFCURVE",
"261 248 OFFCURVE",
"283 305 OFFCURVE",
"284 342 QCURVE"
);
}
);
width = 469;
}
);
unicode = 0044;
},
{
glyphname = E;
layers = (
{
layerId = "A2B16AE3-7741-4CE5-AF1B-C234A467F8D6";
paths = (
{
nodes = (
"271 15 LINE SMOOTH",
"234 15 OFFCURVE",
"180 12 OFFCURVE",
"170 12 QCURVE SMOOTH",
"139 12 OFFCURVE",
"74 25 OFFCURVE",
"25 72 OFFCURVE",
"25 123 QCURVE SMOOTH",
"25 139 OFFCURVE",
"24 181 OFFCURVE",
"24 225 OFFCURVE",
"23 267 OFFCURVE",
"23 284 QCURVE SMOOTH",
"23 306 OFFCURVE",
"20 375 OFFCURVE",
"19 435 OFFCURVE",
"19 455 QCURVE SMOOTH",
"19 475 OFFCURVE",
"20 536 OFFCURVE",
"29 605 OFFCURVE",
"46 651 OFFCURVE",
"62 656 QCURVE SMOOTH",
"85 663 OFFCURVE",
"150 670 OFFCURVE",
"203 672 OFFCURVE",
"220 672 QCURVE SMOOTH",
"237 672 OFFCURVE",
"287 670 OFFCURVE",
"313 669 QCURVE",
"334 667 OFFCURVE",
"384 661 OFFCURVE",
"427 643 OFFCURVE",
"457 609 OFFCURVE",
"457 579 QCURVE SMOOTH",
"457 559 OFFCURVE",
"439 531 OFFCURVE",
"411 514 OFFCURVE",
"377 507 OFFCURVE",
"362 507 QCURVE SMOOTH",
"327 507 OFFCURVE",
"263 505 OFFCURVE",
"243 505 QCURVE SMOOTH",
"218 505 OFFCURVE",
"192 506 QCURVE",
"185 408 LINE",
"197 407 OFFCURVE",
"211 407 QCURVE SMOOTH",
"219 407 OFFCURVE",
"250 408 OFFCURVE",
"301 408 OFFCURVE",
"350 402 OFFCURVE",
"389 387 OFFCURVE",
"413 359 OFFCURVE",
"413 336 QCURVE SMOOTH",
"413 298 OFFCURVE",
"371 271 OFFCURVE",
"322 266 OFFCURVE",
"302 266 QCURVE SMOOTH",
"286 266 OFFCURVE",
"255 268 OFFCURVE",
"242 268 QCURVE SMOOTH",
"217 268 OFFCURVE",
"193 265 QCURVE",
"195 173 LINE",
"217 173 OFFCURVE",
"258 174 OFFCURVE",
"271 174 QCURVE SMOOTH",
"285 174 OFFCURVE",
"327 173 OFFCURVE",
"380 169 OFFCURVE",
"403 163 QCURVE",
"404 163 LINE",
"423 151 OFFCURVE",
"446 118 OFFCURVE",
"446 95 QCURVE SMOOTH",
"446 82 OFFCURVE",
"441 65 QCURVE",
"439 64 LINE",
"424 43 OFFCURVE",
"385 23 OFFCURVE",
"341 15 OFFCURVE",
"318 15 QCURVE",
"316 15 OFFCURVE",
"314 15 QCURVE",
"312 15 LINE",
"309 15 OFFCURVE",
"307 15 QCURVE",
"305 15 LINE",
"304 15 OFFCURVE",
"304 15 QCURVE",
"302 15 LINE",
"301 15 OFFCURVE",
"299 15 QCURVE",
"297 15 LINE",
"296 15 OFFCURVE",
"295 15 QCURVE",
"278 15 LINE",
"278 15 OFFCURVE",
"278 15 QCURVE",
"276 15 LINE",
"276 15 OFFCURVE",
"275 15 QCURVE"
);
}
);
width = 472;
}
);
unicode = 0045;
},
{
glyphname = F;
layers = (
{
layerId = "A2B16AE3-7741-4CE5-AF1B-C234A467F8D6";
paths = (
{
nodes = (
"89 16 OFFCURVE",
"52 41 OFFCURVE",
"38 83 OFFCURVE",
"38 108 QCURVE",
"38 110 OFFCURVE",
"39 140 OFFCURVE",
"39 170 QCURVE SMOOTH",
"39 230 OFFCURVE",
"32 351 OFFCURVE",
"32 406 QCURVE SMOOTH",
"32 429 OFFCURVE",
"29 485 OFFCURVE",
"28 524 OFFCURVE",
"28 533 QCURVE SMOOTH",
"28 552 OFFCURVE",
"31 599 OFFCURVE",
"45 642 OFFCURVE",
"72 669 OFFCURVE",
"95 670 QCURVE",
"107 674 OFFCURVE",
"166 679 OFFCURVE",
"232 680 OFFCURVE",
"262 680 QCURVE",
"264 680 LINE",
"265 680 OFFCURVE",
"266 680 QCURVE",
"267 680 LINE",
"269 680 OFFCURVE",
"270 680 QCURVE",
"277 680 LINE",
"278 680 OFFCURVE",
"279 680 QCURVE",
"302 680 LINE",
"302 680 OFFCURVE",
"303 680 QCURVE",
"305 680 LINE",
"305 680 OFFCURVE",
"306 680 QCURVE",
"339 680 OFFCURVE",
"393 674 OFFCURVE",
"427 653 OFFCURVE",
"434 624 OFFCURVE",
"434 614 QCURVE SMOOTH",
"434 597 OFFCURVE",
"428 573 QCURVE",
"420 546 OFFCURVE",
"367 523 OFFCURVE",
"312 518 OFFCURVE",
"290 518 QCURVE SMOOTH",
"280 518 OFFCURVE",
"237 520 OFFCURVE",
"220 520 QCURVE",
"220 429 LINE",
"245 432 OFFCURVE",
"287 435 OFFCURVE",
"295 435 QCURVE SMOOTH",
"319 435 OFFCURVE",
"370 424 OFFCURVE",
"411 389 OFFCURVE",
"411 353 QCURVE SMOOTH",
"411 330 OFFCURVE",
"388 304 OFFCURVE",
"352 291 OFFCURVE",
"306 288 OFFCURVE",
"260 287 OFFCURVE",
"219 286 OFFCURVE",
"205 282 QCURVE",
"203 235 OFFCURVE",
"203 196 QCURVE SMOOTH",
"203 177 OFFCURVE",
"204 148 OFFCURVE",
"204 136 QCURVE SMOOTH",
"204 102 OFFCURVE",
"196 46 OFFCURVE",
"164 16 OFFCURVE",
"127 16 QCURVE SMOOTH"
);
}
);
width = 450;
}
);
unicode = 0046;
},
{
glyphname = G;
layers = (
{
layerId = "A2B16AE3-7741-4CE5-AF1B-C234A467F8D6";
paths = (
{
nodes = (
"465 192 OFFCURVE",
"405 78 OFFCURVE",
"309 14 OFFCURVE",
"244 10 OFFCURVE",
"239 10 QCURVE SMOOTH",
"185 10 OFFCURVE",
"131 43 QCURVE",
"87 77 OFFCURVE",
"35 187 OFFCURVE",
"21 288 OFFCURVE",
"21 327 QCURVE SMOOTH",
"21 354 OFFCURVE",
"30 451 OFFCURVE",
"72 570 OFFCURVE",
"143 661 OFFCURVE",
"220 692 OFFCURVE",
"254 692 QCURVE SMOOTH",
"276 692 OFFCURVE",
"360 675 OFFCURVE",
"431 620 QCURVE",
"447 605 OFFCURVE",
"458 569 OFFCURVE",
"458 555 QCURVE SMOOTH",
"458 547 OFFCURVE",
"452 518 OFFCURVE",
"421 488 OFFCURVE",
"394 488 QCURVE SMOOTH",
"368 488 OFFCURVE",
"341 494 OFFCURVE",
"320 503 OFFCURVE",
"295 514 OFFCURVE",
"272 519 QCURVE SMOOTH",
"263 521 OFFCURVE",
"255 521 QCURVE SMOOTH",
"237 521 OFFCURVE",
"207 495 OFFCURVE",
"187 445 OFFCURVE",
"180 388 OFFCURVE",
"180 369 QCURVE",
"180 368 OFFCURVE",
"180 367 QCURVE",
"180 363 LINE",
"180 361 OFFCURVE",
"180 359 QCURVE",
"180 354 LINE",
"180 353 OFFCURVE",
"180 352 QCURVE",
"180 347 LINE",
"180 346 OFFCURVE",
"180 345 QCURVE",
"180 343 LINE",
"180 342 OFFCURVE",
"180 341 QCURVE",
"180 309 LINE SMOOTH",
"180 274 OFFCURVE",
"192 211 OFFCURVE",
"222 168 OFFCURVE",
"252 168 QCURVE SMOOTH",
"282 168 OFFCURVE",
"303 202 OFFCURVE",
"303 237 QCURVE SMOOTH",
"303 253 OFFCURVE",
"277 262 OFFCURVE",
"245 273 OFFCURVE",
"219 299 OFFCURVE",
"219 331 QCURVE SMOOTH",
"219 353 OFFCURVE",
"255 384 OFFCURVE",
"301 395 OFFCURVE",
"322 395 QCURVE SMOOTH",
"332 395 OFFCURVE",
"374 391 OFFCURVE",
"429 361 OFFCURVE",
"465 305 OFFCURVE",
"465 263 QCURVE SMOOTH"
);
}
);
width = 479;
}
);
unicode = 0047;
},
{
glyphname = H;
layers = (
{
layerId = "A2B16AE3-7741-4CE5-AF1B-C234A467F8D6";
paths = (
{
nodes = (
"211 269 OFFCURVE",
"211 218 OFFCURVE",
"210 159 OFFCURVE",
"206 99 OFFCURVE",
"193 51 OFFCURVE",
"167 20 OFFCURVE",
"145 20 QCURVE SMOOTH",
"131 20 OFFCURVE",
"102 23 OFFCURVE",
"75 33 OFFCURVE",
"53 49 OFFCURVE",
"47 63 QCURVE SMOOTH",
"42 74 OFFCURVE",
"35 148 OFFCURVE",
"31 248 OFFCURVE",
"30 362 OFFCURVE",
"29 465 OFFCURVE",
"29 505 QCURVE SMOOTH",
"29 512 LINE",
"29 514 OFFCURVE",
"29 516 QCURVE",
"29 525 LINE",
"29 526 OFFCURVE",
"29 527 QCURVE",
"29 529 LINE",
"29 530 OFFCURVE",
"29 531 QCURVE",
"29 533 LINE",
"29 534 OFFCURVE",
"29 535 QCURVE",
"29 537 LINE",
"29 538 OFFCURVE",
"29 539 QCURVE",
"29 557 LINE",
"29 557 OFFCURVE",
"29 558 QCURVE",
"29 562 LINE SMOOTH",
"29 585 OFFCURVE",
"41 631 OFFCURVE",
"57 649 QCURVE",
"57 650 LINE",
"71 664 OFFCURVE",
"107 676 OFFCURVE",
"126 676 QCURVE SMOOTH",
"169 676 OFFCURVE",
"206 618 OFFCURVE",
"215 547 OFFCURVE",
"215 515 QCURVE SMOOTH",
"215 502 OFFCURVE",
"213 458 OFFCURVE",
"213 432 QCURVE SMOOTH",
"213 419 OFFCURVE",
"213 407 QCURVE",
"235 409 OFFCURVE",
"264 410 OFFCURVE",
"286 412 QCURVE",
"287 454 OFFCURVE",
"288 522 OFFCURVE",
"288 551 QCURVE SMOOTH",
"288 555 LINE",
"288 556 OFFCURVE",
"288 556 QCURVE",
"288 559 LINE",
"288 560 OFFCURVE",
"288 560 QCURVE",
"288 561 LINE",
"288 561 OFFCURVE",
"288 562 QCURVE",
"288 563 LINE",
"288 563 OFFCURVE",
"288 564 QCURVE",
"288 565 LINE",
"288 565 OFFCURVE",
"288 566 QCURVE",
"288 583 LINE SMOOTH",
"288 601 OFFCURVE",
"293 637 OFFCURVE",
"307 667 OFFCURVE",
"321 675 QCURVE",
"356 685 OFFCURVE",
"381 685 QCURVE SMOOTH",
"388 685 OFFCURVE",
"422 681 OFFCURVE",
"455 651 OFFCURVE",
"467 600 OFFCURVE",
"467 567 QCURVE SMOOTH",
"467 452 OFFCURVE",
"464 216 OFFCURVE",
"464 101 QCURVE SMOOTH",
"464 85 OFFCURVE",
"451 55 OFFCURVE",
"430 31 OFFCURVE",
"402 17 OFFCURVE",
"387 17 QCURVE SMOOTH",
"363 17 OFFCURVE",
"328 35 OFFCURVE",
"304 64 OFFCURVE",
"291 103 OFFCURVE",
"290 124 QCURVE SMOOTH",
"288 215 LINE",
"287 228 OFFCURVE",
"287 240 QCURVE SMOOTH",
"287 246 OFFCURVE",
"288 256 OFFCURVE",
"288 259 QCURVE SMOOTH",
"288 274 OFFCURVE",
"286 288 QCURVE",
"280 288 LINE",
"279 288 OFFCURVE",
"279 288 QCURVE",
"275 288 LINE",
"274 288 OFFCURVE",
"274 288 QCURVE",
"273 288 LINE",
"272 288 OFFCURVE",
"272 288 QCURVE",
"271 288 LINE",
"270 288 OFFCURVE",
"269 288 QCURVE",
"268 288 LINE",
"268 288 OFFCURVE",
"267 288 QCURVE",
"249 288 LINE",
"248 288 OFFCURVE",
"248 288 QCURVE",
"246 288 LINE",
"246 288 OFFCURVE",
"245 288 QCURVE",
"244 288 OFFCURVE",
"244 288 QCURVE",
"243 288 LINE",
"243 288 OFFCURVE",
"243 288 QCURVE",
"242 288 LINE",
"242 288 OFFCURVE",
"242 288 QCURVE",
"234 288 LINE SMOOTH",
"227 288 OFFCURVE",
"219 286 OFFCURVE",
"214 285 QCURVE"
);
}
);
width = 500;
}
);
unicode = 0048;
},
{
glyphname = I;
layers = (
{
layerId = "A2B16AE3-7741-4CE5-AF1B-C234A467F8D6";
paths = (
{
nodes = (
"158 23 OFFCURVE",
"129 15 OFFCURVE",
"112 14 OFFCURVE",
"110 14 QCURVE",
"97 14 OFFCURVE",
"72 21 OFFCURVE",
"63 32 QCURVE SMOOTH",
"53 45 OFFCURVE",
"41 107 OFFCURVE",
"34 189 OFFCURVE",
"32 282 OFFCURVE",
"32 369 OFFCURVE",
"33 442 OFFCURVE",
"33 462 QCURVE",
"33 463 LINE",
"33 465 OFFCURVE",
"33 467 QCURVE",
"33 469 LINE",
"33 469 OFFCURVE",
"33 470 QCURVE",
"33 476 LINE",
"33 477 OFFCURVE",
"33 477 QCURVE",
"33 479 LINE",
"33 480 OFFCURVE",
"33 481 QCURVE",
"33 482 LINE",
"33 483 OFFCURVE",
"33 484 QCURVE",
"33 486 LINE",
"33 487 OFFCURVE",
"33 488 QCURVE",
"33 521 LINE SMOOTH",
"33 557 OFFCURVE",
"47 624 OFFCURVE",
"84 673 OFFCURVE",
"120 673 QCURVE SMOOTH",
"140 673 OFFCURVE",
"168 645 OFFCURVE",
"185 601 OFFCURVE",
"194 547 OFFCURVE",
"199 494 OFFCURVE",
"199 471 QCURVE SMOOTH",
"199 467 LINE",
"199 465 OFFCURVE",
"199 463 QCURVE",
"199 459 LINE",
"199 458 OFFCURVE",
"199 458 QCURVE",
"199 452 LINE",
"199 451 OFFCURVE",
"199 451 QCURVE",
"199 435 LINE SMOOTH",
"199 361 OFFCURVE",
"197 216 OFFCURVE",
"197 142 QCURVE",
"197 141 OFFCURVE",
"197 140 QCURVE",
"197 139 LINE",
"197 138 OFFCURVE",
"197 136 QCURVE",
"197 134 LINE",
"197 133 OFFCURVE",
"197 133 QCURVE",
"197 130 LINE",
"197 130 OFFCURVE",
"197 129 QCURVE",
"197 112 LINE SMOOTH",
"197 97 OFFCURVE",
"193 67 OFFCURVE",
"182 40 OFFCURVE",
"170 29 QCURVE",
"169 29 OFFCURVE",
"169 28 OFFCURVE",
"168 28 QCURVE"
);
}
);
width = 228;
}
);
unicode = 0049;
},
{
glyphname = J;
layers = (
{
layerId = "A2B16AE3-7741-4CE5-AF1B-C234A467F8D6";
paths = (
{
nodes = (
"347 71 OFFCURVE",
"291 27 OFFCURVE",
"234 11 OFFCURVE",
"208 11 QCURVE SMOOTH",
"200 11 OFFCURVE",
"156 15 OFFCURVE",
"91 43 OFFCURVE",
"38 93 OFFCURVE",
"23 129 QCURVE SMOOTH",
"20 136 OFFCURVE",
"20 144 QCURVE SMOOTH",
"20 147 OFFCURVE",
"22 162 OFFCURVE",
"35 184 OFFCURVE",
"55 202 OFFCURVE",
"68 206 QCURVE SMOOTH",
"77 209 OFFCURVE",
"87 209 QCURVE SMOOTH",
"95 209 OFFCURVE",
"122 202 OFFCURVE",
"155 186 OFFCURVE",
"183 174 OFFCURVE",
"194 174 QCURVE",
"195 174 OFFCURVE",
"209 175 OFFCURVE",
"225 200 OFFCURVE",
"229 232 QCURVE",
"225 504 LINE",
"206 505 OFFCURVE",
"189 505 QCURVE SMOOTH",
"176 505 OFFCURVE",
"153 504 OFFCURVE",
"142 504 QCURVE SMOOTH",
"127 504 OFFCURVE",
"91 507 OFFCURVE",
"49 522 OFFCURVE",
"28 542 QCURVE",
"15 564 OFFCURVE",
"15 586 QCURVE SMOOTH",
"15 589 OFFCURVE",
"17 616 OFFCURVE",
"49 653 OFFCURVE",
"105 676 OFFCURVE",
"142 676 QCURVE",
"177 677 OFFCURVE",
"211 678 OFFCURVE",
"217 678 QCURVE SMOOTH",
"237 678 OFFCURVE",
"281 672 OFFCURVE",
"326 652 OFFCURVE",
"352 631 QCURVE",
"366 614 OFFCURVE",
"379 587 OFFCURVE",
"385 557 OFFCURVE",
"388 518 OFFCURVE",
"391 488 QCURVE",
"392 452 OFFCURVE",
"394 375 OFFCURVE",
"394 348 QCURVE SMOOTH",
"394 322 OFFCURVE",
"392 241 OFFCURVE",
"379 140 OFFCURVE",
"364 106 QCURVE"
);
}
);
width = 422;
}
);
unicode = 004A;
},
{
glyphname = K;
layers = (
{
layerId = "A2B16AE3-7741-4CE5-AF1B-C234A467F8D6";
paths = (
{
nodes = (
"37 37 OFFCURVE",
"24 117 OFFCURVE",
"18 233 OFFCURVE",
"18 368 OFFCURVE",
"20 489 OFFCURVE",
"23 581 OFFCURVE",
"24 596 QCURVE SMOOTH",
"26 623 OFFCURVE",
"47 655 OFFCURVE",
"77 670 OFFCURVE",
"110 674 OFFCURVE",
"124 674 QCURVE SMOOTH",
"157 674 OFFCURVE",
"185 641 OFFCURVE",
"193 592 OFFCURVE",
"193 565 QCURVE SMOOTH",
"193 560 OFFCURVE",
"193 545 OFFCURVE",
"193 537 QCURVE SMOOTH",
"193 512 OFFCURVE",
"195 487 QCURVE",
"211 507 OFFCURVE",
"245 569 OFFCURVE",
"284 628 OFFCURVE",
"330 671 OFFCURVE",
"358 671 QCURVE SMOOTH",
"369 671 OFFCURVE",
"395 659 OFFCURVE",
"418 639 OFFCURVE",
"434 615 OFFCURVE",
"435 603 QCURVE",
"435 599 OFFCURVE",
"435 595 QCURVE SMOOTH",
"435 560 OFFCURVE",
"404 486 OFFCURVE",
"359 415 OFFCURVE",
"314 358 OFFCURVE",
"305 342 QCURVE",
"319 322 OFFCURVE",
"361 264 OFFCURVE",
"401 198 OFFCURVE",
"431 130 OFFCURVE",
"433 101 QCURVE",
"433 99 OFFCURVE",
"433 97 QCURVE",
"433 81 OFFCURVE",
"416 52 OFFCURVE",
"388 29 OFFCURVE",
"357 16 OFFCURVE",
"345 16 QCURVE SMOOTH",
"315 16 OFFCURVE",
"276 53 OFFCURVE",
"246 106 OFFCURVE",
"219 166 OFFCURVE",
"201 189 QCURVE",
"199 179 OFFCURVE",
"199 176 QCURVE",
"199 175 OFFCURVE",
"200 173 OFFCURVE",
"201 161 QCURVE SMOOTH",
"202 152 OFFCURVE",
"202 143 QCURVE SMOOTH",
"202 104 OFFCURVE",
"177 46 OFFCURVE",
"132 16 OFFCURVE",
"104 16 QCURVE",
"103 16 OFFCURVE",
"74 17 OFFCURVE",
"48 31 QCURVE SMOOTH"
);
}
);
width = 441;
}
);
unicode = 004B;
},
{
glyphname = L;
layers = (
{
layerId = "A2B16AE3-7741-4CE5-AF1B-C234A467F8D6";
paths = (
{
nodes = (
"386 54 OFFCURVE",
"339 21 OFFCURVE",
"281 12 OFFCURVE",
"254 12 QCURVE SMOOTH",
"246 12 OFFCURVE",
"202 14 OFFCURVE",
"178 14 QCURVE SMOOTH",
"138 14 OFFCURVE",
"83 28 OFFCURVE",
"48 61 OFFCURVE",
"32 117 OFFCURVE",
"32 158 QCURVE SMOOTH",
"32 243 OFFCURVE",
"29 413 OFFCURVE",
"29 497 QCURVE SMOOTH",
"29 523 OFFCURVE",
"28 560 OFFCURVE",
"28 565 QCURVE SMOOTH",
"28 592 OFFCURVE",
"39 645 OFFCURVE",
"76 684 OFFCURVE",
"115 684 QCURVE SMOOTH",
"203 684 OFFCURVE",
"203 598 QCURVE SMOOTH",
"203 551 OFFCURVE",
"202 467 OFFCURVE",
"200 385 OFFCURVE",
"199 300 OFFCURVE",
"199 253 QCURVE SMOOTH",
"199 236 OFFCURVE",
"202 212 OFFCURVE",
"213 197 OFFCURVE",
"234 190 OFFCURVE",
"251 190 QCURVE SMOOTH",
"266 190 OFFCURVE",
"281 191 OFFCURVE",
"293 192 OFFCURVE",
"309 193 OFFCURVE",
"324 193 QCURVE SMOOTH",
"342 193 OFFCURVE",
"366 175 OFFCURVE",
"380 145 OFFCURVE",
"386 108 OFFCURVE",
"386 89 QCURVE SMOOTH"
);
}
);
width = 394;
}
);
unicode = 004C;
},
{
glyphname = M;
layers = (
{
layerId = "A2B16AE3-7741-4CE5-AF1B-C234A467F8D6";
paths = (
{
nodes = (
"121 19 OFFCURVE",
"100 17 OFFCURVE",
"95 17 QCURVE SMOOTH",
"85 17 OFFCURVE",
"59 23 OFFCURVE",
"36 40 OFFCURVE",
"33 54 QCURVE SMOOTH",
"22 109 OFFCURVE",
"18 212 OFFCURVE",
"18 255 QCURVE SMOOTH",
"18 272 OFFCURVE",
"19 349 OFFCURVE",
"23 450 OFFCURVE",
"23 490 QCURVE SMOOTH",
"23 506 OFFCURVE",
"23 522 QCURVE",
"25 541 OFFCURVE",
"28 584 OFFCURVE",
"40 625 OFFCURVE",
"64 659 OFFCURVE",
"88 670 QCURVE",
"99 676 OFFCURVE",
"126 676 OFFCURVE",
"152 669 OFFCURVE",
"175 656 OFFCURVE",
"181 648 QCURVE SMOOTH",
"210 607 OFFCURVE",
"246 515 OFFCURVE",
"270 472 QCURVE",
"283 497 OFFCURVE",
"302 546 OFFCURVE",
"323 594 OFFCURVE",
"350 640 OFFCURVE",
"371 662 QCURVE",
"387 675 OFFCURVE",
"422 684 OFFCURVE",
"437 684 QCURVE SMOOTH",
"443 684 OFFCURVE",
"471 681 OFFCURVE",
"509 663 OFFCURVE",
"522 648 QCURVE SMOOTH",
"534 634 OFFCURVE",
"539 600 OFFCURVE",
"541 583 QCURVE",
"547 502 OFFCURVE",
"547 421 QCURVE SMOOTH",
"547 401 OFFCURVE",
"547 381 QCURVE SMOOTH",
"547 364 OFFCURVE",
"546 347 QCURVE",
"546 341 LINE SMOOTH",
"546 324 OFFCURVE",
"546 306 QCURVE",
"545 300 LINE",
"544 243 OFFCURVE",
"543 185 QCURVE",
"543 179 LINE SMOOTH",
"543 161 OFFCURVE",
"544 138 OFFCURVE",
"544 134 QCURVE SMOOTH",
"544 119 OFFCURVE",
"540 86 OFFCURVE",
"526 51 OFFCURVE",
"511 36 QCURVE",
"496 26 OFFCURVE",
"470 23 OFFCURVE",
"463 23 QCURVE SMOOTH",
"451 23 OFFCURVE",
"421 30 OFFCURVE",
"390 50 OFFCURVE",
"382 64 QCURVE",
"373 91 OFFCURVE",
"371 135 OFFCURVE",
"371 152 QCURVE SMOOTH",
"371 163 OFFCURVE",
"372 201 OFFCURVE",
"375 243 OFFCURVE",
"375 257 QCURVE SMOOTH",
"375 271 OFFCURVE",
"374 284 QCURVE",
"358 251 OFFCURVE",
"330 193 OFFCURVE",
"302 155 OFFCURVE",
"283 150 OFFCURVE",
"280 150 QCURVE SMOOTH",
"267 150 OFFCURVE",
"252 162 QCURVE SMOOTH",
"235 174 OFFCURVE",
"215 204 OFFCURVE",
"201 237 OFFCURVE",
"190 271 OFFCURVE",
"181 288 QCURVE",
"178 251 OFFCURVE",
"176 195 OFFCURVE",
"175 145 OFFCURVE",
"172 98 OFFCURVE",
"169 70 QCURVE",
"166 55 OFFCURVE",
"148 35 OFFCURVE",
"134 26 QCURVE"
);
}
);
width = 573;
}
);
unicode = 004D;
},
{
glyphname = N;
layers = (
{
layerId = "A2B16AE3-7741-4CE5-AF1B-C234A467F8D6";
paths = (
{
nodes = (
"127 13 OFFCURVE",
"110 13 QCURVE SMOOTH",
"107 13 OFFCURVE",
"84 15 OFFCURVE",
"50 36 OFFCURVE",
"27 70 OFFCURVE",
"25 88 QCURVE",
"25 133 OFFCURVE",
"23 241 OFFCURVE",
"21 352 OFFCURVE",
"20 428 OFFCURVE",
"20 449 QCURVE SMOOTH",
"20 479 OFFCURVE",
"22 551 OFFCURVE",
"31 616 OFFCURVE",
"39 629 QCURVE",
"52 656 OFFCURVE",
"93 680 OFFCURVE",
"140 680 OFFCURVE",
"184 657 OFFCURVE",
"200 636 QCURVE SMOOTH",
"221 608 OFFCURVE",
"246 561 OFFCURVE",
"266 516 OFFCURVE",
"287 471 OFFCURVE",
"304 444 QCURVE",
"304 456 OFFCURVE",
"304 467 QCURVE SMOOTH",
"304 494 OFFCURVE",
"300 547 OFFCURVE",
"299 578 OFFCURVE",
"299 583 QCURVE SMOOTH",
"299 601 OFFCURVE",
"304 636 OFFCURVE",
"316 655 QCURVE",
"323 671 OFFCURVE",
"360 683 OFFCURVE",
"378 683 QCURVE SMOOTH",
"383 683 OFFCURVE",
"411 681 OFFCURVE",
"450 661 OFFCURVE",
"453 645 QCURVE",
"458 626 OFFCURVE",
"462 551 OFFCURVE",
"463 490 OFFCURVE",
"463 478 QCURVE SMOOTH",
"463 440 OFFCURVE",
"460 341 OFFCURVE",
"458 226 OFFCURVE",
"456 138 OFFCURVE",
"456 108 QCURVE SMOOTH",
"456 88 OFFCURVE",
"456 70 QCURVE",
"453 43 OFFCURVE",
"413 15 OFFCURVE",
"382 13 OFFCURVE",
"377 13 QCURVE SMOOTH",
"357 13 OFFCURVE",
"314 27 OFFCURVE",
"304 42 QCURVE SMOOTH",
"280 80 OFFCURVE",
"246 152 OFFCURVE",
"220 222 OFFCURVE",
"209 256 QCURVE SMOOTH",
"203 275 OFFCURVE",
"196 295 QCURVE",
"196 297 LINE",
"191 310 OFFCURVE",
"187 324 QCURVE",
"189 279 OFFCURVE",
"189 214 OFFCURVE",
"187 158 OFFCURVE",
"181 103 OFFCURVE",
"177 69 QCURVE",
"172 56 OFFCURVE",
"161 30 OFFCURVE",
"144 22 QCURVE SMOOTH"
);
}
);
width = 487;
}
);
unicode = 004E;
},
{
glyphname = O;
layers = (
{
layerId = "A2B16AE3-7741-4CE5-AF1B-C234A467F8D6";
paths = (
{
nodes = (
"280 19 OFFCURVE",
"229 19 QCURVE SMOOTH",
"216 19 OFFCURVE",
"146 29 OFFCURVE",
"69 96 OFFCURVE",
"29 201 OFFCURVE",
"24 258 QCURVE",
"20 293 OFFCURVE",
"20 327 QCURVE SMOOTH",
"20 350 OFFCURVE",
"26 430 OFFCURVE",
"37 497 QCURVE",
"37 499 LINE",
"43 518 OFFCURVE",
"56 557 OFFCURVE",
"76 593 OFFCURVE",
"105 625 OFFCURVE",
"126 637 QCURVE SMOOTH",
"166 660 OFFCURVE",
"231 670 OFFCURVE",
"249 670 QCURVE SMOOTH",
"278 670 OFFCURVE",
"307 663 QCURVE",
"336 651 OFFCURVE",
"388 610 OFFCURVE",
"408 580 QCURVE",
"408 579 LINE",
"427 542 OFFCURVE",
"453 444 OFFCURVE",
"460 360 OFFCURVE",
"460 329 QCURVE SMOOTH",
"460 305 OFFCURVE",
"455 227 OFFCURVE",
"428 133 OFFCURVE",
"381 61 OFFCURVE",
"346 45 QCURVE"
);
},
{
nodes = (
"276 225 OFFCURVE",
"285 278 OFFCURVE",
"290 336 OFFCURVE",
"290 363 QCURVE SMOOTH",
"290 369 OFFCURVE",
"289 407 OFFCURVE",
"277 461 OFFCURVE",
"254 493 OFFCURVE",
"235 493 QCURVE",
"234 493 OFFCURVE",
"233 493 QCURVE",
"214 491 OFFCURVE",
"191 451 OFFCURVE",
"179 395 OFFCURVE",
"178 356 OFFCURVE",
"178 347 QCURVE SMOOTH",
"178 329 OFFCURVE",
"179 316 QCURVE SMOOTH",
"182 293 OFFCURVE",
"187 234 OFFCURVE",
"200 209 QCURVE",
"216 190 OFFCURVE",
"254 190 OFFCURVE",
"271 213 QCURVE"
);
}
);
width = 474;
}
);
unicode = 004F;
},
{
glyphname = P;
layers = (
{
layerId = "A2B16AE3-7741-4CE5-AF1B-C234A467F8D6";
paths = (
{
nodes = (
"90 25 OFFCURVE",
"63 46 OFFCURVE",
"43 78 OFFCURVE",
"32 113 OFFCURVE",
"30 128 QCURVE",
"25 432 LINE",
"25 487 OFFCURVE",
"24 535 OFFCURVE",
"24 539 QCURVE SMOOTH",
"24 578 OFFCURVE",
"42 640 OFFCURVE",
"93 678 OFFCURVE",
"146 682 QCURVE SMOOTH",
"168 683 OFFCURVE",
"197 684 OFFCURVE",
"206 684 QCURVE SMOOTH",
"215 684 OFFCURVE",
"242 683 OFFCURVE",
"280 677 OFFCURVE",
"303 673 QCURVE SMOOTH",
"333 667 OFFCURVE",
"383 632 OFFCURVE",
"419 581 OFFCURVE",
"439 516 OFFCURVE",
"439 479 QCURVE SMOOTH",
"439 365 OFFCURVE",
"315 263 OFFCURVE",
"212 263 QCURVE SMOOTH",
"206 263 OFFCURVE",
"200 263 QCURVE",
"199 147 LINE",
"199 124 OFFCURVE",
"191 87 OFFCURVE",
"181 65 QCURVE",
"181 64 LINE",
"169 47 OFFCURVE",
"130 25 OFFCURVE",
"109 25 QCURVE SMOOTH"
);
},
{
nodes = (
"203 416 LINE",
"244 416 OFFCURVE",
"277 453 OFFCURVE",
"277 473 QCURVE SMOOTH",
"277 476 OFFCURVE",
"275 501 OFFCURVE",
"239 534 OFFCURVE",
"212 534 QCURVE SMOOTH",
"208 534 OFFCURVE",
"203 534 QCURVE"
);
}
);
width = 456;
}
);
unicode = 0050;
},
{
glyphname = Q;
layers = (
{
layerId = "A2B16AE3-7741-4CE5-AF1B-C234A467F8D6";
paths = (
{
nodes = (
"460 349 OFFCURVE",
"460 339 QCURVE SMOOTH",
"460 279 OFFCURVE",
"449 193 OFFCURVE",
"431 139 OFFCURVE",
"414 115 OFFCURVE",
"411 111 QCURVE",
"425 85 OFFCURVE",
"433 52 OFFCURVE",
"433 43 QCURVE SMOOTH",
"433 33 OFFCURVE",
"430 25 QCURVE",
"422 9 OFFCURVE",
"399 -16 OFFCURVE",
"374 -26 OFFCURVE",
"364 -26 QCURVE SMOOTH",
"359 -26 OFFCURVE",
"339 -23 OFFCURVE",
"324 -9 QCURVE SMOOTH",
"315 -1 OFFCURVE",
"297 19 OFFCURVE",
"287 33 QCURVE",
"243 13 OFFCURVE",
"207 13 QCURVE SMOOTH",
"198 13 OFFCURVE",
"146 20 OFFCURVE",
"80 76 OFFCURVE",
"36 168 OFFCURVE",
"13 278 OFFCURVE",
"12 341 OFFCURVE",
"12 344 QCURVE SMOOTH",
"12 401 OFFCURVE",
"32 510 OFFCURVE",
"75 606 OFFCURVE",
"107 637 QCURVE SMOOTH",
"135 664 OFFCURVE",
"202 683 OFFCURVE",
"230 683 QCURVE SMOOTH",
"244 683 OFFCURVE",
"302 675 OFFCURVE",
"381 628 OFFCURVE",
"407 587 QCURVE",
"436 533 OFFCURVE",
"459 413 OFFCURVE",
"460 360 QCURVE"
);
},
{
nodes = (
"212 517 OFFCURVE",
"178 473 OFFCURVE",
"160 405 OFFCURVE",
"158 355 OFFCURVE",
"158 345 QCURVE SMOOTH",
"158 315 OFFCURVE",
"167 250 OFFCURVE",
"191 195 OFFCURVE",
"210 187 QCURVE",
"202 213 OFFCURVE",
"202 264 OFFCURVE",
"216 273 QCURVE SMOOTH",
"229 282 OFFCURVE",
"243 292 OFFCURVE",
"251 293 OFFCURVE",
"251 293 QCURVE",
"258 293 OFFCURVE",
"277 283 OFFCURVE",
"295 271 QCURVE",
"296 296 OFFCURVE",
"300 348 OFFCURVE",
"300 363 QCURVE SMOOTH",
"300 384 OFFCURVE",
"294 443 OFFCURVE",
"267 504 OFFCURVE",
"237 517 QCURVE"
);
}
);
width = 475;
}
);
unicode = 0051;
},
{
glyphname = R;
layers = (
{
layerId = "A2B16AE3-7741-4CE5-AF1B-C234A467F8D6";
paths = (
{
nodes = (
"35 37 OFFCURVE",
"18 118 OFFCURVE",
"13 212 OFFCURVE",
"13 255 QCURVE SMOOTH",
"13 270 OFFCURVE",
"14 345 OFFCURVE",
"14 397 QCURVE SMOOTH",
"14 474 OFFCURVE",
"11 538 OFFCURVE",
"11 545 QCURVE SMOOTH",
"11 590 OFFCURVE",
"38 656 OFFCURVE",
"116 686 OFFCURVE",
"190 686 QCURVE SMOOTH",
"199 686 OFFCURVE",
"209 686 QCURVE",
"263 685 OFFCURVE",
"351 647 OFFCURVE",
"410 586 OFFCURVE",
"437 514 OFFCURVE",
"437 479 QCURVE SMOOTH",
"437 472 OFFCURVE",
"433 422 OFFCURVE",
"387 338 OFFCURVE",
"342 302 QCURVE",
"347 289 OFFCURVE",
"369 250 OFFCURVE",
"395 204 OFFCURVE",
"421 154 OFFCURVE",
"440 110 OFFCURVE",
"444 87 OFFCURVE",
"444 82 QCURVE SMOOTH",
"444 71 OFFCURVE",
"439 64 QCURVE SMOOTH",
"405 18 OFFCURVE",
"373 15 OFFCURVE",
"370 15 QCURVE SMOOTH",
"343 15 OFFCURVE",
"288 69 OFFCURVE",
"228 178 OFFCURVE",
"194 247 QCURVE",
"192 247 OFFCURVE",
"190 213 OFFCURVE",
"188 193 QCURVE SMOOTH",
"186 169 OFFCURVE",
"185 140 QCURVE",
"185 96 OFFCURVE",
"161 37 OFFCURVE",
"125 8 OFFCURVE",
"102 8 QCURVE",
"101 8 OFFCURVE",
"77 9 OFFCURVE",
"54 25 QCURVE SMOOTH"
);
},
{
nodes = (
"181 425 LINE",
"181 411 OFFCURVE",
"213 411 OFFCURVE",
"249 430 OFFCURVE",
"276 462 OFFCURVE",
"276 479 QCURVE SMOOTH",
"276 482 OFFCURVE",
"276 484 QCURVE",
"273 506 OFFCURVE",
"251 529 OFFCURVE",
"221 538 OFFCURVE",
"205 538 QCURVE",
"204 538 OFFCURVE",
"204 538 QCURVE",
"203 538 LINE",
"202 538 OFFCURVE",
"201 538 QCURVE",
"200 538 LINE",
"200 538 OFFCURVE",
"199 538 QCURVE",
"198 538 LINE",
"198 538 OFFCURVE",
"197 538 QCURVE",
"196 538 LINE",
"196 538 OFFCURVE",
"196 538 QCURVE",
"193 538 LINE",
"192 538 OFFCURVE",
"192 538 QCURVE",
"191 538 LINE",
"191 538 OFFCURVE",
"190 538 QCURVE",
"177 538 LINE"
);
}
);
width = 453;
}
);
unicode = 0052;
},
{
glyphname = S;
layers = (
{
layerId = "A2B16AE3-7741-4CE5-AF1B-C234A467F8D6";
paths = (
{
nodes = (
"255 668 OFFCURVE",
"327 658 OFFCURVE",
"393 631 OFFCURVE",
"440 584 OFFCURVE",
"440 547 QCURVE SMOOTH",
"440 507 OFFCURVE",
"408 475 OFFCURVE",
"380 474 OFFCURVE",
"377 474 QCURVE SMOOTH",
"355 474 OFFCURVE",
"299 488 OFFCURVE",
"246 501 OFFCURVE",
"207 501 OFFCURVE",
"202 485 QCURVE SMOOTH",
"199 473 OFFCURVE",
"199 464 QCURVE SMOOTH",
"199 452 OFFCURVE",
"215 430 OFFCURVE",
"258 414 OFFCURVE",
"316 400 OFFCURVE",
"372 373 OFFCURVE",
"420 326 OFFCURVE",
"431 284 QCURVE SMOOTH",
"441 246 OFFCURVE",
"441 213 QCURVE SMOOTH",
"441 192 OFFCURVE",
"427 124 OFFCURVE",
"373 56 OFFCURVE",
"297 21 OFFCURVE",
"259 21 QCURVE SMOOTH",
"238 21 OFFCURVE",
"182 27 OFFCURVE",
"123 42 OFFCURVE",
"67 64 OFFCURVE",
"26 97 OFFCURVE",
"11 131 OFFCURVE",
"11 145 QCURVE SMOOTH",
"11 156 OFFCURVE",
"14 168 QCURVE SMOOTH",
"22 199 OFFCURVE",
"46 229 OFFCURVE",
"69 235 OFFCURVE",
"77 235 QCURVE SMOOTH",
"85 235 OFFCURVE",
"112 229 OFFCURVE",
"150 217 OFFCURVE",
"190 204 OFFCURVE",
"210 204 QCURVE SMOOTH",
"219 204 OFFCURVE",
"237 211 OFFCURVE",
"249 224 OFFCURVE",
"250 234 OFFCURVE",
"250 235 QCURVE",
"250 244 OFFCURVE",
"243 254 QCURVE SMOOTH",
"238 261 OFFCURVE",
"192 274 OFFCURVE",
"131 297 OFFCURVE",
"68 333 OFFCURVE",
"26 396 OFFCURVE",
"20 451 OFFCURVE",
"20 460 QCURVE SMOOTH",
"20 502 OFFCURVE",
"39 559 QCURVE SMOOTH",
"52 601 OFFCURVE",
"105 645 OFFCURVE",
"163 665 OFFCURVE",
"216 668 OFFCURVE",
"231 668 QCURVE SMOOTH"
);
}
);
width = 459;
}
);
unicode = 0053;
},
{
glyphname = T;
layers = (
{
layerId = "A2B16AE3-7741-4CE5-AF1B-C234A467F8D6";
paths = (
{
nodes = (
"422 612 OFFCURVE",
"422 609 QCURVE SMOOTH",
"422 572 OFFCURVE",
"400 529 OFFCURVE",
"362 507 OFFCURVE",
"315 501 OFFCURVE",
"293 499 QCURVE",
"297 242 LINE",
"297 206 OFFCURVE",
"292 136 OFFCURVE",
"292 102 QCURVE SMOOTH",
"292 51 OFFCURVE",
"248 9 OFFCURVE",
"202 9 QCURVE SMOOTH",
"163 9 OFFCURVE",
"126 59 OFFCURVE",
"126 96 QCURVE SMOOTH",
"126 145 OFFCURVE",
"127 224 OFFCURVE",
"127 299 OFFCURVE",
"128 378 OFFCURVE",
"128 427 QCURVE",
"131 496 LINE",
"114 497 OFFCURVE",
"71 505 OFFCURVE",
"34 524 OFFCURVE",
"9 556 OFFCURVE",
"9 583 QCURVE SMOOTH",
"9 592 OFFCURVE",
"15 627 OFFCURVE",
"41 661 OFFCURVE",
"91 686 OFFCURVE",
"133 686 QCURVE SMOOTH",
"137 686 OFFCURVE",
"140 686 QCURVE",
"153 685 OFFCURVE",
"168 685 QCURVE SMOOTH",
"175 685 OFFCURVE",
"208 686 OFFCURVE",
"263 686 OFFCURVE",
"318 684 OFFCURVE",
"367 674 OFFCURVE",
"406 654 OFFCURVE",
"417 637 QCURVE",
"417 636 LINE",
"422 624 OFFCURVE",
"422 615 QCURVE SMOOTH"
);
}
);
width = 431;
}
);
unicode = 0054;
},
{
glyphname = U;
layers = (
{
layerId = "A2B16AE3-7741-4CE5-AF1B-C234A467F8D6";
paths = (
{
nodes = (
"473 253 LINE SMOOTH",
"473 188 OFFCURVE",
"433 93 OFFCURVE",
"360 34 OFFCURVE",
"281 17 OFFCURVE",
"250 17 QCURVE SMOOTH",
"224 17 OFFCURVE",
"197 21 QCURVE SMOOTH",
"147 27 OFFCURVE",
"84 61 OFFCURVE",
"48 116 OFFCURVE",
"32 193 OFFCURVE",
"29 242 QCURVE",
"29 334 OFFCURVE",
"20 517 OFFCURVE",
"18 609 QCURVE",
"18 634 OFFCURVE",
"54 664 OFFCURVE",
"92 673 OFFCURVE",
"106 673 QCURVE SMOOTH",
"117 673 OFFCURVE",
"155 666 OFFCURVE",
"171 651 QCURVE SMOOTH",
"185 639 OFFCURVE",
"197 585 OFFCURVE",
"200 525 OFFCURVE",
"200 498 QCURVE SMOOTH",
"200 485 OFFCURVE",
"199 428 OFFCURVE",
"199 345 OFFCURVE",
"204 268 OFFCURVE",
"212 240 QCURVE",
"232 213 OFFCURVE",
"251 212 OFFCURVE",
"252 212 QCURVE",
"270 212 OFFCURVE",
"299 253 OFFCURVE",
"310 316 OFFCURVE",
"310 344 QCURVE SMOOTH",
"310 365 OFFCURVE",
"308 387 QCURVE",
"307 416 OFFCURVE",
"305 468 OFFCURVE",
"303 519 OFFCURVE",
"299 570 OFFCURVE",
"296 599 QCURVE",
"296 603 OFFCURVE",
"296 606 QCURVE SMOOTH",
"296 644 OFFCURVE",
"340 679 OFFCURVE",
"382 682 QCURVE",
"424 680 OFFCURVE",
"466 645 OFFCURVE",
"467 607 QCURVE SMOOTH",
"469 562 OFFCURVE",
"472 478 OFFCURVE",
"473 392 OFFCURVE",
"473 348 QCURVE SMOOTH",
"473 345 OFFCURVE",
"473 343 QCURVE",
"473 328 LINE SMOOTH",
"473 324 OFFCURVE",
"473 320 QCURVE SMOOTH",
"473 317 LINE",
"473 315 OFFCURVE",
"473 314 QCURVE",
"473 311 LINE",
"473 310 OFFCURVE",
"473 308 QCURVE"
);
}
);
width = 490;
}
);
unicode = 0055;
},
{
glyphname = V;
layers = (
{
layerId = "A2B16AE3-7741-4CE5-AF1B-C234A467F8D6";
paths = (
{
nodes = (
"8 629 OFFCURVE",
"24 652 OFFCURVE",
"46 670 OFFCURVE",
"72 681 OFFCURVE",
"83 682 QCURVE",
"84 682 OFFCURVE",
"85 682 QCURVE",
"103 682 OFFCURVE",
"136 650 OFFCURVE",
"165 593 OFFCURVE",
"189 520 OFFCURVE",
"209 446 OFFCURVE",
"224 376 OFFCURVE",
"229 351 QCURVE",
"235 375 OFFCURVE",
"248 443 OFFCURVE",
"263 517 OFFCURVE",
"281 590 OFFCURVE",
"303 648 OFFCURVE",
"331 684 OFFCURVE",
"349 684 QCURVE SMOOTH",
"361 684 OFFCURVE",
"390 680 OFFCURVE",
"416 668 OFFCURVE",
"436 643 OFFCURVE",
"440 622 QCURVE SMOOTH",
"443 606 OFFCURVE",
"443 584 QCURVE SMOOTH",
"443 573 OFFCURVE",
"440 522 OFFCURVE",
"426 431 OFFCURVE",
"405 332 OFFCURVE",
"381 239 OFFCURVE",
"358 160 OFFCURVE",
"349 135 QCURVE SMOOTH",
"334 93 OFFCURVE",
"283 32 OFFCURVE",
"235 19 QCURVE",
"230 17 OFFCURVE",
"210 16 OFFCURVE",
"205 16 QCURVE SMOOTH",
"194 16 OFFCURVE",
"159 25 OFFCURVE",
"151 34 QCURVE SMOOTH",
"126 64 OFFCURVE",
"85 162 OFFCURVE",
"53 277 OFFCURVE",
"30 400 OFFCURVE",
"15 509 OFFCURVE",
"8 595 OFFCURVE",
"8 617 QCURVE SMOOTH"
);
}
);
width = 450;
}
);
unicode = 0056;
},
{
glyphname = W;
layers = (
{
layerId = "A2B16AE3-7741-4CE5-AF1B-C234A467F8D6";
paths = (
{
nodes = (
"92 681 OFFCURVE",
"124 681 OFFCURVE",
"150 666 OFFCURVE",
"170 630 OFFCURVE",
"176 598 QCURVE",
"183 569 OFFCURVE",
"193 484 OFFCURVE",
"201 394 OFFCURVE",
"208 314 OFFCURVE",
"211 292 QCURVE",
"218 315 OFFCURVE",
"229 348 OFFCURVE",
"243 377 OFFCURVE",
"259 409 OFFCURVE",
"271 430 QCURVE",
"294 464 OFFCURVE",
"319 465 OFFCURVE",
"320 465 QCURVE",
"343 465 OFFCURVE",
"389 424 OFFCURVE",
"431 351 OFFCURVE",
"447 311 QCURVE",
"450 344 OFFCURVE",
"450 397 OFFCURVE",
"451 452 OFFCURVE",
"456 516 OFFCURVE",
"464 560 QCURVE",
"469 604 OFFCURVE",
"497 660 OFFCURVE",
"533 688 OFFCURVE",
"573 688 OFFCURVE",
"608 665 OFFCURVE",
"632 621 OFFCURVE",
"634 590 QCURVE",
"630 518 OFFCURVE",
"623 396 OFFCURVE",
"614 293 OFFCURVE",
"603 208 OFFCURVE",
"594 173 QCURVE",
"587 138 OFFCURVE",
"570 86 OFFCURVE",
"544 49 OFFCURVE",
"505 24 OFFCURVE",
"477 15 QCURVE",
"475 15 OFFCURVE",
"473 15 QCURVE",
"438 15 OFFCURVE",
"389 49 OFFCURVE",
"357 104 OFFCURVE",
"338 171 OFFCURVE",
"330 202 QCURVE",
"317 172 OFFCURVE",
"286 92 OFFCURVE",
"241 29 OFFCURVE",
"198 9 OFFCURVE",
"183 9 QCURVE SMOOTH",
"162 9 OFFCURVE",
"137 21 QCURVE SMOOTH",
"123 27 OFFCURVE",
"92 89 OFFCURVE",
"64 181 OFFCURVE",
"41 296 OFFCURVE",
"25 414 OFFCURVE",
"22 492 OFFCURVE",
"22 512 QCURVE SMOOTH",
"22 544 OFFCURVE",
"28 617 OFFCURVE",
"51 674 OFFCURVE",
"73 678 QCURVE SMOOTH"
);
}
);
width = 650;
}
);
unicode = 0057;
},
{
glyphname = X;
layers = (
{
layerId = "A2B16AE3-7741-4CE5-AF1B-C234A467F8D6";
paths = (
{
nodes = (
"446 32 OFFCURVE",
"407 14 OFFCURVE",
"391 14 QCURVE SMOOTH",
"385 14 OFFCURVE",
"356 20 OFFCURVE",
"315 52 OFFCURVE",
"280 98 OFFCURVE",
"252 152 OFFCURVE",
"243 177 QCURVE",
"228 148 OFFCURVE",
"208 101 OFFCURVE",
"186 63 OFFCURVE",
"156 31 OFFCURVE",
"129 16 QCURVE",
"121 14 OFFCURVE",
"111 14 QCURVE SMOOTH",
"105 14 OFFCURVE",
"78 17 OFFCURVE",
"43 31 OFFCURVE",
"21 51 OFFCURVE",
"21 64 QCURVE",
"21 66 OFFCURVE",
"21 68 QCURVE",
"21 73 OFFCURVE",
"21 78 QCURVE SMOOTH",
"21 107 OFFCURVE",
"43 175 OFFCURVE",
"78 250 OFFCURVE",
"118 325 OFFCURVE",
"133 362 QCURVE",
"115 393 OFFCURVE",
"87 443 OFFCURVE",
"62 490 OFFCURVE",
"36 540 OFFCURVE",
"21 573 QCURVE SMOOTH",
"15 588 OFFCURVE",
"15 603 QCURVE SMOOTH",
"15 616 OFFCURVE",
"31 655 OFFCURVE",
"72 687 OFFCURVE",
"101 689 OFFCURVE",
"103 689 QCURVE",
"127 689 OFFCURVE",
"146 672 QCURVE",
"168 649 OFFCURVE",
"193 622 OFFCURVE",
"212 596 OFFCURVE",
"231 561 OFFCURVE",
"246 530 QCURVE",
"249 547 OFFCURVE",
"270 593 OFFCURVE",
"302 640 OFFCURVE",
"343 679 OFFCURVE",
"382 696 OFFCURVE",
"398 696 QCURVE SMOOTH",
"405 696 OFFCURVE",
"435 691 OFFCURVE",
"457 668 QCURVE",
"468 659 OFFCURVE",
"474 630 OFFCURVE",
"474 617 QCURVE SMOOTH",
"474 612 OFFCURVE",
"472 588 OFFCURVE",
"462 554 OFFCURVE",
"455 544 QCURVE",
"434 504 OFFCURVE",
"411 456 OFFCURVE",
"393 420 OFFCURVE",
"374 385 OFFCURVE",
"358 357 QCURVE",
"365 338 OFFCURVE",
"393 291 OFFCURVE",
"424 238 OFFCURVE",
"456 182 OFFCURVE",
"475 129 OFFCURVE",
"477 101 OFFCURVE",
"477 98 QCURVE SMOOTH",
"477 78 OFFCURVE",
"468 62 QCURVE"
);
}
);
width = 496;
}
);
unicode = 0058;
},
{
glyphname = Y;
layers = (
{
layerId = "A2B16AE3-7741-4CE5-AF1B-C234A467F8D6";
paths = (
{
nodes = (
"307 26 OFFCURVE",
"267 15 OFFCURVE",
"249 15 QCURVE SMOOTH",
"243 15 OFFCURVE",
"212 18 OFFCURVE",
"173 42 OFFCURVE",
"167 64 QCURVE",
"159 100 OFFCURVE",
"152 172 OFFCURVE",
"151 243 OFFCURVE",
"151 313 OFFCURVE",
"149 348 QCURVE",
"131 376 OFFCURVE",
"84 436 OFFCURVE",
"44 499 OFFCURVE",
"15 565 OFFCURVE",
"15 598 QCURVE",
"14 607 OFFCURVE",
"14 614 QCURVE SMOOTH",
"14 637 OFFCURVE",
"39 670 OFFCURVE",
"74 681 OFFCURVE",
"88 681 QCURVE SMOOTH",
"96 681 OFFCURVE",
"128 675 OFFCURVE",
"141 663 QCURVE",
"161 648 OFFCURVE",
"187 617 OFFCURVE",
"208 586 OFFCURVE",
"229 551 OFFCURVE",
"243 532 QCURVE",
"252 551 OFFCURVE",
"265 580 OFFCURVE",
"280 606 OFFCURVE",
"300 634 OFFCURVE",
"315 651 QCURVE",
"330 674 OFFCURVE",
"367 683 OFFCURVE",
"378 683 QCURVE SMOOTH",
"392 683 OFFCURVE",
"429 671 OFFCURVE",
"459 633 OFFCURVE",
"459 609 QCURVE SMOOTH",
"459 605 OFFCURVE",
"459 600 QCURVE",
"457 573 OFFCURVE",
"428 503 OFFCURVE",
"390 433 OFFCURVE",
"351 371 OFFCURVE",
"338 352 QCURVE",
"337 334 OFFCURVE",
"337 315 QCURVE SMOOTH",
"337 292 OFFCURVE",
"341 221 OFFCURVE",
"342 170 OFFCURVE",
"342 162 QCURVE SMOOTH",
"342 129 OFFCURVE",
"335 62 OFFCURVE",
"321 40 QCURVE"
);
}
);
width = 472;
}
);
unicode = 0059;
},
{
glyphname = Z;
layers = (
{
layerId = "A2B16AE3-7741-4CE5-AF1B-C234A467F8D6";
paths = (
{
nodes = (
"86 680 OFFCURVE",
"173 689 OFFCURVE",
"216 689 QCURVE SMOOTH",
"220 689 OFFCURVE",
"272 688 OFFCURVE",
"352 681 OFFCURVE",
"373 678 QCURVE",
"395 673 OFFCURVE",
"430 637 OFFCURVE",
"432 617 QCURVE",
"430 591 OFFCURVE",
"422 545 OFFCURVE",
"406 495 OFFCURVE",
"379 437 OFFCURVE",
"338 359 OFFCURVE",
"280 257 OFFCURVE",
"241 188 QCURVE",
"254 187 OFFCURVE",
"265 187 QCURVE SMOOTH",
"270 187 OFFCURVE",
"289 188 OFFCURVE",
"313 190 OFFCURVE",
"332 191 OFFCURVE",
"337 191 QCURVE SMOOTH",
"348 191 OFFCURVE",
"361 190 QCURVE",
"382 187 OFFCURVE",
"416 162 OFFCURVE",
"438 128 OFFCURVE",
"441 105 OFFCURVE",
"441 102 QCURVE SMOOTH",
"441 88 OFFCURVE",
"434 77 QCURVE",
"426 57 OFFCURVE",
"395 24 OFFCURVE",
"372 19 QCURVE",
"323 14 OFFCURVE",
"275 14 QCURVE SMOOTH",
"258 14 OFFCURVE",
"205 16 OFFCURVE",
"169 16 QCURVE SMOOTH",
"140 16 OFFCURVE",
"111 15 QCURVE",
"96 16 OFFCURVE",
"64 22 OFFCURVE",
"37 34 OFFCURVE",
"18 55 OFFCURVE",
"15 70 QCURVE",
"15 109 OFFCURVE",
"40 190 OFFCURVE",
"58 225 QCURVE",
"98 310 OFFCURVE",
"185 457 OFFCURVE",
"220 514 QCURVE",
"205 516 OFFCURVE",
"191 516 QCURVE SMOOTH",
"180 516 OFFCURVE",
"145 512 OFFCURVE",
"121 511 OFFCURVE",
"119 511 QCURVE",
"99 511 OFFCURVE",
"60 520 OFFCURVE",
"39 537 QCURVE SMOOTH",
"27 547 OFFCURVE",
"21 576 OFFCURVE",
"21 588 QCURVE SMOOTH",
"21 596 OFFCURVE",
"25 624 OFFCURVE",
"41 659 OFFCURVE",
"53 667 QCURVE"
);
}
);
width = 453;
}
);
unicode = 005A;
},
{
glyphname = bracketleft;
layers = (
{
layerId = "A2B16AE3-7741-4CE5-AF1B-C234A467F8D6";
paths = (
{
nodes = (
"281 -185 OFFCURVE",
"183 -186 OFFCURVE",
"178 -186 QCURVE SMOOTH",
"94 -186 OFFCURVE",
"65 -151 OFFCURVE",
"60 -133 QCURVE SMOOTH",
"58 -125 LINE",
"50 -102 OFFCURVE",
"50 334 QCURVE",
"51 781 OFFCURVE",
"57 801 QCURVE",
"57 801 OFFCURVE",
"57 802 QCURVE",
"57 802 OFFCURVE",
"57 802 QCURVE",
"57 805 LINE",
"57 805 OFFCURVE",
"57 805 QCURVE",
"57 806 LINE",
"58 811 OFFCURVE",
"60 817 QCURVE SMOOTH",
"63 831 OFFCURVE",
"79 858 OFFCURVE",
"104 875 OFFCURVE",
"185 875 QCURVE SMOOTH",
"190 875 OFFCURVE",
"284 874 OFFCURVE",
"304 868 QCURVE",
"320 866 OFFCURVE",
"340 848 OFFCURVE",
"349 822 OFFCURVE",
"349 809 QCURVE",
"349 807 OFFCURVE",
"348 788 OFFCURVE",
"337 759 OFFCURVE",
"317 738 OFFCURVE",
"304 736 QCURVE",
"281 730 OFFCURVE",
"192 729 QCURVE",
"195 617 OFFCURVE",
"196 327 QCURVE",
"196 75 OFFCURVE",
"191 -40 QCURVE",
"194 -40 LINE",
"284 -41 OFFCURVE",
"304 -47 QCURVE",
"320 -49 OFFCURVE",
"340 -67 OFFCURVE",
"349 -93 OFFCURVE",
"349 -106 QCURVE",
"349 -108 OFFCURVE",
"348 -127 OFFCURVE",
"337 -156 OFFCURVE",
"317 -177 OFFCURVE",
"304 -179 QCURVE"
);
}
);
width = 377;
}
);
unicode = 005B;
},
{
glyphname = backslash;
layers = (
{
layerId = "A2B16AE3-7741-4CE5-AF1B-C234A467F8D6";
paths = (
{
nodes = (
"90 681 OFFCURVE",
"90 681 QCURVE",
"90 681 OFFCURVE",
"90 681 QCURVE",
"90 681 OFFCURVE",
"90 681 QCURVE",
"90 681 OFFCURVE",
"91 681 QCURVE",
"91 681 OFFCURVE",
"91 681 QCURVE",
"91 681 OFFCURVE",
"91 681 QCURVE",
"91 681 OFFCURVE",
"91 681 QCURVE",
"91 681 OFFCURVE",
"91 681 QCURVE",
"106 676 OFFCURVE",
"127 655 OFFCURVE",
"144 630 OFFCURVE",
"159 602 OFFCURVE",
"166 588 QCURVE",
"166 588 OFFCURVE",
"166 588 QCURVE",
"167 588 OFFCURVE",
"281 349 OFFCURVE",
"318 281 QCURVE",
"323 269 OFFCURVE",
"345 217 OFFCURVE",
"366 167 OFFCURVE",
"386 115 OFFCURVE",
"392 80 OFFCURVE",
"392 69 QCURVE SMOOTH",
"392 60 OFFCURVE",
"387 34 OFFCURVE",
"371 26 QCURVE SMOOTH",
"360 20 OFFCURVE",
"348 20 QCURVE SMOOTH",
"335 20 OFFCURVE",
"296 44 OFFCURVE",
"253 100 OFFCURVE",
"219 166 OFFCURVE",
"164 280 OFFCURVE",
"110 394 OFFCURVE",
"68 487 OFFCURVE",
"35 564 OFFCURVE",
"15 624 OFFCURVE",
"15 641 QCURVE",
"16 654 OFFCURVE",
"34 669 OFFCURVE",
"55 679 OFFCURVE",
"76 681 OFFCURVE",
"82 681 QCURVE SMOOTH",
"86 681 OFFCURVE",
"90 681 QCURVE"
);
}
);
width = 408;
}
);
unicode = 005C;
},
{
glyphname = bracketright;
layers = (
{
layerId = "A2B16AE3-7741-4CE5-AF1B-C234A467F8D6";
paths = (
{
nodes = (
"83 -177 OFFCURVE",
"63 -156 OFFCURVE",
"52 -127 OFFCURVE",
"51 -108 OFFCURVE",
"51 -106 QCURVE",
"51 -93 OFFCURVE",
"60 -67 OFFCURVE",
"80 -49 OFFCURVE",
"96 -47 QCURVE",
"116 -41 OFFCURVE",
"206 -40 QCURVE",
"209 -40 LINE",
"204 75 OFFCURVE",
"204 327 QCURVE",
"205 617 OFFCURVE",
"208 729 QCURVE",
"119 730 OFFCURVE",
"96 736 QCURVE",
"83 738 OFFCURVE",
"63 759 OFFCURVE",
"52 788 OFFCURVE",
"51 807 OFFCURVE",
"51 809 QCURVE",
"51 822 OFFCURVE",
"60 848 OFFCURVE",
"80 866 OFFCURVE",
"96 868 QCURVE",
"116 874 OFFCURVE",
"210 875 OFFCURVE",
"215 875 QCURVE SMOOTH",
"296 875 OFFCURVE",
"321 858 OFFCURVE",
"337 831 OFFCURVE",
"340 817 QCURVE SMOOTH",
"342 811 OFFCURVE",
"343 806 QCURVE",
"343 805 OFFCURVE",
"343 805 QCURVE",
"343 805 OFFCURVE",
"343 805 QCURVE",
"343 804 LINE",
"343 804 OFFCURVE",
"343 804 QCURVE",
"343 804 OFFCURVE",
"343 804 QCURVE",
"343 801 LINE",
"349 781 OFFCURVE",
"350 334 QCURVE",
"350 -102 OFFCURVE",
"342 -125 QCURVE",
"340 -133 LINE SMOOTH",
"335 -151 OFFCURVE",
"306 -186 OFFCURVE",
"222 -186 QCURVE SMOOTH",
"217 -186 OFFCURVE",
"119 -185 OFFCURVE",
"96 -179 QCURVE"
);
}
);
width = 377;
}
);
unicode = 005D;
},
{
glyphname = asciicircum;
layers = (
{
layerId = "A2B16AE3-7741-4CE5-AF1B-C234A467F8D6";
paths = (
{
nodes = (
"463 305 OFFCURVE",
"449 294 OFFCURVE",
"429 285 OFFCURVE",
"406 280 OFFCURVE",
"396 279 QCURVE",
"380 279 OFFCURVE",
"350 295 OFFCURVE",
"324 323 OFFCURVE",
"303 359 OFFCURVE",
"285 395 OFFCURVE",
"244 500 OFFCURVE",
"239 512 QCURVE",
"234 500 OFFCURVE",
"223 467 OFFCURVE",
"209 431 OFFCURVE",
"193 395 OFFCURVE",
"154 302 OFFCURVE",
"129 285 OFFCURVE",
"113 285 QCURVE SMOOTH",
"103 285 OFFCURVE",
"77 286 OFFCURVE",
"54 292 OFFCURVE",
"36 305 OFFCURVE",
"33 315 QCURVE SMOOTH",
"30 322 OFFCURVE",
"30 333 QCURVE SMOOTH",
"30 339 OFFCURVE",
"33 364 OFFCURVE",
"65 473 OFFCURVE",
"84 521 OFFCURVE",
"105 567 OFFCURVE",
"125 605 OFFCURVE",
"133 617 QCURVE SMOOTH",
"147 638 OFFCURVE",
"192 668 OFFCURVE",
"234 674 QCURVE SMOOTH",
"238 675 OFFCURVE",
"247 675 QCURVE",
"247 675 OFFCURVE",
"248 675 QCURVE",
"249 675 OFFCURVE",
"249 675 QCURVE",
"250 675 LINE",
"250 675 OFFCURVE",
"250 675 QCURVE",
"251 675 LINE",
"252 675 OFFCURVE",
"252 675 QCURVE",
"261 675 LINE",
"261 675 OFFCURVE",
"261 675 QCURVE",
"270 675 OFFCURVE",
"301 671 OFFCURVE",
"308 667 QCURVE SMOOTH",
"330 652 OFFCURVE",
"367 604 OFFCURVE",
"395 548 OFFCURVE",
"415 488 OFFCURVE",
"457 364 OFFCURVE",
"463 322 OFFCURVE",
"463 311 QCURVE SMOOTH"
);
}
);
width = 489;
}
);
unicode = 005E;
},
{
glyphname = underscore;
layers = (
{
layerId = "A2B16AE3-7741-4CE5-AF1B-C234A467F8D6";
paths = (
{
nodes = (
"407 14 OFFCURVE",
"224 13 OFFCURVE",
"215 13 QCURVE SMOOTH",
"58 13 OFFCURVE",
"29 48 OFFCURVE",
"22 75 OFFCURVE",
"22 84 QCURVE SMOOTH",
"22 93 OFFCURVE",
"24 101 QCURVE SMOOTH",
"27 115 OFFCURVE",
"43 142 OFFCURVE",
"68 159 OFFCURVE",
"221 159 QCURVE SMOOTH",
"230 159 OFFCURVE",
"410 158 OFFCURVE",
"430 152 QCURVE",
"446 150 OFFCURVE",
"466 132 OFFCURVE",
"475 106 OFFCURVE",
"475 93 QCURVE",
"475 91 OFFCURVE",
"474 72 OFFCURVE",
"463 43 OFFCURVE",
"443 22 OFFCURVE",
"430 20 QCURVE"
);
}
);
width = 495;
}
);
unicode = 005F;
},
{
glyphname = grave;
layers = (
{
layerId = "A2B16AE3-7741-4CE5-AF1B-C234A467F8D6";
paths = (
{
nodes = (
"180 903 OFFCURVE",
"270 835 OFFCURVE",
"270 813 QCURVE",
"270 813 OFFCURVE",
"268 790 OFFCURVE",
"249 756 OFFCURVE",
"234 748 QCURVE",
"222 740 OFFCURVE",
"197 733 OFFCURVE",
"187 733 QCURVE SMOOTH",
"182 733 OFFCURVE",
"160 736 OFFCURVE",
"59 809 OFFCURVE",
"38 839 OFFCURVE",
"37 853 OFFCURVE",
"37 855 QCURVE",
"37 866 OFFCURVE",
"50 891 OFFCURVE",
"75 913 OFFCURVE",
"101 926 OFFCURVE",
"117 927 OFFCURVE",
"119 927 QCURVE",
"132 927 OFFCURVE",
"142 921 QCURVE"
);
}
);
width = 297;
}
);
unicode = 0060;
},
{
glyphname = a;
layers = (
{
layerId = "A2B16AE3-7741-4CE5-AF1B-C234A467F8D6";
paths = (
{
nodes = (
"75 26 OFFCURVE",
"42 52 OFFCURVE",
"25 94 OFFCURVE",
"19 146 OFFCURVE",
"18 180 OFFCURVE",
"18 186 QCURVE SMOOTH",
"18 206 OFFCURVE",
"21 249 OFFCURVE",
"21 267 QCURVE SMOOTH",
"21 308 OFFCURVE",
"27 402 OFFCURVE",
"45 493 OFFCURVE",
"75 577 OFFCURVE",
"123 641 OFFCURVE",
"191 679 OFFCURVE",
"237 679 QCURVE SMOOTH",
"275 679 OFFCURVE",
"341 623 OFFCURVE",
"392 530 OFFCURVE",
"429 412 OFFCURVE",
"449 289 OFFCURVE",
"451 221 OFFCURVE",
"451 212 QCURVE SMOOTH",
"451 164 OFFCURVE",
"436 78 OFFCURVE",
"399 22 OFFCURVE",
"369 22 QCURVE SMOOTH",
"358 22 OFFCURVE",
"343 21 OFFCURVE",
"338 21 QCURVE SMOOTH",
"332 21 OFFCURVE",
"315 23 OFFCURVE",
"297 33 OFFCURVE",
"290 45 QCURVE",
"289 46 OFFCURVE",
"289 47 QCURVE",
"281 59 OFFCURVE",
"270 115 OFFCURVE",
"264 178 OFFCURVE",
"261 235 OFFCURVE",
"261 249 QCURVE",
"259 262 OFFCURVE",
"240 270 OFFCURVE",
"231 270 QCURVE SMOOTH",
"227 270 OFFCURVE",
"211 267 OFFCURVE",
"192 253 OFFCURVE",
"192 242 QCURVE",
"192 241 OFFCURVE",
"192 240 QCURVE",
"193 213 OFFCURVE",
"195 168 OFFCURVE",
"195 160 QCURVE SMOOTH",
"195 132 OFFCURVE",
"183 73 OFFCURVE",
"143 26 OFFCURVE",
"101 26 QCURVE SMOOTH"
);
},
{
nodes = (
"213 510 OFFCURVE",
"201 483 OFFCURVE",
"194 447 OFFCURVE",
"190 413 OFFCURVE",
"190 406 QCURVE SMOOTH",
"190 386 LINE",
"207 388 OFFCURVE",
"240 391 OFFCURVE",
"256 391 QCURVE",
"257 399 OFFCURVE",
"258 414 OFFCURVE",
"258 422 QCURVE SMOOTH",
"258 430 OFFCURVE",
"255 459 OFFCURVE",
"246 488 OFFCURVE",
"232 510 OFFCURVE",
"221 510 QCURVE SMOOTH"
);
}
);
width = 464;
}
);
unicode = 0061;
},
{
glyphname = b;
layers = (
{
layerId = "A2B16AE3-7741-4CE5-AF1B-C234A467F8D6";
paths = (
{
nodes = (
"174 7 OFFCURVE",
"93 15 OFFCURVE",
"46 43 OFFCURVE",
"28 97 OFFCURVE",
"26 161 OFFCURVE",
"26 185 QCURVE SMOOTH",
"26 216 OFFCURVE",
"28 298 OFFCURVE",
"28 354 QCURVE SMOOTH",
"28 383 OFFCURVE",
"28 414 QCURVE SMOOTH",
"28 444 OFFCURVE",
"24 501 OFFCURVE",
"24 518 QCURVE SMOOTH",
"24 539 OFFCURVE",
"29 595 OFFCURVE",
"55 654 OFFCURVE",
"87 664 QCURVE",
"110 670 OFFCURVE",
"170 676 OFFCURVE",
"196 676 QCURVE SMOOTH",
"207 676 OFFCURVE",
"257 674 OFFCURVE",
"335 658 OFFCURVE",
"398 622 OFFCURVE",
"438 563 OFFCURVE",
"440 520 QCURVE",
"440 516 OFFCURVE",
"440 511 QCURVE SMOOTH",
"440 480 OFFCURVE",
"414 414 OFFCURVE",
"387 385 QCURVE",
"413 378 OFFCURVE",
"444 344 OFFCURVE",
"461 299 OFFCURVE",
"466 246 OFFCURVE",
"466 219 QCURVE SMOOTH",
"466 167 OFFCURVE",
"430 88 OFFCURVE",
"368 34 OFFCURVE",
"285 7 OFFCURVE",
"238 7 QCURVE SMOOTH"
);
},
{
nodes = (
"241 436 OFFCURVE",
"277 467 OFFCURVE",
"277 494 QCURVE SMOOTH",
"277 518 OFFCURVE",
"251 535 OFFCURVE",
"237 535 QCURVE",
"235 535 OFFCURVE",
"216 533 OFFCURVE",
"193 514 OFFCURVE",
"193 501 QCURVE SMOOTH",
"193 498 OFFCURVE",
"194 495 QCURVE",
"194 469 OFFCURVE",
"210 436 OFFCURVE",
"221 436 QCURVE SMOOTH"
);
},
{
nodes = (
"291 255 OFFCURVE",
"262 291 OFFCURVE",
"241 294 OFFCURVE",
"239 294 QCURVE",
"224 294 OFFCURVE",
"197 266 OFFCURVE",
"197 232 QCURVE SMOOTH",
"197 203 OFFCURVE",
"214 165 OFFCURVE",
"239 165 QCURVE SMOOTH",
"248 165 OFFCURVE",
"266 176 OFFCURVE",
"281 193 OFFCURVE",
"291 214 OFFCURVE",
"291 224 QCURVE SMOOTH"
);
}
);
width = 481;
}
);
unicode = 0062;
},
{
glyphname = c;
layers = (
{
layerId = "A2B16AE3-7741-4CE5-AF1B-C234A467F8D6";
paths = (
{
nodes = (
"196 11 OFFCURVE",
"101 78 OFFCURVE",
"45 183 OFFCURVE",
"23 310 OFFCURVE",
"23 370 QCURVE SMOOTH",
"23 374 OFFCURVE",
"23 378 QCURVE SMOOTH",
"23 430 OFFCURVE",
"49 536 OFFCURVE",
"108 622 OFFCURVE",
"200 675 OFFCURVE",
"265 675 QCURVE SMOOTH",
"282 675 OFFCURVE",
"341 660 OFFCURVE",
"397 631 OFFCURVE",
"438 591 OFFCURVE",
"438 567 QCURVE SMOOTH",
"438 529 OFFCURVE",
"418 489 OFFCURVE",
"389 476 OFFCURVE",
"375 476 QCURVE SMOOTH",
"371 476 OFFCURVE",
"348 478 OFFCURVE",
"311 489 OFFCURVE",
"280 500 OFFCURVE",
"272 500 QCURVE SMOOTH",
"248 500 OFFCURVE",
"221 471 OFFCURVE",
"209 430 OFFCURVE",
"207 384 OFFCURVE",
"207 368 QCURVE SMOOTH",
"207 329 OFFCURVE",
"209 259 OFFCURVE",
"224 223 QCURVE",
"224 219 LINE",
"238 195 OFFCURVE",
"262 195 QCURVE",
"263 195 OFFCURVE",
"288 196 OFFCURVE",
"340 217 OFFCURVE",
"384 243 OFFCURVE",
"394 243 QCURVE SMOOTH",
"406 243 OFFCURVE",
"430 229 OFFCURVE",
"449 207 OFFCURVE",
"461 181 OFFCURVE",
"461 168 QCURVE SMOOTH",
"461 133 OFFCURVE",
"424 76 OFFCURVE",
"367 34 OFFCURVE",
"299 11 OFFCURVE",
"268 11 QCURVE SMOOTH"
);
}
);
width = 470;
}
);
unicode = 0063;
},
{
glyphname = d;
layers = (
{
layerId = "A2B16AE3-7741-4CE5-AF1B-C234A467F8D6";
paths = (
{
nodes = (
"434 221 OFFCURVE",
"375 107 OFFCURVE",
"294 44 OFFCURVE",
"196 19 OFFCURVE",
"148 15 QCURVE",
"126 15 OFFCURVE",
"99 14 OFFCURVE",
"95 14 QCURVE SMOOTH",
"78 14 OFFCURVE",
"47 21 OFFCURVE",
"30 42 OFFCURVE",
"30 60 QCURVE SMOOTH",
"30 66 OFFCURVE",
"31 72 QCURVE",
"27 90 OFFCURVE",
"24 163 OFFCURVE",
"24 281 OFFCURVE",
"25 450 OFFCURVE",
"25 563 QCURVE SMOOTH",
"25 589 OFFCURVE",
"27 634 OFFCURVE",
"39 665 OFFCURVE",
"63 681 OFFCURVE",
"82 681 QCURVE SMOOTH",
"85 681 OFFCURVE",
"87 681 QCURVE",
"112 683 OFFCURVE",
"136 683 QCURVE SMOOTH",
"208 683 OFFCURVE",
"334 639 OFFCURVE",
"420 538 OFFCURVE",
"446 420 OFFCURVE",
"446 368 QCURVE SMOOTH",
"446 341 OFFCURVE",
"443 313 QCURVE SMOOTH"
);
},
{
nodes = (
"284 345 OFFCURVE",
"284 348 QCURVE SMOOTH",
"284 398 OFFCURVE",
"254 469 OFFCURVE",
"215 509 OFFCURVE",
"192 515 OFFCURVE",
"188 515 QCURVE SMOOTH",
"181 515 OFFCURVE",
"180 509 QCURVE",
"180 189 LINE",
"193 189 OFFCURVE",
"229 209 OFFCURVE",
"261 248 OFFCURVE",
"283 305 OFFCURVE",
"284 342 QCURVE"
);
}
);
width = 469;
}
);
unicode = 0064;
},
{
glyphname = e;
layers = (
{
layerId = "A2B16AE3-7741-4CE5-AF1B-C234A467F8D6";
paths = (
{
nodes = (
"271 15 LINE SMOOTH",
"234 15 OFFCURVE",
"180 12 OFFCURVE",
"170 12 QCURVE SMOOTH",
"139 12 OFFCURVE",
"74 25 OFFCURVE",
"25 72 OFFCURVE",
"25 123 QCURVE SMOOTH",
"25 139 OFFCURVE",
"24 181 OFFCURVE",
"24 225 OFFCURVE",
"23 267 OFFCURVE",
"23 284 QCURVE SMOOTH",
"23 306 OFFCURVE",
"20 375 OFFCURVE",
"19 435 OFFCURVE",
"19 455 QCURVE SMOOTH",
"19 475 OFFCURVE",
"20 536 OFFCURVE",
"29 605 OFFCURVE",
"46 651 OFFCURVE",
"62 656 QCURVE SMOOTH",
"85 663 OFFCURVE",
"150 670 OFFCURVE",
"203 672 OFFCURVE",
"220 672 QCURVE SMOOTH",
"237 672 OFFCURVE",
"287 670 OFFCURVE",
"313 669 QCURVE",
"334 667 OFFCURVE",
"384 661 OFFCURVE",
"427 643 OFFCURVE",
"457 609 OFFCURVE",
"457 579 QCURVE SMOOTH",
"457 559 OFFCURVE",
"439 531 OFFCURVE",
"411 514 OFFCURVE",
"377 507 OFFCURVE",
"362 507 QCURVE SMOOTH",
"327 507 OFFCURVE",
"263 505 OFFCURVE",
"243 505 QCURVE SMOOTH",
"218 505 OFFCURVE",
"192 506 QCURVE",
"185 408 LINE",
"197 407 OFFCURVE",
"211 407 QCURVE SMOOTH",
"219 407 OFFCURVE",
"250 408 OFFCURVE",
"301 408 OFFCURVE",
"350 402 OFFCURVE",
"389 387 OFFCURVE",
"413 359 OFFCURVE",
"413 336 QCURVE SMOOTH",
"413 298 OFFCURVE",
"371 271 OFFCURVE",
"322 266 OFFCURVE",
"302 266 QCURVE SMOOTH",
"286 266 OFFCURVE",
"255 268 OFFCURVE",
"242 268 QCURVE SMOOTH",
"217 268 OFFCURVE",
"193 265 QCURVE",
"195 173 LINE",
"217 173 OFFCURVE",
"258 174 OFFCURVE",
"271 174 QCURVE SMOOTH",
"285 174 OFFCURVE",
"327 173 OFFCURVE",
"380 169 OFFCURVE",
"403 163 QCURVE",
"404 163 LINE",
"423 151 OFFCURVE",
"446 118 OFFCURVE",
"446 95 QCURVE SMOOTH",
"446 82 OFFCURVE",
"441 65 QCURVE",
"439 64 LINE",
"424 43 OFFCURVE",
"385 23 OFFCURVE",
"341 15 OFFCURVE",
"318 15 QCURVE",
"316 15 OFFCURVE",
"314 15 QCURVE",
"312 15 LINE",
"309 15 OFFCURVE",
"307 15 QCURVE",
"305 15 LINE",
"304 15 OFFCURVE",
"304 15 QCURVE",
"302 15 LINE",
"301 15 OFFCURVE",
"299 15 QCURVE",
"297 15 LINE",
"296 15 OFFCURVE",
"295 15 QCURVE",
"278 15 LINE",
"278 15 OFFCURVE",
"278 15 QCURVE",
"276 15 LINE",
"276 15 OFFCURVE",
"275 15 QCURVE"
);
}
);
width = 472;
}
);
unicode = 0065;
},
{
glyphname = f;
layers = (
{
layerId = "A2B16AE3-7741-4CE5-AF1B-C234A467F8D6";
paths = (
{
nodes = (
"89 16 OFFCURVE",
"52 41 OFFCURVE",
"38 83 OFFCURVE",
"38 108 QCURVE",
"38 110 OFFCURVE",
"39 140 OFFCURVE",
"39 170 QCURVE SMOOTH",
"39 230 OFFCURVE",
"32 351 OFFCURVE",
"32 406 QCURVE SMOOTH",
"32 429 OFFCURVE",
"29 485 OFFCURVE",
"28 524 OFFCURVE",
"28 533 QCURVE SMOOTH",
"28 552 OFFCURVE",
"31 599 OFFCURVE",
"45 642 OFFCURVE",
"72 669 OFFCURVE",
"95 670 QCURVE",
"107 674 OFFCURVE",
"166 679 OFFCURVE",
"232 680 OFFCURVE",
"262 680 QCURVE",
"264 680 LINE",
"265 680 OFFCURVE",
"266 680 QCURVE",
"267 680 LINE",
"269 680 OFFCURVE",
"270 680 QCURVE",
"277 680 LINE",
"278 680 OFFCURVE",
"279 680 QCURVE",
"302 680 LINE",
"302 680 OFFCURVE",
"303 680 QCURVE",
"305 680 LINE",
"305 680 OFFCURVE",
"306 680 QCURVE",
"339 680 OFFCURVE",
"393 674 OFFCURVE",
"427 653 OFFCURVE",
"434 624 OFFCURVE",
"434 614 QCURVE SMOOTH",
"434 597 OFFCURVE",
"428 573 QCURVE",
"420 546 OFFCURVE",
"367 523 OFFCURVE",
"312 518 OFFCURVE",
"290 518 QCURVE SMOOTH",
"280 518 OFFCURVE",
"237 520 OFFCURVE",
"220 520 QCURVE",
"220 429 LINE",
"245 432 OFFCURVE",
"287 435 OFFCURVE",
"295 435 QCURVE SMOOTH",
"319 435 OFFCURVE",
"370 424 OFFCURVE",
"411 389 OFFCURVE",
"411 353 QCURVE SMOOTH",
"411 330 OFFCURVE",
"388 304 OFFCURVE",
"352 291 OFFCURVE",
"306 288 OFFCURVE",
"260 287 OFFCURVE",
"219 286 OFFCURVE",
"205 282 QCURVE",
"203 235 OFFCURVE",
"203 196 QCURVE SMOOTH",
"203 177 OFFCURVE",
"204 148 OFFCURVE",
"204 136 QCURVE SMOOTH",
"204 102 OFFCURVE",
"196 46 OFFCURVE",
"164 16 OFFCURVE",
"127 16 QCURVE SMOOTH"
);
}
);
width = 450;
}
);
unicode = 0066;
},
{
glyphname = g;
layers = (
{
layerId = "A2B16AE3-7741-4CE5-AF1B-C234A467F8D6";
paths = (
{
nodes = (
"465 192 OFFCURVE",
"405 78 OFFCURVE",
"309 14 OFFCURVE",
"244 10 OFFCURVE",
"239 10 QCURVE SMOOTH",
"185 10 OFFCURVE",
"131 43 QCURVE",
"87 77 OFFCURVE",
"35 187 OFFCURVE",
"21 288 OFFCURVE",
"21 327 QCURVE SMOOTH",
"21 354 OFFCURVE",
"30 451 OFFCURVE",
"72 570 OFFCURVE",
"143 661 OFFCURVE",
"220 692 OFFCURVE",
"254 692 QCURVE SMOOTH",
"276 692 OFFCURVE",
"360 675 OFFCURVE",
"431 620 QCURVE",
"447 605 OFFCURVE",
"458 569 OFFCURVE",
"458 555 QCURVE SMOOTH",
"458 547 OFFCURVE",
"452 518 OFFCURVE",
"421 488 OFFCURVE",
"394 488 QCURVE SMOOTH",
"368 488 OFFCURVE",
"341 494 OFFCURVE",
"320 503 OFFCURVE",
"295 514 OFFCURVE",
"272 519 QCURVE SMOOTH",
"263 521 OFFCURVE",
"255 521 QCURVE SMOOTH",
"237 521 OFFCURVE",
"207 495 OFFCURVE",
"187 445 OFFCURVE",
"180 388 OFFCURVE",
"180 369 QCURVE",
"180 368 OFFCURVE",
"180 367 QCURVE",
"180 363 LINE",
"180 361 OFFCURVE",
"180 359 QCURVE",
"180 354 LINE",
"180 353 OFFCURVE",
"180 352 QCURVE",
"180 347 LINE",
"180 346 OFFCURVE",
"180 345 QCURVE",
"180 343 LINE",
"180 342 OFFCURVE",
"180 341 QCURVE",
"180 309 LINE SMOOTH",
"180 274 OFFCURVE",
"192 211 OFFCURVE",
"222 168 OFFCURVE",
"252 168 QCURVE SMOOTH",
"282 168 OFFCURVE",
"303 202 OFFCURVE",
"303 237 QCURVE SMOOTH",
"303 253 OFFCURVE",
"277 262 OFFCURVE",
"245 273 OFFCURVE",
"219 299 OFFCURVE",
"219 331 QCURVE SMOOTH",
"219 353 OFFCURVE",
"255 384 OFFCURVE",
"301 395 OFFCURVE",
"322 395 QCURVE SMOOTH",
"332 395 OFFCURVE",
"374 391 OFFCURVE",
"429 361 OFFCURVE",
"465 305 OFFCURVE",
"465 263 QCURVE SMOOTH"
);
}
);
width = 479;
}
);
unicode = 0067;
},
{
glyphname = h;
layers = (
{
layerId = "A2B16AE3-7741-4CE5-AF1B-C234A467F8D6";
paths = (
{
nodes = (
"211 269 OFFCURVE",
"211 218 OFFCURVE",
"210 159 OFFCURVE",
"206 99 OFFCURVE",
"193 51 OFFCURVE",
"167 20 OFFCURVE",
"145 20 QCURVE SMOOTH",
"131 20 OFFCURVE",
"102 23 OFFCURVE",
"75 33 OFFCURVE",
"53 49 OFFCURVE",
"47 63 QCURVE SMOOTH",
"42 74 OFFCURVE",
"35 148 OFFCURVE",
"31 248 OFFCURVE",
"30 362 OFFCURVE",
"29 465 OFFCURVE",
"29 505 QCURVE SMOOTH",
"29 512 LINE",
"29 514 OFFCURVE",
"29 516 QCURVE",
"29 525 LINE",
"29 526 OFFCURVE",
"29 527 QCURVE",
"29 529 LINE",
"29 530 OFFCURVE",
"29 531 QCURVE",
"29 533 LINE",
"29 534 OFFCURVE",
"29 535 QCURVE",
"29 537 LINE",
"29 538 OFFCURVE",
"29 539 QCURVE",
"29 557 LINE",
"29 557 OFFCURVE",
"29 558 QCURVE",
"29 562 LINE SMOOTH",
"29 585 OFFCURVE",
"41 631 OFFCURVE",
"57 649 QCURVE",
"57 650 LINE",
"71 664 OFFCURVE",
"107 676 OFFCURVE",
"126 676 QCURVE SMOOTH",
"169 676 OFFCURVE",
"206 618 OFFCURVE",
"215 547 OFFCURVE",
"215 515 QCURVE SMOOTH",
"215 502 OFFCURVE",
"213 458 OFFCURVE",
"213 432 QCURVE SMOOTH",
"213 419 OFFCURVE",
"213 407 QCURVE",
"235 409 OFFCURVE",
"264 410 OFFCURVE",
"286 412 QCURVE",
"287 454 OFFCURVE",
"288 522 OFFCURVE",
"288 551 QCURVE SMOOTH",
"288 555 LINE",
"288 556 OFFCURVE",
"288 556 QCURVE",
"288 559 LINE",
"288 560 OFFCURVE",
"288 560 QCURVE",
"288 561 LINE",
"288 561 OFFCURVE",
"288 562 QCURVE",
"288 563 LINE",
"288 563 OFFCURVE",
"288 564 QCURVE",
"288 565 LINE",
"288 565 OFFCURVE",
"288 566 QCURVE",
"288 583 LINE SMOOTH",
"288 601 OFFCURVE",
"293 637 OFFCURVE",
"307 667 OFFCURVE",
"321 675 QCURVE",
"356 685 OFFCURVE",
"381 685 QCURVE SMOOTH",
"388 685 OFFCURVE",
"422 681 OFFCURVE",
"455 651 OFFCURVE",
"467 600 OFFCURVE",
"467 567 QCURVE SMOOTH",
"467 452 OFFCURVE",
"464 216 OFFCURVE",
"464 101 QCURVE SMOOTH",
"464 85 OFFCURVE",
"451 55 OFFCURVE",
"430 31 OFFCURVE",
"402 17 OFFCURVE",
"387 17 QCURVE SMOOTH",
"363 17 OFFCURVE",
"328 35 OFFCURVE",
"304 64 OFFCURVE",
"291 103 OFFCURVE",
"290 124 QCURVE SMOOTH",
"288 215 LINE",
"287 228 OFFCURVE",
"287 240 QCURVE SMOOTH",
"287 246 OFFCURVE",
"288 256 OFFCURVE",
"288 259 QCURVE SMOOTH",
"288 274 OFFCURVE",
"286 288 QCURVE",
"280 288 LINE",
"279 288 OFFCURVE",
"279 288 QCURVE",
"275 288 LINE",
"274 288 OFFCURVE",
"274 288 QCURVE",
"273 288 LINE",
"272 288 OFFCURVE",
"272 288 QCURVE",
"271 288 LINE",
"270 288 OFFCURVE",
"269 288 QCURVE",
"268 288 LINE",
"268 288 OFFCURVE",
"267 288 QCURVE",
"249 288 LINE",
"248 288 OFFCURVE",
"248 288 QCURVE",
"246 288 LINE",
"246 288 OFFCURVE",
"245 288 QCURVE",
"244 288 OFFCURVE",
"244 288 QCURVE",
"243 288 LINE",
"243 288 OFFCURVE",
"243 288 QCURVE",
"242 288 LINE",
"242 288 OFFCURVE",
"242 288 QCURVE",
"234 288 LINE SMOOTH",
"227 288 OFFCURVE",
"219 286 OFFCURVE",
"214 285 QCURVE"
);
}
);
width = 500;
}
);
unicode = 0068;
},
{
glyphname = i;
layers = (
{
layerId = "A2B16AE3-7741-4CE5-AF1B-C234A467F8D6";
paths = (
{
nodes = (
"158 23 OFFCURVE",
"129 15 OFFCURVE",
"112 14 OFFCURVE",
"110 14 QCURVE",
"97 14 OFFCURVE",
"72 21 OFFCURVE",
"63 32 QCURVE SMOOTH",
"53 45 OFFCURVE",
"41 107 OFFCURVE",
"34 189 OFFCURVE",
"32 282 OFFCURVE",
"32 369 OFFCURVE",
"33 442 OFFCURVE",
"33 462 QCURVE",
"33 463 LINE",
"33 465 OFFCURVE",
"33 467 QCURVE",
"33 469 LINE",
"33 469 OFFCURVE",
"33 470 QCURVE",
"33 476 LINE",
"33 477 OFFCURVE",
"33 477 QCURVE",
"33 479 LINE",
"33 480 OFFCURVE",
"33 481 QCURVE",
"33 482 LINE",
"33 483 OFFCURVE",
"33 484 QCURVE",
"33 486 LINE",
"33 487 OFFCURVE",
"33 488 QCURVE",
"33 521 LINE SMOOTH",
"33 557 OFFCURVE",
"47 624 OFFCURVE",
"84 673 OFFCURVE",
"120 673 QCURVE SMOOTH",
"140 673 OFFCURVE",
"168 645 OFFCURVE",
"185 601 OFFCURVE",
"194 547 OFFCURVE",
"199 494 OFFCURVE",
"199 471 QCURVE SMOOTH",
"199 467 LINE",
"199 465 OFFCURVE",
"199 463 QCURVE",
"199 459 LINE",
"199 458 OFFCURVE",
"199 458 QCURVE",
"199 452 LINE",
"199 451 OFFCURVE",
"199 451 QCURVE",
"199 435 LINE SMOOTH",
"199 361 OFFCURVE",
"197 216 OFFCURVE",
"197 142 QCURVE",
"197 141 OFFCURVE",
"197 140 QCURVE",
"197 139 LINE",
"197 138 OFFCURVE",
"197 136 QCURVE",
"197 134 LINE",
"197 133 OFFCURVE",
"197 133 QCURVE",
"197 130 LINE",
"197 130 OFFCURVE",
"197 129 QCURVE",
"197 112 LINE SMOOTH",
"197 97 OFFCURVE",
"193 67 OFFCURVE",
"182 40 OFFCURVE",
"170 29 QCURVE",
"169 29 OFFCURVE",
"169 28 OFFCURVE",
"168 28 QCURVE"
);
}
);
width = 228;
}
);
unicode = 0069;
},
{
glyphname = j;
layers = (
{
layerId = "A2B16AE3-7741-4CE5-AF1B-C234A467F8D6";
paths = (
{
nodes = (
"347 71 OFFCURVE",
"291 27 OFFCURVE",
"234 11 OFFCURVE",
"208 11 QCURVE SMOOTH",
"200 11 OFFCURVE",
"156 15 OFFCURVE",
"91 43 OFFCURVE",
"38 93 OFFCURVE",
"23 129 QCURVE SMOOTH",
"20 136 OFFCURVE",
"20 144 QCURVE SMOOTH",
"20 147 OFFCURVE",
"22 162 OFFCURVE",
"35 184 OFFCURVE",
"55 202 OFFCURVE",
"68 206 QCURVE SMOOTH",
"77 209 OFFCURVE",
"87 209 QCURVE SMOOTH",
"95 209 OFFCURVE",
"122 202 OFFCURVE",
"155 186 OFFCURVE",
"183 174 OFFCURVE",
"194 174 QCURVE",
"195 174 OFFCURVE",
"209 175 OFFCURVE",
"225 200 OFFCURVE",
"229 232 QCURVE",
"225 504 LINE",
"206 505 OFFCURVE",
"189 505 QCURVE SMOOTH",
"176 505 OFFCURVE",
"153 504 OFFCURVE",
"142 504 QCURVE SMOOTH",
"127 504 OFFCURVE",
"91 507 OFFCURVE",
"49 522 OFFCURVE",
"28 542 QCURVE",
"15 564 OFFCURVE",
"15 586 QCURVE SMOOTH",
"15 589 OFFCURVE",
"17 616 OFFCURVE",
"49 653 OFFCURVE",
"105 676 OFFCURVE",
"142 676 QCURVE",
"177 677 OFFCURVE",
"211 678 OFFCURVE",
"217 678 QCURVE SMOOTH",
"237 678 OFFCURVE",
"281 672 OFFCURVE",
"326 652 OFFCURVE",
"352 631 QCURVE",
"366 614 OFFCURVE",
"379 587 OFFCURVE",
"385 557 OFFCURVE",
"388 518 OFFCURVE",
"391 488 QCURVE",
"392 452 OFFCURVE",
"394 375 OFFCURVE",
"394 348 QCURVE SMOOTH",
"394 322 OFFCURVE",
"392 241 OFFCURVE",
"379 140 OFFCURVE",
"364 106 QCURVE"
);
}
);
width = 422;
}
);
unicode = 006A;
},
{
glyphname = k;
layers = (
{
layerId = "A2B16AE3-7741-4CE5-AF1B-C234A467F8D6";
paths = (
{
nodes = (
"37 37 OFFCURVE",
"24 117 OFFCURVE",
"18 233 OFFCURVE",
"18 368 OFFCURVE",
"20 489 OFFCURVE",
"23 581 OFFCURVE",
"24 596 QCURVE SMOOTH",
"26 623 OFFCURVE",
"47 655 OFFCURVE",
"77 670 OFFCURVE",
"110 674 OFFCURVE",
"124 674 QCURVE SMOOTH",
"157 674 OFFCURVE",
"185 641 OFFCURVE",
"193 592 OFFCURVE",
"193 565 QCURVE SMOOTH",
"193 560 OFFCURVE",
"193 545 OFFCURVE",
"193 537 QCURVE SMOOTH",
"193 512 OFFCURVE",
"195 487 QCURVE",
"211 507 OFFCURVE",
"245 569 OFFCURVE",
"284 628 OFFCURVE",
"330 671 OFFCURVE",
"358 671 QCURVE SMOOTH",
"369 671 OFFCURVE",
"395 659 OFFCURVE",
"418 639 OFFCURVE",
"434 615 OFFCURVE",
"435 603 QCURVE",
"435 599 OFFCURVE",
"435 595 QCURVE SMOOTH",
"435 560 OFFCURVE",
"404 486 OFFCURVE",
"359 415 OFFCURVE",
"314 358 OFFCURVE",
"305 342 QCURVE",
"319 322 OFFCURVE",
"361 264 OFFCURVE",
"401 198 OFFCURVE",
"431 130 OFFCURVE",
"433 101 QCURVE",
"433 99 OFFCURVE",
"433 97 QCURVE",
"433 81 OFFCURVE",
"416 52 OFFCURVE",
"388 29 OFFCURVE",
"357 16 OFFCURVE",
"345 16 QCURVE SMOOTH",
"315 16 OFFCURVE",
"276 53 OFFCURVE",
"246 106 OFFCURVE",
"219 166 OFFCURVE",
"201 189 QCURVE",
"199 179 OFFCURVE",
"199 176 QCURVE",
"199 175 OFFCURVE",
"200 173 OFFCURVE",
"201 161 QCURVE SMOOTH",
"202 152 OFFCURVE",
"202 143 QCURVE SMOOTH",
"202 104 OFFCURVE",
"177 46 OFFCURVE",
"132 16 OFFCURVE",
"104 16 QCURVE",
"103 16 OFFCURVE",
"74 17 OFFCURVE",
"48 31 QCURVE SMOOTH"
);
}
);
width = 441;
}
);
unicode = 006B;
},
{
glyphname = l;
layers = (
{
layerId = "A2B16AE3-7741-4CE5-AF1B-C234A467F8D6";
paths = (
{
nodes = (
"386 54 OFFCURVE",
"339 21 OFFCURVE",
"281 12 OFFCURVE",
"254 12 QCURVE SMOOTH",
"246 12 OFFCURVE",
"202 14 OFFCURVE",
"178 14 QCURVE SMOOTH",
"138 14 OFFCURVE",
"83 28 OFFCURVE",
"48 61 OFFCURVE",
"32 117 OFFCURVE",
"32 158 QCURVE SMOOTH",
"32 243 OFFCURVE",
"29 413 OFFCURVE",
"29 497 QCURVE SMOOTH",
"29 523 OFFCURVE",
"28 560 OFFCURVE",
"28 565 QCURVE SMOOTH",
"28 592 OFFCURVE",
"39 645 OFFCURVE",
"76 684 OFFCURVE",
"115 684 QCURVE SMOOTH",
"203 684 OFFCURVE",
"203 598 QCURVE SMOOTH",
"203 551 OFFCURVE",
"202 467 OFFCURVE",
"200 385 OFFCURVE",
"199 300 OFFCURVE",
"199 253 QCURVE SMOOTH",
"199 236 OFFCURVE",
"202 212 OFFCURVE",
"213 197 OFFCURVE",
"234 190 OFFCURVE",
"251 190 QCURVE SMOOTH",
"266 190 OFFCURVE",
"281 191 OFFCURVE",
"293 192 OFFCURVE",
"309 193 OFFCURVE",
"324 193 QCURVE SMOOTH",
"342 193 OFFCURVE",
"366 175 OFFCURVE",
"380 145 OFFCURVE",
"386 108 OFFCURVE",
"386 89 QCURVE SMOOTH"
);
}
);
width = 394;
}
);
unicode = 006C;
},
{
glyphname = m;
layers = (
{
layerId = "A2B16AE3-7741-4CE5-AF1B-C234A467F8D6";
paths = (
{
nodes = (
"121 19 OFFCURVE",
"100 17 OFFCURVE",
"95 17 QCURVE SMOOTH",
"85 17 OFFCURVE",
"59 23 OFFCURVE",
"36 40 OFFCURVE",
"33 54 QCURVE SMOOTH",
"22 109 OFFCURVE",
"18 212 OFFCURVE",
"18 255 QCURVE SMOOTH",
"18 272 OFFCURVE",
"19 349 OFFCURVE",
"23 450 OFFCURVE",
"23 490 QCURVE SMOOTH",
"23 506 OFFCURVE",
"23 522 QCURVE",
"25 541 OFFCURVE",
"28 584 OFFCURVE",
"40 625 OFFCURVE",
"64 659 OFFCURVE",
"88 670 QCURVE",
"99 676 OFFCURVE",
"126 676 OFFCURVE",
"152 669 OFFCURVE",
"175 656 OFFCURVE",
"181 648 QCURVE SMOOTH",
"210 607 OFFCURVE",
"246 515 OFFCURVE",
"270 472 QCURVE",
"283 497 OFFCURVE",
"302 546 OFFCURVE",
"323 594 OFFCURVE",
"350 640 OFFCURVE",
"371 662 QCURVE",
"387 675 OFFCURVE",
"422 684 OFFCURVE",
"437 684 QCURVE SMOOTH",
"443 684 OFFCURVE",
"471 681 OFFCURVE",
"509 663 OFFCURVE",
"522 648 QCURVE SMOOTH",
"534 634 OFFCURVE",
"539 600 OFFCURVE",
"541 583 QCURVE",
"547 502 OFFCURVE",
"547 421 QCURVE SMOOTH",
"547 401 OFFCURVE",
"547 381 QCURVE SMOOTH",
"547 364 OFFCURVE",
"546 347 QCURVE",
"546 341 LINE SMOOTH",
"546 324 OFFCURVE",
"546 306 QCURVE",
"545 300 LINE",
"544 243 OFFCURVE",
"543 185 QCURVE",
"543 179 LINE SMOOTH",
"543 161 OFFCURVE",
"544 138 OFFCURVE",
"544 134 QCURVE SMOOTH",
"544 119 OFFCURVE",
"540 86 OFFCURVE",
"526 51 OFFCURVE",
"511 36 QCURVE",
"496 26 OFFCURVE",
"470 23 OFFCURVE",
"463 23 QCURVE SMOOTH",
"451 23 OFFCURVE",
"421 30 OFFCURVE",
"390 50 OFFCURVE",
"382 64 QCURVE",
"373 91 OFFCURVE",
"371 135 OFFCURVE",
"371 152 QCURVE SMOOTH",
"371 163 OFFCURVE",
"372 201 OFFCURVE",
"375 243 OFFCURVE",
"375 257 QCURVE SMOOTH",
"375 271 OFFCURVE",
"374 284 QCURVE",
"358 251 OFFCURVE",
"330 193 OFFCURVE",
"302 155 OFFCURVE",
"283 150 OFFCURVE",
"280 150 QCURVE SMOOTH",
"267 150 OFFCURVE",
"252 162 QCURVE SMOOTH",
"235 174 OFFCURVE",
"215 204 OFFCURVE",
"201 237 OFFCURVE",
"190 271 OFFCURVE",
"181 288 QCURVE",
"178 251 OFFCURVE",
"176 195 OFFCURVE",
"175 145 OFFCURVE",
"172 98 OFFCURVE",
"169 70 QCURVE",
"166 55 OFFCURVE",
"148 35 OFFCURVE",
"134 26 QCURVE"
);
}
);
width = 573;
}
);
unicode = 006D;
},
{
glyphname = n;
layers = (
{
layerId = "A2B16AE3-7741-4CE5-AF1B-C234A467F8D6";
paths = (
{
nodes = (
"127 13 OFFCURVE",
"110 13 QCURVE SMOOTH",
"107 13 OFFCURVE",
"84 15 OFFCURVE",
"50 36 OFFCURVE",
"27 70 OFFCURVE",
"25 88 QCURVE",
"25 133 OFFCURVE",
"23 241 OFFCURVE",
"21 352 OFFCURVE",
"20 428 OFFCURVE",
"20 449 QCURVE SMOOTH",
"20 479 OFFCURVE",
"22 551 OFFCURVE",
"31 616 OFFCURVE",
"39 629 QCURVE",
"52 656 OFFCURVE",
"93 680 OFFCURVE",
"140 680 OFFCURVE",
"184 657 OFFCURVE",
"200 636 QCURVE SMOOTH",
"221 608 OFFCURVE",
"246 561 OFFCURVE",
"266 516 OFFCURVE",
"287 471 OFFCURVE",
"304 444 QCURVE",
"304 456 OFFCURVE",
"304 467 QCURVE SMOOTH",
"304 494 OFFCURVE",
"300 547 OFFCURVE",
"299 578 OFFCURVE",
"299 583 QCURVE SMOOTH",
"299 601 OFFCURVE",
"304 636 OFFCURVE",
"316 655 QCURVE",
"323 671 OFFCURVE",
"360 683 OFFCURVE",
"378 683 QCURVE SMOOTH",
"383 683 OFFCURVE",
"411 681 OFFCURVE",
"450 661 OFFCURVE",
"453 645 QCURVE",
"458 626 OFFCURVE",
"462 551 OFFCURVE",
"463 490 OFFCURVE",
"463 478 QCURVE SMOOTH",
"463 440 OFFCURVE",
"460 341 OFFCURVE",
"458 226 OFFCURVE",
"456 138 OFFCURVE",
"456 108 QCURVE SMOOTH",
"456 88 OFFCURVE",
"456 70 QCURVE",
"453 43 OFFCURVE",
"413 15 OFFCURVE",
"382 13 OFFCURVE",
"377 13 QCURVE SMOOTH",
"357 13 OFFCURVE",
"314 27 OFFCURVE",
"304 42 QCURVE SMOOTH",
"280 80 OFFCURVE",
"246 152 OFFCURVE",
"220 222 OFFCURVE",
"209 256 QCURVE SMOOTH",
"203 275 OFFCURVE",
"196 295 QCURVE",
"196 297 LINE",
"191 310 OFFCURVE",
"187 324 QCURVE",
"189 279 OFFCURVE",
"189 214 OFFCURVE",
"187 158 OFFCURVE",
"181 103 OFFCURVE",
"177 69 QCURVE",
"172 56 OFFCURVE",
"161 30 OFFCURVE",
"144 22 QCURVE SMOOTH"
);
}
);
width = 487;
}
);
unicode = 006E;
},
{
glyphname = o;
layers = (
{
layerId = "A2B16AE3-7741-4CE5-AF1B-C234A467F8D6";
paths = (
{
nodes = (
"280 19 OFFCURVE",
"229 19 QCURVE SMOOTH",
"216 19 OFFCURVE",
"146 29 OFFCURVE",
"69 96 OFFCURVE",
"29 201 OFFCURVE",
"24 258 QCURVE",
"20 293 OFFCURVE",
"20 327 QCURVE SMOOTH",
"20 350 OFFCURVE",
"26 430 OFFCURVE",
"37 497 QCURVE",
"37 499 LINE",
"43 518 OFFCURVE",
"56 557 OFFCURVE",
"76 593 OFFCURVE",
"105 625 OFFCURVE",
"126 637 QCURVE SMOOTH",
"166 660 OFFCURVE",
"231 670 OFFCURVE",
"249 670 QCURVE SMOOTH",
"278 670 OFFCURVE",
"307 663 QCURVE",
"336 651 OFFCURVE",
"388 610 OFFCURVE",
"408 580 QCURVE",
"408 579 LINE",
"427 542 OFFCURVE",
"453 444 OFFCURVE",
"460 360 OFFCURVE",
"460 329 QCURVE SMOOTH",
"460 305 OFFCURVE",
"455 227 OFFCURVE",
"428 133 OFFCURVE",
"381 61 OFFCURVE",
"346 45 QCURVE"
);
},
{
nodes = (
"276 225 OFFCURVE",
"285 278 OFFCURVE",
"290 336 OFFCURVE",
"290 363 QCURVE SMOOTH",
"290 369 OFFCURVE",
"289 407 OFFCURVE",
"277 461 OFFCURVE",
"254 493 OFFCURVE",
"235 493 QCURVE",
"234 493 OFFCURVE",
"233 493 QCURVE",
"214 491 OFFCURVE",
"191 451 OFFCURVE",
"179 395 OFFCURVE",
"178 356 OFFCURVE",
"178 347 QCURVE SMOOTH",
"178 329 OFFCURVE",
"179 316 QCURVE SMOOTH",
"182 293 OFFCURVE",
"187 234 OFFCURVE",
"200 209 QCURVE",
"216 190 OFFCURVE",
"254 190 OFFCURVE",
"271 213 QCURVE"
);
}
);
width = 474;
}
);
unicode = 006F;
},
{
glyphname = p;
layers = (
{
layerId = "A2B16AE3-7741-4CE5-AF1B-C234A467F8D6";
paths = (
{
nodes = (
"90 25 OFFCURVE",
"63 46 OFFCURVE",
"43 78 OFFCURVE",
"32 113 OFFCURVE",
"30 128 QCURVE",
"25 432 LINE",
"25 487 OFFCURVE",
"24 535 OFFCURVE",
"24 539 QCURVE SMOOTH",
"24 578 OFFCURVE",
"42 640 OFFCURVE",
"93 678 OFFCURVE",
"146 682 QCURVE SMOOTH",
"168 683 OFFCURVE",
"197 684 OFFCURVE",
"206 684 QCURVE SMOOTH",
"215 684 OFFCURVE",
"242 683 OFFCURVE",
"280 677 OFFCURVE",
"303 673 QCURVE SMOOTH",
"333 667 OFFCURVE",
"383 632 OFFCURVE",
"419 581 OFFCURVE",
"439 516 OFFCURVE",
"439 479 QCURVE SMOOTH",
"439 365 OFFCURVE",
"315 263 OFFCURVE",
"212 263 QCURVE SMOOTH",
"206 263 OFFCURVE",
"200 263 QCURVE",
"199 147 LINE",
"199 124 OFFCURVE",
"191 87 OFFCURVE",
"181 65 QCURVE",
"181 64 LINE",
"169 47 OFFCURVE",
"130 25 OFFCURVE",
"109 25 QCURVE SMOOTH"
);
},
{
nodes = (
"203 416 LINE",
"244 416 OFFCURVE",
"277 453 OFFCURVE",
"277 473 QCURVE SMOOTH",
"277 476 OFFCURVE",
"275 501 OFFCURVE",
"239 534 OFFCURVE",
"212 534 QCURVE SMOOTH",
"208 534 OFFCURVE",
"203 534 QCURVE"
);
}
);
width = 456;
}
);
unicode = 0070;
},
{
glyphname = q;
layers = (
{
layerId = "A2B16AE3-7741-4CE5-AF1B-C234A467F8D6";
paths = (
{
nodes = (
"460 349 OFFCURVE",
"460 339 QCURVE SMOOTH",
"460 279 OFFCURVE",
"449 193 OFFCURVE",
"431 139 OFFCURVE",
"414 115 OFFCURVE",
"411 111 QCURVE",
"425 85 OFFCURVE",
"433 52 OFFCURVE",
"433 43 QCURVE SMOOTH",
"433 33 OFFCURVE",
"430 25 QCURVE",
"422 9 OFFCURVE",
"399 -16 OFFCURVE",
"374 -26 OFFCURVE",
"364 -26 QCURVE SMOOTH",
"359 -26 OFFCURVE",
"339 -23 OFFCURVE",
"324 -9 QCURVE SMOOTH",
"315 -1 OFFCURVE",
"297 19 OFFCURVE",
"287 33 QCURVE",
"243 13 OFFCURVE",
"207 13 QCURVE SMOOTH",
"198 13 OFFCURVE",
"146 20 OFFCURVE",
"80 76 OFFCURVE",
"36 168 OFFCURVE",
"13 278 OFFCURVE",
"12 341 OFFCURVE",
"12 344 QCURVE SMOOTH",
"12 401 OFFCURVE",
"32 510 OFFCURVE",
"75 606 OFFCURVE",
"107 637 QCURVE SMOOTH",
"135 664 OFFCURVE",
"202 683 OFFCURVE",
"230 683 QCURVE SMOOTH",
"244 683 OFFCURVE",
"302 675 OFFCURVE",
"381 628 OFFCURVE",
"407 587 QCURVE",
"436 533 OFFCURVE",
"459 413 OFFCURVE",
"460 360 QCURVE"
);
},
{
nodes = (
"212 517 OFFCURVE",
"178 473 OFFCURVE",
"160 405 OFFCURVE",
"158 355 OFFCURVE",
"158 345 QCURVE SMOOTH",
"158 315 OFFCURVE",
"167 250 OFFCURVE",
"191 195 OFFCURVE",
"210 187 QCURVE",
"202 213 OFFCURVE",
"202 264 OFFCURVE",
"216 273 QCURVE SMOOTH",
"229 282 OFFCURVE",
"243 292 OFFCURVE",
"251 293 OFFCURVE",
"251 293 QCURVE",
"258 293 OFFCURVE",
"277 283 OFFCURVE",
"295 271 QCURVE",
"296 296 OFFCURVE",
"300 348 OFFCURVE",
"300 363 QCURVE SMOOTH",
"300 384 OFFCURVE",
"294 443 OFFCURVE",
"267 504 OFFCURVE",
"237 517 QCURVE"
);
}
);
width = 475;
}
);
unicode = 0071;
},
{
glyphname = r;
layers = (
{
layerId = "A2B16AE3-7741-4CE5-AF1B-C234A467F8D6";
paths = (
{
nodes = (
"35 37 OFFCURVE",
"18 118 OFFCURVE",
"13 212 OFFCURVE",
"13 255 QCURVE SMOOTH",
"13 270 OFFCURVE",
"14 345 OFFCURVE",
"14 397 QCURVE SMOOTH",
"14 474 OFFCURVE",
"11 538 OFFCURVE",
"11 545 QCURVE SMOOTH",
"11 590 OFFCURVE",
"38 656 OFFCURVE",
"116 686 OFFCURVE",
"190 686 QCURVE SMOOTH",
"199 686 OFFCURVE",
"209 686 QCURVE",
"263 685 OFFCURVE",
"351 647 OFFCURVE",
"410 586 OFFCURVE",
"437 514 OFFCURVE",
"437 479 QCURVE SMOOTH",
"437 472 OFFCURVE",
"433 422 OFFCURVE",
"387 338 OFFCURVE",
"342 302 QCURVE",
"347 289 OFFCURVE",
"369 250 OFFCURVE",
"395 204 OFFCURVE",
"421 154 OFFCURVE",
"440 110 OFFCURVE",
"444 87 OFFCURVE",
"444 82 QCURVE SMOOTH",
"444 71 OFFCURVE",
"439 64 QCURVE SMOOTH",
"405 18 OFFCURVE",
"373 15 OFFCURVE",
"370 15 QCURVE SMOOTH",
"343 15 OFFCURVE",
"288 69 OFFCURVE",
"228 178 OFFCURVE",
"194 247 QCURVE",
"192 247 OFFCURVE",
"190 213 OFFCURVE",
"188 193 QCURVE SMOOTH",
"186 169 OFFCURVE",
"185 140 QCURVE",
"185 96 OFFCURVE",
"161 37 OFFCURVE",
"125 8 OFFCURVE",
"102 8 QCURVE",
"101 8 OFFCURVE",
"77 9 OFFCURVE",
"54 25 QCURVE SMOOTH"
);
},
{
nodes = (
"181 425 LINE",
"181 411 OFFCURVE",
"213 411 OFFCURVE",
"249 430 OFFCURVE",
"276 462 OFFCURVE",
"276 479 QCURVE SMOOTH",
"276 482 OFFCURVE",
"276 484 QCURVE",
"273 506 OFFCURVE",
"251 529 OFFCURVE",
"221 538 OFFCURVE",
"205 538 QCURVE",
"204 538 OFFCURVE",
"204 538 QCURVE",
"203 538 LINE",
"202 538 OFFCURVE",
"201 538 QCURVE",
"200 538 LINE",
"200 538 OFFCURVE",
"199 538 QCURVE",
"198 538 LINE",
"198 538 OFFCURVE",
"197 538 QCURVE",
"196 538 LINE",
"196 538 OFFCURVE",
"196 538 QCURVE",
"193 538 LINE",
"192 538 OFFCURVE",
"192 538 QCURVE",
"191 538 LINE",
"191 538 OFFCURVE",
"190 538 QCURVE",
"177 538 LINE"
);
}
);
width = 453;
}
);
unicode = 0072;
},
{
glyphname = s;
layers = (
{
layerId = "A2B16AE3-7741-4CE5-AF1B-C234A467F8D6";
paths = (
{
nodes = (
"255 668 OFFCURVE",
"327 658 OFFCURVE",
"393 631 OFFCURVE",
"440 584 OFFCURVE",
"440 547 QCURVE SMOOTH",
"440 507 OFFCURVE",
"408 475 OFFCURVE",
"380 474 OFFCURVE",
"377 474 QCURVE SMOOTH",
"355 474 OFFCURVE",
"299 488 OFFCURVE",
"246 501 OFFCURVE",
"207 501 OFFCURVE",
"202 485 QCURVE SMOOTH",
"199 473 OFFCURVE",
"199 464 QCURVE SMOOTH",
"199 452 OFFCURVE",
"215 430 OFFCURVE",
"258 414 OFFCURVE",
"316 400 OFFCURVE",
"372 373 OFFCURVE",
"420 326 OFFCURVE",
"431 284 QCURVE SMOOTH",
"441 246 OFFCURVE",
"441 213 QCURVE SMOOTH",
"441 192 OFFCURVE",
"427 124 OFFCURVE",
"373 56 OFFCURVE",
"297 21 OFFCURVE",
"259 21 QCURVE SMOOTH",
"238 21 OFFCURVE",
"182 27 OFFCURVE",
"123 42 OFFCURVE",
"67 64 OFFCURVE",
"26 97 OFFCURVE",
"11 131 OFFCURVE",
"11 145 QCURVE SMOOTH",
"11 156 OFFCURVE",
"14 168 QCURVE SMOOTH",
"22 199 OFFCURVE",
"46 229 OFFCURVE",
"69 235 OFFCURVE",
"77 235 QCURVE SMOOTH",
"85 235 OFFCURVE",
"112 229 OFFCURVE",
"150 217 OFFCURVE",
"190 204 OFFCURVE",
"210 204 QCURVE SMOOTH",
"219 204 OFFCURVE",
"237 211 OFFCURVE",
"249 224 OFFCURVE",
"250 234 OFFCURVE",
"250 235 QCURVE",
"250 244 OFFCURVE",
"243 254 QCURVE SMOOTH",
"238 261 OFFCURVE",
"192 274 OFFCURVE",
"131 297 OFFCURVE",
"68 333 OFFCURVE",
"26 396 OFFCURVE",
"20 451 OFFCURVE",
"20 460 QCURVE SMOOTH",
"20 502 OFFCURVE",
"39 559 QCURVE SMOOTH",
"52 601 OFFCURVE",
"105 645 OFFCURVE",
"163 665 OFFCURVE",
"216 668 OFFCURVE",
"231 668 QCURVE SMOOTH"
);
}
);
width = 459;
}
);
unicode = 0073;
},
{
glyphname = t;
layers = (
{
layerId = "A2B16AE3-7741-4CE5-AF1B-C234A467F8D6";
paths = (
{
nodes = (
"422 612 OFFCURVE",
"422 609 QCURVE SMOOTH",
"422 572 OFFCURVE",
"400 529 OFFCURVE",
"362 507 OFFCURVE",
"315 501 OFFCURVE",
"293 499 QCURVE",
"297 242 LINE",
"297 206 OFFCURVE",
"292 136 OFFCURVE",
"292 102 QCURVE SMOOTH",
"292 51 OFFCURVE",
"248 9 OFFCURVE",
"202 9 QCURVE SMOOTH",
"163 9 OFFCURVE",
"126 59 OFFCURVE",
"126 96 QCURVE SMOOTH",
"126 145 OFFCURVE",
"127 224 OFFCURVE",
"127 299 OFFCURVE",
"128 378 OFFCURVE",
"128 427 QCURVE",
"131 496 LINE",
"114 497 OFFCURVE",
"71 505 OFFCURVE",
"34 524 OFFCURVE",
"9 556 OFFCURVE",
"9 583 QCURVE SMOOTH",
"9 592 OFFCURVE",
"15 627 OFFCURVE",
"41 661 OFFCURVE",
"91 686 OFFCURVE",
"133 686 QCURVE SMOOTH",
"137 686 OFFCURVE",
"140 686 QCURVE",
"153 685 OFFCURVE",
"168 685 QCURVE SMOOTH",
"175 685 OFFCURVE",
"208 686 OFFCURVE",
"263 686 OFFCURVE",
"318 684 OFFCURVE",
"367 674 OFFCURVE",
"406 654 OFFCURVE",
"417 637 QCURVE",
"417 636 LINE",
"422 624 OFFCURVE",
"422 615 QCURVE SMOOTH"
);
}
);
width = 431;
}
);
unicode = 0074;
},
{
glyphname = u;
layers = (
{
layerId = "A2B16AE3-7741-4CE5-AF1B-C234A467F8D6";
paths = (
{
nodes = (
"473 253 LINE SMOOTH",
"473 188 OFFCURVE",
"433 93 OFFCURVE",
"360 34 OFFCURVE",
"281 17 OFFCURVE",
"250 17 QCURVE SMOOTH",
"224 17 OFFCURVE",
"197 21 QCURVE SMOOTH",
"147 27 OFFCURVE",
"84 61 OFFCURVE",
"48 116 OFFCURVE",
"32 193 OFFCURVE",
"29 242 QCURVE",
"29 334 OFFCURVE",
"20 517 OFFCURVE",
"18 609 QCURVE",
"18 634 OFFCURVE",
"54 664 OFFCURVE",
"92 673 OFFCURVE",
"106 673 QCURVE SMOOTH",
"117 673 OFFCURVE",
"155 666 OFFCURVE",
"171 651 QCURVE SMOOTH",
"185 639 OFFCURVE",
"197 585 OFFCURVE",
"200 525 OFFCURVE",
"200 498 QCURVE SMOOTH",
"200 485 OFFCURVE",
"199 428 OFFCURVE",
"199 345 OFFCURVE",
"204 268 OFFCURVE",
"212 240 QCURVE",
"232 213 OFFCURVE",
"251 212 OFFCURVE",
"252 212 QCURVE",
"270 212 OFFCURVE",
"299 253 OFFCURVE",
"310 316 OFFCURVE",
"310 344 QCURVE SMOOTH",
"310 365 OFFCURVE",
"308 387 QCURVE",
"307 416 OFFCURVE",
"305 468 OFFCURVE",
"303 519 OFFCURVE",
"299 570 OFFCURVE",
"296 599 QCURVE",
"296 603 OFFCURVE",
"296 606 QCURVE SMOOTH",
"296 644 OFFCURVE",
"340 679 OFFCURVE",
"382 682 QCURVE",
"424 680 OFFCURVE",
"466 645 OFFCURVE",
"467 607 QCURVE SMOOTH",
"469 562 OFFCURVE",
"472 478 OFFCURVE",
"473 392 OFFCURVE",
"473 348 QCURVE SMOOTH",
"473 345 OFFCURVE",
"473 343 QCURVE",
"473 328 LINE SMOOTH",
"473 324 OFFCURVE",
"473 320 QCURVE SMOOTH",
"473 317 LINE",
"473 315 OFFCURVE",
"473 314 QCURVE",
"473 311 LINE",
"473 310 OFFCURVE",
"473 308 QCURVE"
);
}
);
width = 490;
}
);
unicode = 0075;
},
{
glyphname = v;
layers = (
{
layerId = "A2B16AE3-7741-4CE5-AF1B-C234A467F8D6";
paths = (
{
nodes = (
"8 629 OFFCURVE",
"24 652 OFFCURVE",
"46 670 OFFCURVE",
"72 681 OFFCURVE",
"83 682 QCURVE",
"84 682 OFFCURVE",
"85 682 QCURVE",
"103 682 OFFCURVE",
"136 650 OFFCURVE",
"165 593 OFFCURVE",
"189 520 OFFCURVE",
"209 446 OFFCURVE",
"224 376 OFFCURVE",
"229 351 QCURVE",
"235 375 OFFCURVE",
"248 443 OFFCURVE",
"263 517 OFFCURVE",
"281 590 OFFCURVE",
"303 648 OFFCURVE",
"331 684 OFFCURVE",
"349 684 QCURVE SMOOTH",
"361 684 OFFCURVE",
"390 680 OFFCURVE",
"416 668 OFFCURVE",
"436 643 OFFCURVE",
"440 622 QCURVE SMOOTH",
"443 606 OFFCURVE",
"443 584 QCURVE SMOOTH",
"443 573 OFFCURVE",
"440 522 OFFCURVE",
"426 431 OFFCURVE",
"405 332 OFFCURVE",
"381 239 OFFCURVE",
"358 160 OFFCURVE",
"349 135 QCURVE SMOOTH",
"334 93 OFFCURVE",
"283 32 OFFCURVE",
"235 19 QCURVE",
"230 17 OFFCURVE",
"210 16 OFFCURVE",
"205 16 QCURVE SMOOTH",
"194 16 OFFCURVE",
"159 25 OFFCURVE",
"151 34 QCURVE SMOOTH",
"126 64 OFFCURVE",
"85 162 OFFCURVE",
"53 277 OFFCURVE",
"30 400 OFFCURVE",
"15 509 OFFCURVE",
"8 595 OFFCURVE",
"8 617 QCURVE SMOOTH"
);
}
);
width = 450;
}
);
unicode = 0076;
},
{
glyphname = w;
layers = (
{
layerId = "A2B16AE3-7741-4CE5-AF1B-C234A467F8D6";
paths = (
{
nodes = (
"92 681 OFFCURVE",
"124 681 OFFCURVE",
"150 666 OFFCURVE",
"170 630 OFFCURVE",
"176 598 QCURVE",
"183 569 OFFCURVE",
"193 484 OFFCURVE",
"201 394 OFFCURVE",
"208 314 OFFCURVE",
"211 292 QCURVE",
"218 315 OFFCURVE",
"229 348 OFFCURVE",
"243 377 OFFCURVE",
"259 409 OFFCURVE",
"271 430 QCURVE",
"294 464 OFFCURVE",
"319 465 OFFCURVE",
"320 465 QCURVE",
"343 465 OFFCURVE",
"389 424 OFFCURVE",
"431 351 OFFCURVE",
"447 311 QCURVE",
"450 344 OFFCURVE",
"450 397 OFFCURVE",
"451 452 OFFCURVE",
"456 516 OFFCURVE",
"464 560 QCURVE",
"469 604 OFFCURVE",
"497 660 OFFCURVE",
"533 688 OFFCURVE",
"573 688 OFFCURVE",
"608 665 OFFCURVE",
"632 621 OFFCURVE",
"634 590 QCURVE",
"630 518 OFFCURVE",
"623 396 OFFCURVE",
"614 293 OFFCURVE",
"603 208 OFFCURVE",
"594 173 QCURVE",
"587 138 OFFCURVE",
"570 86 OFFCURVE",
"544 49 OFFCURVE",
"505 24 OFFCURVE",
"477 15 QCURVE",
"475 15 OFFCURVE",
"473 15 QCURVE",
"438 15 OFFCURVE",
"389 49 OFFCURVE",
"357 104 OFFCURVE",
"338 171 OFFCURVE",
"330 202 QCURVE",
"317 172 OFFCURVE",
"286 92 OFFCURVE",
"241 29 OFFCURVE",
"198 9 OFFCURVE",
"183 9 QCURVE SMOOTH",
"162 9 OFFCURVE",
"137 21 QCURVE SMOOTH",
"123 27 OFFCURVE",
"92 89 OFFCURVE",
"64 181 OFFCURVE",
"41 296 OFFCURVE",
"25 414 OFFCURVE",
"22 492 OFFCURVE",
"22 512 QCURVE SMOOTH",
"22 544 OFFCURVE",
"28 617 OFFCURVE",
"51 674 OFFCURVE",
"73 678 QCURVE SMOOTH"
);
}
);
width = 650;
}
);
unicode = 0077;
},
{
glyphname = x;
layers = (
{
layerId = "A2B16AE3-7741-4CE5-AF1B-C234A467F8D6";
paths = (
{
nodes = (
"446 32 OFFCURVE",
"407 14 OFFCURVE",
"391 14 QCURVE SMOOTH",
"385 14 OFFCURVE",
"356 20 OFFCURVE",
"315 52 OFFCURVE",
"280 98 OFFCURVE",
"252 152 OFFCURVE",
"243 177 QCURVE",
"228 148 OFFCURVE",
"208 101 OFFCURVE",
"186 63 OFFCURVE",
"156 31 OFFCURVE",
"129 16 QCURVE",
"121 14 OFFCURVE",
"111 14 QCURVE SMOOTH",
"105 14 OFFCURVE",
"78 17 OFFCURVE",
"43 31 OFFCURVE",
"21 51 OFFCURVE",
"21 64 QCURVE",
"21 66 OFFCURVE",
"21 68 QCURVE",
"21 73 OFFCURVE",
"21 78 QCURVE SMOOTH",
"21 107 OFFCURVE",
"43 175 OFFCURVE",
"78 250 OFFCURVE",
"118 325 OFFCURVE",
"133 362 QCURVE",
"115 393 OFFCURVE",
"87 443 OFFCURVE",
"62 490 OFFCURVE",
"36 540 OFFCURVE",
"21 573 QCURVE SMOOTH",
"15 588 OFFCURVE",
"15 603 QCURVE SMOOTH",
"15 616 OFFCURVE",
"31 655 OFFCURVE",
"72 687 OFFCURVE",
"101 689 OFFCURVE",
"103 689 QCURVE",
"127 689 OFFCURVE",
"146 672 QCURVE",
"168 649 OFFCURVE",
"193 622 OFFCURVE",
"212 596 OFFCURVE",
"231 561 OFFCURVE",
"246 530 QCURVE",
"249 547 OFFCURVE",
"270 593 OFFCURVE",
"302 640 OFFCURVE",
"343 679 OFFCURVE",
"382 696 OFFCURVE",
"398 696 QCURVE SMOOTH",
"405 696 OFFCURVE",
"435 691 OFFCURVE",
"457 668 QCURVE",
"468 659 OFFCURVE",
"474 630 OFFCURVE",
"474 617 QCURVE SMOOTH",
"474 612 OFFCURVE",
"472 588 OFFCURVE",
"462 554 OFFCURVE",
"455 544 QCURVE",
"434 504 OFFCURVE",
"411 456 OFFCURVE",
"393 420 OFFCURVE",
"374 385 OFFCURVE",
"358 357 QCURVE",
"365 338 OFFCURVE",
"393 291 OFFCURVE",
"424 238 OFFCURVE",
"456 182 OFFCURVE",
"475 129 OFFCURVE",
"477 101 OFFCURVE",
"477 98 QCURVE SMOOTH",
"477 78 OFFCURVE",
"468 62 QCURVE"
);
}
);
width = 496;
}
);
unicode = 0078;
},
{
glyphname = y;
layers = (
{
layerId = "A2B16AE3-7741-4CE5-AF1B-C234A467F8D6";
paths = (
{
nodes = (
"307 26 OFFCURVE",
"267 15 OFFCURVE",
"249 15 QCURVE SMOOTH",
"243 15 OFFCURVE",
"212 18 OFFCURVE",
"173 42 OFFCURVE",
"167 64 QCURVE",
"159 100 OFFCURVE",
"152 172 OFFCURVE",
"151 243 OFFCURVE",
"151 313 OFFCURVE",
"149 348 QCURVE",
"131 376 OFFCURVE",
"84 436 OFFCURVE",
"44 499 OFFCURVE",
"15 565 OFFCURVE",
"15 598 QCURVE",
"14 607 OFFCURVE",
"14 614 QCURVE SMOOTH",
"14 637 OFFCURVE",
"39 670 OFFCURVE",
"74 681 OFFCURVE",
"88 681 QCURVE SMOOTH",
"96 681 OFFCURVE",
"128 675 OFFCURVE",
"141 663 QCURVE",
"161 648 OFFCURVE",
"187 617 OFFCURVE",
"208 586 OFFCURVE",
"229 551 OFFCURVE",
"243 532 QCURVE",
"252 551 OFFCURVE",
"265 580 OFFCURVE",
"280 606 OFFCURVE",
"300 634 OFFCURVE",
"315 651 QCURVE",
"330 674 OFFCURVE",
"367 683 OFFCURVE",
"378 683 QCURVE SMOOTH",
"392 683 OFFCURVE",
"429 671 OFFCURVE",
"459 633 OFFCURVE",
"459 609 QCURVE SMOOTH",
"459 605 OFFCURVE",
"459 600 QCURVE",
"457 573 OFFCURVE",
"428 503 OFFCURVE",
"390 433 OFFCURVE",
"351 371 OFFCURVE",
"338 352 QCURVE",
"337 334 OFFCURVE",
"337 315 QCURVE SMOOTH",
"337 292 OFFCURVE",
"341 221 OFFCURVE",
"342 170 OFFCURVE",
"342 162 QCURVE SMOOTH",
"342 129 OFFCURVE",
"335 62 OFFCURVE",
"321 40 QCURVE"
);
}
);
width = 472;
}
);
unicode = 0079;
},
{
glyphname = z;
layers = (
{
layerId = "A2B16AE3-7741-4CE5-AF1B-C234A467F8D6";
paths = (
{
nodes = (
"86 680 OFFCURVE",
"173 689 OFFCURVE",
"216 689 QCURVE SMOOTH",
"220 689 OFFCURVE",
"272 688 OFFCURVE",
"352 681 OFFCURVE",
"373 678 QCURVE",
"395 673 OFFCURVE",
"430 637 OFFCURVE",
"432 617 QCURVE",
"430 591 OFFCURVE",
"422 545 OFFCURVE",
"406 495 OFFCURVE",
"379 437 OFFCURVE",
"338 359 OFFCURVE",
"280 257 OFFCURVE",
"241 188 QCURVE",
"254 187 OFFCURVE",
"265 187 QCURVE SMOOTH",
"270 187 OFFCURVE",
"289 188 OFFCURVE",
"313 190 OFFCURVE",
"332 191 OFFCURVE",
"337 191 QCURVE SMOOTH",
"348 191 OFFCURVE",
"361 190 QCURVE",
"382 187 OFFCURVE",
"416 162 OFFCURVE",
"438 128 OFFCURVE",
"441 105 OFFCURVE",
"441 102 QCURVE SMOOTH",
"441 88 OFFCURVE",
"434 77 QCURVE",
"426 57 OFFCURVE",
"395 24 OFFCURVE",
"372 19 QCURVE",
"323 14 OFFCURVE",
"275 14 QCURVE SMOOTH",
"258 14 OFFCURVE",
"205 16 OFFCURVE",
"169 16 QCURVE SMOOTH",
"140 16 OFFCURVE",
"111 15 QCURVE",
"96 16 OFFCURVE",
"64 22 OFFCURVE",
"37 34 OFFCURVE",
"18 55 OFFCURVE",
"15 70 QCURVE",
"15 109 OFFCURVE",
"40 190 OFFCURVE",
"58 225 QCURVE",
"98 310 OFFCURVE",
"185 457 OFFCURVE",
"220 514 QCURVE",
"205 516 OFFCURVE",
"191 516 QCURVE SMOOTH",
"180 516 OFFCURVE",
"145 512 OFFCURVE",
"121 511 OFFCURVE",
"119 511 QCURVE",
"99 511 OFFCURVE",
"60 520 OFFCURVE",
"39 537 QCURVE SMOOTH",
"27 547 OFFCURVE",
"21 576 OFFCURVE",
"21 588 QCURVE SMOOTH",
"21 596 OFFCURVE",
"25 624 OFFCURVE",
"41 659 OFFCURVE",
"53 667 QCURVE"
);
}
);
width = 453;
}
);
unicode = 007A;
},
{
glyphname = braceleft;
layers = (
{
layerId = "A2B16AE3-7741-4CE5-AF1B-C234A467F8D6";
paths = (
{
nodes = (
"360 -19 OFFCURVE",
"376 -70 OFFCURVE",
"376 -86 QCURVE SMOOTH",
"376 -98 OFFCURVE",
"365 -134 OFFCURVE",
"329 -150 OFFCURVE",
"315 -150 QCURVE SMOOTH",
"296 -150 OFFCURVE",
"271 -141 QCURVE SMOOTH",
"232 -128 OFFCURVE",
"184 -72 OFFCURVE",
"158 1 OFFCURVE",
"150 85 OFFCURVE",
"150 127 QCURVE SMOOTH",
"150 149 OFFCURVE",
"147 169 QCURVE SMOOTH",
"145 186 OFFCURVE",
"136 221 OFFCURVE",
"128 232 QCURVE SMOOTH",
"120 242 OFFCURVE",
"97 252 OFFCURVE",
"71 261 OFFCURVE",
"47 273 OFFCURVE",
"38 286 QCURVE SMOOTH",
"33 292 OFFCURVE",
"30 310 OFFCURVE",
"30 315 QCURVE SMOOTH",
"30 325 OFFCURVE",
"38 350 OFFCURVE",
"65 377 OFFCURVE",
"91 383 QCURVE SMOOTH",
"114 388 OFFCURVE",
"142 432 OFFCURVE",
"149 455 QCURVE",
"149 481 LINE SMOOTH",
"149 520 OFFCURVE",
"150 573 OFFCURVE",
"150 578 QCURVE SMOOTH",
"150 617 OFFCURVE",
"158 694 OFFCURVE",
"183 760 OFFCURVE",
"231 810 OFFCURVE",
"271 823 QCURVE SMOOTH",
"295 830 OFFCURVE",
"313 830 QCURVE SMOOTH",
"328 830 OFFCURVE",
"365 816 OFFCURVE",
"376 784 OFFCURVE",
"376 774 QCURVE SMOOTH",
"376 760 OFFCURVE",
"360 715 OFFCURVE",
"331 692 QCURVE SMOOTH",
"325 687 OFFCURVE",
"319 653 OFFCURVE",
"317 627 QCURVE",
"317 619 OFFCURVE",
"317 610 QCURVE SMOOTH",
"317 596 OFFCURVE",
"319 553 OFFCURVE",
"320 513 OFFCURVE",
"320 503 QCURVE SMOOTH",
"320 483 OFFCURVE",
"317 432 OFFCURVE",
"303 380 OFFCURVE",
"273 339 OFFCURVE",
"247 330 QCURVE",
"273 317 OFFCURVE",
"301 270 OFFCURVE",
"313 212 OFFCURVE",
"315 147 OFFCURVE",
"317 84 OFFCURVE",
"322 27 OFFCURVE",
"331 7 QCURVE"
);
}
);
width = 366;
}
);
unicode = 007B;
},
{
glyphname = bar;
layers = (
{
layerId = "A2B16AE3-7741-4CE5-AF1B-C234A467F8D6";
paths = (
{
nodes = (
"158 -161 OFFCURVE",
"129 -169 OFFCURVE",
"112 -170 OFFCURVE",
"110 -170 QCURVE",
"97 -170 OFFCURVE",
"72 -163 OFFCURVE",
"63 -152 QCURVE SMOOTH",
"53 -139 OFFCURVE",
"41 -77 OFFCURVE",
"34 5 OFFCURVE",
"32 98 OFFCURVE",
"32 369 OFFCURVE",
"33 622 OFFCURVE",
"33 642 QCURVE",
"33 643 LINE",
"33 645 OFFCURVE",
"33 647 QCURVE",
"33 649 LINE",
"33 649 OFFCURVE",
"33 650 QCURVE",
"33 656 LINE",
"33 657 OFFCURVE",
"33 657 QCURVE",
"33 659 LINE",
"33 660 OFFCURVE",
"33 661 QCURVE",
"33 662 LINE",
"33 663 OFFCURVE",
"33 664 QCURVE",
"33 666 LINE",
"33 667 OFFCURVE",
"33 668 QCURVE",
"33 701 LINE SMOOTH",
"33 737 OFFCURVE",
"47 804 OFFCURVE",
"84 853 OFFCURVE",
"120 853 QCURVE SMOOTH",
"140 853 OFFCURVE",
"168 825 OFFCURVE",
"185 781 OFFCURVE",
"194 727 OFFCURVE",
"199 674 OFFCURVE",
"199 651 QCURVE SMOOTH",
"199 645 LINE SMOOTH",
"199 642 OFFCURVE",
"199 637 QCURVE SMOOTH",
"199 625 LINE",
"199 623 OFFCURVE",
"199 621 QCURVE",
"199 594 LINE SMOOTH",
"199 590 OFFCURVE",
"199 587 QCURVE SMOOTH",
"199 435 LINE SMOOTH",
"199 361 OFFCURVE",
"197 32 OFFCURVE",
"197 -42 QCURVE",
"197 -43 OFFCURVE",
"197 -44 QCURVE",
"197 -45 LINE",
"197 -46 OFFCURVE",
"197 -48 QCURVE",
"197 -50 LINE",
"197 -51 OFFCURVE",
"197 -51 QCURVE",
"197 -54 LINE",
"197 -54 OFFCURVE",
"197 -55 QCURVE",
"197 -72 LINE SMOOTH",
"197 -87 OFFCURVE",
"193 -117 OFFCURVE",
"182 -144 OFFCURVE",
"170 -155 QCURVE",
"169 -155 OFFCURVE",
"169 -156 OFFCURVE",
"168 -156 QCURVE"
);
}
);
width = 228;
}
);
unicode = 007C;
},
{
glyphname = braceright;
layers = (
{
layerId = "A2B16AE3-7741-4CE5-AF1B-C234A467F8D6";
paths = (
{
nodes = (
"27 28 OFFCURVE",
"33 84 OFFCURVE",
"34 147 OFFCURVE",
"36 212 OFFCURVE",
"49 270 OFFCURVE",
"77 316 OFFCURVE",
"103 329 QCURVE",
"77 338 OFFCURVE",
"47 378 OFFCURVE",
"32 431 OFFCURVE",
"29 481 OFFCURVE",
"29 501 QCURVE SMOOTH",
"29 511 OFFCURVE",
"30 550 OFFCURVE",
"32 592 OFFCURVE",
"32 606 QCURVE SMOOTH",
"32 615 OFFCURVE",
"32 623 QCURVE",
"30 649 OFFCURVE",
"24 683 OFFCURVE",
"18 688 QCURVE SMOOTH",
"-12 711 OFFCURVE",
"-28 755 OFFCURVE",
"-28 768 QCURVE SMOOTH",
"-28 779 OFFCURVE",
"-16 811 OFFCURVE",
"21 825 OFFCURVE",
"36 825 QCURVE SMOOTH",
"55 825 OFFCURVE",
"79 818 QCURVE SMOOTH",
"120 805 OFFCURVE",
"169 755 OFFCURVE",
"194 690 OFFCURVE",
"202 614 OFFCURVE",
"202 575 QCURVE SMOOTH",
"202 570 OFFCURVE",
"203 517 OFFCURVE",
"203 479 QCURVE SMOOTH",
"203 453 LINE",
"210 430 OFFCURVE",
"238 386 OFFCURVE",
"262 381 QCURVE SMOOTH",
"289 376 OFFCURVE",
"316 349 OFFCURVE",
"323 324 OFFCURVE",
"323 315 QCURVE SMOOTH",
"323 310 OFFCURVE",
"320 291 OFFCURVE",
"316 285 QCURVE SMOOTH",
"307 272 OFFCURVE",
"282 260 OFFCURVE",
"256 252 OFFCURVE",
"232 242 OFFCURVE",
"224 232 QCURVE SMOOTH",
"216 221 OFFCURVE",
"207 186 OFFCURVE",
"205 169 QCURVE SMOOTH",
"202 149 OFFCURVE",
"202 127 QCURVE SMOOTH",
"202 85 OFFCURVE",
"194 2 OFFCURVE",
"168 -70 OFFCURVE",
"119 -125 OFFCURVE",
"79 -138 QCURVE SMOOTH",
"54 -147 OFFCURVE",
"34 -147 QCURVE SMOOTH",
"20 -147 OFFCURVE",
"-17 -131 OFFCURVE",
"-28 -96 OFFCURVE",
"-28 -84 QCURVE SMOOTH",
"-28 -68 OFFCURVE",
"-12 -18 OFFCURVE",
"18 8 QCURVE"
);
}
);
width = 339;
}
);
unicode = 007D;
},
{
glyphname = exclamdown;
layers = (
{
layerId = "A2B16AE3-7741-4CE5-AF1B-C234A467F8D6";
paths = (
{
nodes = (
"117 683 OFFCURVE",
"121 683 QCURVE SMOOTH",
"137 683 OFFCURVE",
"165 665 OFFCURVE",
"184 632 OFFCURVE",
"186 608 OFFCURVE",
"186 605 QCURVE SMOOTH",
"186 589 OFFCURVE",
"173 555 OFFCURVE",
"139 526 OFFCURVE",
"110 520 QCURVE",
"81 523 OFFCURVE",
"44 550 OFFCURVE",
"27 587 OFFCURVE",
"27 607 QCURVE",
"27 608 OFFCURVE",
"28 630 OFFCURVE",
"49 664 OFFCURVE",
"83 683 OFFCURVE",
"105 683 QCURVE SMOOTH",
"110 683 OFFCURVE",
"114 683 QCURVE SMOOTH"
);
},
{
nodes = (
"148 490 OFFCURVE",
"178 431 OFFCURVE",
"192 341 OFFCURVE",
"193 274 OFFCURVE",
"193 260 QCURVE SMOOTH",
"193 221 OFFCURVE",
"188 136 OFFCURVE",
"180 63 OFFCURVE",
"178 51 QCURVE SMOOTH",
"175 34 OFFCURVE",
"141 13 OFFCURVE",
"114 9 OFFCURVE",
"108 9 QCURVE SMOOTH",
"95 9 OFFCURVE",
"63 19 OFFCURVE",
"56 36 QCURVE",
"43 51 OFFCURVE",
"30 104 OFFCURVE",
"25 166 OFFCURVE",
"25 197 QCURVE SMOOTH",
"25 204 OFFCURVE",
"26 248 OFFCURVE",
"30 322 OFFCURVE",
"34 390 OFFCURVE",
"34 415 QCURVE SMOOTH",
"34 418 OFFCURVE",
"34 420 QCURVE",
"34 451 OFFCURVE",
"76 492 OFFCURVE",
"107 492 QCURVE SMOOTH",
"114 492 OFFCURVE",
"121 491 QCURVE"
);
}
);
width = 216;
}
);
unicode = 00A1;
},
{
glyphname = cent;
layers = (
{
layerId = "A2B16AE3-7741-4CE5-AF1B-C234A467F8D6";
paths = (
{
nodes = (
"139 584 LINE SMOOTH",
"139 608 OFFCURVE",
"149 652 OFFCURVE",
"176 684 OFFCURVE",
"202 684 QCURVE SMOOTH",
"216 684 OFFCURVE",
"236 666 OFFCURVE",
"248 637 OFFCURVE",
"255 601 OFFCURVE",
"258 566 OFFCURVE",
"258 551 QCURVE SMOOTH",
"258 548 LINE",
"268 544 OFFCURVE",
"279 539 QCURVE SMOOTH",
"299 530 OFFCURVE",
"328 503 OFFCURVE",
"328 488 QCURVE SMOOTH",
"328 463 OFFCURVE",
"314 436 OFFCURVE",
"294 427 OFFCURVE",
"283 427 QCURVE SMOOTH",
"280 427 OFFCURVE",
"263 429 OFFCURVE",
"237 436 OFFCURVE",
"214 443 OFFCURVE",
"209 443 QCURVE SMOOTH",
"191 443 OFFCURVE",
"172 424 OFFCURVE",
"163 397 OFFCURVE",
"162 367 OFFCURVE",
"162 356 QCURVE SMOOTH",
"162 331 OFFCURVE",
"163 284 OFFCURVE",
"174 261 QCURVE",
"174 258 LINE",
"184 242 OFFCURVE",
"201 242 QCURVE",
"202 242 OFFCURVE",
"220 243 OFFCURVE",
"258 257 OFFCURVE",
"289 274 OFFCURVE",
"297 274 QCURVE SMOOTH",
"305 274 OFFCURVE",
"322 265 OFFCURVE",
"336 250 OFFCURVE",
"345 233 OFFCURVE",
"345 224 QCURVE SMOOTH",
"345 201 OFFCURVE",
"318 164 OFFCURVE",
"297 150 QCURVE SMOOTH",
"279 137 OFFCURVE",
"257 129 QCURVE",
"257 74 LINE SMOOTH",
"257 64 OFFCURVE",
"254 44 OFFCURVE",
"246 26 OFFCURVE",
"238 19 QCURVE",
"236 18 LINE SMOOTH",
"229 15 OFFCURVE",
"208 10 OFFCURVE",
"195 9 OFFCURVE",
"193 9 QCURVE",
"184 9 OFFCURVE",
"167 14 OFFCURVE",
"160 21 QCURVE",
"153 30 OFFCURVE",
"145 71 OFFCURVE",
"142 98 QCURVE SMOOTH",
"140 114 OFFCURVE",
"140 132 QCURVE",
"129 137 OFFCURVE",
"119 142 QCURVE",
"86 165 OFFCURVE",
"45 234 OFFCURVE",
"29 318 OFFCURVE",
"29 358 QCURVE SMOOTH",
"29 395 OFFCURVE",
"48 467 OFFCURVE",
"91 524 OFFCURVE",
"124 541 QCURVE SMOOTH",
"131 545 OFFCURVE",
"139 548 QCURVE"
);
}
);
width = 377;
}
);
unicode = 00A2;
},
{
glyphname = sterling;
layers = (
{
layerId = "A2B16AE3-7741-4CE5-AF1B-C234A467F8D6";
paths = (
{
nodes = (
"477 195 OFFCURVE",
"510 167 OFFCURVE",
"528 131 OFFCURVE",
"528 111 QCURVE",
"528 110 OFFCURVE",
"527 87 OFFCURVE",
"514 65 QCURVE SMOOTH",
"505 49 OFFCURVE",
"479 33 OFFCURVE",
"455 29 OFFCURVE",
"446 29 QCURVE SMOOTH",
"439 29 OFFCURVE",
"414 32 OFFCURVE",
"397 35 QCURVE SMOOTH",
"382 38 OFFCURVE",
"369 38 QCURVE",
"367 38 OFFCURVE",
"350 37 OFFCURVE",
"312 31 OFFCURVE",
"256 22 OFFCURVE",
"212 18 QCURVE SMOOTH",
"186 15 OFFCURVE",
"166 15 QCURVE SMOOTH",
"152 15 OFFCURVE",
"113 20 OFFCURVE",
"83 38 OFFCURVE",
"72 66 OFFCURVE",
"72 84 QCURVE SMOOTH",
"72 87 OFFCURVE",
"72 89 QCURVE",
"72 103 OFFCURVE",
"82 129 OFFCURVE",
"90 139 QCURVE SMOOTH",
"98 150 OFFCURVE",
"109 159 QCURVE",
"109 178 OFFCURVE",
"104 244 OFFCURVE",
"101 292 QCURVE",
"70 293 OFFCURVE",
"37 298 OFFCURVE",
"35 300 QCURVE SMOOTH",
"27 311 OFFCURVE",
"22 339 OFFCURVE",
"22 347 QCURVE SMOOTH",
"22 353 OFFCURVE",
"23 358 QCURVE SMOOTH",
"25 366 OFFCURVE",
"33 383 OFFCURVE",
"41 388 QCURVE SMOOTH",
"46 391 OFFCURVE",
"95 392 QCURVE",
"93 427 OFFCURVE",
"93 460 QCURVE SMOOTH",
"93 469 OFFCURVE",
"94 518 OFFCURVE",
"99 549 QCURVE SMOOTH",
"105 589 OFFCURVE",
"139 639 OFFCURVE",
"181 667 OFFCURVE",
"224 676 OFFCURVE",
"241 676 QCURVE SMOOTH",
"267 676 OFFCURVE",
"314 666 OFFCURVE",
"332 661 QCURVE SMOOTH",
"353 655 OFFCURVE",
"371 647 QCURVE",
"392 636 OFFCURVE",
"401 596 OFFCURVE",
"401 582 QCURVE SMOOTH",
"401 570 OFFCURVE",
"393 533 OFFCURVE",
"367 508 OFFCURVE",
"354 508 QCURVE SMOOTH",
"346 508 OFFCURVE",
"338 511 QCURVE SMOOTH",
"317 520 OFFCURVE",
"302 520 QCURVE SMOOTH",
"294 520 OFFCURVE",
"270 511 OFFCURVE",
"254 476 OFFCURVE",
"253 450 OFFCURVE",
"253 447 QCURVE SMOOTH",
"253 427 OFFCURVE",
"257 408 QCURVE SMOOTH",
"258 405 OFFCURVE",
"258 403 QCURVE",
"258 402 OFFCURVE",
"257 397 OFFCURVE",
"257 392 QCURVE",
"334 392 OFFCURVE",
"403 390 OFFCURVE",
"409 388 QCURVE",
"422 387 OFFCURVE",
"435 359 OFFCURVE",
"435 325 OFFCURVE",
"422 296 OFFCURVE",
"410 295 QCURVE",
"404 293 OFFCURVE",
"337 292 OFFCURVE",
"264 291 QCURVE",
"266 269 OFFCURVE",
"269 235 OFFCURVE",
"271 223 QCURVE SMOOTH",
"273 209 OFFCURVE",
"274 197 QCURVE",
"293 208 OFFCURVE",
"320 213 QCURVE SMOOTH",
"338 217 OFFCURVE",
"362 217 QCURVE SMOOTH",
"370 217 OFFCURVE",
"412 215 OFFCURVE",
"457 201 QCURVE SMOOTH"
);
}
);
width = 559;
}
);
unicode = 00A3;
},
{
glyphname = currency;
layers = (
{
layerId = "A2B16AE3-7741-4CE5-AF1B-C234A467F8D6";
paths = (
{
nodes = (
"421 208 LINE",
"455 174 OFFCURVE",
"466 133 QCURVE SMOOTH",
"469 124 OFFCURVE",
"469 112 QCURVE",
"469 110 OFFCURVE",
"468 95 OFFCURVE",
"461 68 OFFCURVE",
"448 45 OFFCURVE",
"439 39 QCURVE SMOOTH",
"412 19 OFFCURVE",
"388 19 QCURVE SMOOTH",
"384 19 OFFCURVE",
"379 20 QCURVE SMOOTH",
"362 22 OFFCURVE",
"334 56 OFFCURVE",
"322 78 QCURVE",
"307 94 OFFCURVE",
"269 107 OFFCURVE",
"252 107 QCURVE SMOOTH",
"248 107 OFFCURVE",
"224 105 OFFCURVE",
"194 85 OFFCURVE",
"192 67 QCURVE",
"186 39 OFFCURVE",
"152 15 OFFCURVE",
"120 15 QCURVE",
"118 15 OFFCURVE",
"115 15 QCURVE",
"114 15 LINE",
"79 19 OFFCURVE",
"44 49 OFFCURVE",
"39 72 QCURVE",
"40 71 LINE",
"39 75 OFFCURVE",
"39 81 QCURVE SMOOTH",
"39 90 OFFCURVE",
"45 128 OFFCURVE",
"53 154 QCURVE",
"61 174 OFFCURVE",
"73 191 QCURVE",
"42 224 OFFCURVE",
"15 314 OFFCURVE",
"15 362 QCURVE SMOOTH",
"15 405 OFFCURVE",
"43 483 OFFCURVE",
"69 513 QCURVE",
"32 549 OFFCURVE",
"21 590 QCURVE SMOOTH",
"18 599 OFFCURVE",
"18 608 QCURVE SMOOTH",
"18 638 OFFCURVE",
"47 660 QCURVE",
"76 678 OFFCURVE",
"100 678 QCURVE SMOOTH",
"104 678 OFFCURVE",
"107 678 QCURVE",
"124 676 OFFCURVE",
"161 645 OFFCURVE",
"172 623 QCURVE",
"187 606 OFFCURVE",
"226 595 OFFCURVE",
"241 595 QCURVE SMOOTH",
"246 595 OFFCURVE",
"271 597 OFFCURVE",
"302 618 OFFCURVE",
"304 636 QCURVE",
"311 664 OFFCURVE",
"344 689 OFFCURVE",
"375 689 QCURVE SMOOTH",
"378 689 OFFCURVE",
"380 689 QCURVE",
"381 689 LINE",
"417 686 OFFCURVE",
"452 663 OFFCURVE",
"457 640 QCURVE",
"456 641 LINE",
"457 637 OFFCURVE",
"457 631 QCURVE SMOOTH",
"457 622 OFFCURVE",
"451 590 OFFCURVE",
"443 564 QCURVE",
"438 553 OFFCURVE",
"426 532 OFFCURVE",
"419 522 QCURVE",
"444 494 OFFCURVE",
"470 414 OFFCURVE",
"474 362 QCURVE",
"474 322 OFFCURVE",
"453 242 OFFCURVE",
"423 210 QCURVE"
);
},
{
nodes = (
"323 400 OFFCURVE",
"276 436 OFFCURVE",
"237 436 QCURVE SMOOTH",
"217 436 OFFCURVE",
"192 423 OFFCURVE",
"176 404 OFFCURVE",
"170 379 OFFCURVE",
"170 367 QCURVE SMOOTH",
"170 352 OFFCURVE",
"174 322 OFFCURVE",
"188 298 OFFCURVE",
"217 283 OFFCURVE",
"243 283 QCURVE SMOOTH",
"269 283 OFFCURVE",
"301 296 OFFCURVE",
"319 319 OFFCURVE",
"324 345 OFFCURVE",
"324 358 QCURVE SMOOTH",
"324 362 OFFCURVE",
"324 366 QCURVE"
);
}
);
width = 504;
}
);
unicode = 00A4;
},
{
glyphname = yen;
layers = (
{
layerId = "A2B16AE3-7741-4CE5-AF1B-C234A467F8D6";
paths = (
{
nodes = (
"391 279 OFFCURVE",
"337 278 QCURVE",
"338 272 OFFCURVE",
"338 266 QCURVE",
"340 230 OFFCURVE",
"341 195 QCURVE",
"393 194 OFFCURVE",
"401 192 QCURVE SMOOTH",
"413 190 OFFCURVE",
"427 177 OFFCURVE",
"434 157 OFFCURVE",
"434 147 QCURVE",
"434 146 OFFCURVE",
"433 132 OFFCURVE",
"425 110 OFFCURVE",
"410 94 OFFCURVE",
"401 93 QCURVE",
"391 90 OFFCURVE",
"337 88 QCURVE",
"333 59 OFFCURVE",
"321 40 QCURVE",
"307 26 OFFCURVE",
"267 15 OFFCURVE",
"249 15 QCURVE SMOOTH",
"243 15 OFFCURVE",
"212 18 OFFCURVE",
"173 42 OFFCURVE",
"167 64 QCURVE SMOOTH",
"164 76 OFFCURVE",
"162 88 QCURVE",
"89 91 OFFCURVE",
"82 100 QCURVE SMOOTH",
"71 114 OFFCURVE",
"66 135 OFFCURVE",
"66 142 QCURVE SMOOTH",
"66 147 OFFCURVE",
"67 153 QCURVE SMOOTH",
"69 164 OFFCURVE",
"81 184 OFFCURVE",
"90 190 QCURVE SMOOTH",
"96 194 OFFCURVE",
"151 196 QCURVE",
"151 208 LINE",
"151 209 OFFCURVE",
"151 209 QCURVE",
"151 211 LINE",
"151 213 OFFCURVE",
"151 215 QCURVE",
"151 226 LINE",
"151 227 OFFCURVE",
"151 229 QCURVE",
"151 236 LINE",
"151 237 OFFCURVE",
"151 238 QCURVE",
"151 240 LINE",
"151 241 OFFCURVE",
"151 242 QCURVE",
"151 273 LINE",
"151 274 OFFCURVE",
"151 275 QCURVE",
"151 278 LINE",
"89 281 OFFCURVE",
"82 289 QCURVE SMOOTH",
"71 303 OFFCURVE",
"66 324 OFFCURVE",
"66 331 QCURVE SMOOTH",
"66 337 OFFCURVE",
"67 343 QCURVE SMOOTH",
"69 354 OFFCURVE",
"81 374 OFFCURVE",
"90 380 QCURVE SMOOTH",
"94 382 OFFCURVE",
"124 384 QCURVE",
"116 395 OFFCURVE",
"107 406 QCURVE SMOOTH",
"84 436 OFFCURVE",
"44 499 OFFCURVE",
"15 565 OFFCURVE",
"15 598 QCURVE",
"14 607 OFFCURVE",
"14 614 QCURVE SMOOTH",
"14 637 OFFCURVE",
"39 670 OFFCURVE",
"74 681 OFFCURVE",
"88 681 QCURVE SMOOTH",
"96 681 OFFCURVE",
"128 675 OFFCURVE",
"141 663 QCURVE",
"161 648 OFFCURVE",
"187 617 OFFCURVE",
"208 586 OFFCURVE",
"229 551 OFFCURVE",
"243 532 QCURVE",
"252 551 OFFCURVE",
"265 580 OFFCURVE",
"280 606 OFFCURVE",
"300 634 OFFCURVE",
"315 651 QCURVE",
"330 674 OFFCURVE",
"367 683 OFFCURVE",
"378 683 QCURVE SMOOTH",
"392 683 OFFCURVE",
"429 671 OFFCURVE",
"459 633 OFFCURVE",
"459 609 QCURVE SMOOTH",
"459 605 OFFCURVE",
"459 600 QCURVE",
"457 573 OFFCURVE",
"428 503 OFFCURVE",
"390 433 OFFCURVE",
"370 402 QCURVE SMOOTH",
"364 392 OFFCURVE",
"359 384 QCURVE",
"394 383 OFFCURVE",
"401 381 QCURVE",
"413 380 OFFCURVE",
"427 366 OFFCURVE",
"434 346 OFFCURVE",
"434 336 QCURVE",
"434 335 OFFCURVE",
"433 321 OFFCURVE",
"425 300 OFFCURVE",
"410 284 OFFCURVE",
"401 282 QCURVE SMOOTH"
);
}
);
width = 472;
}
);
unicode = 00A5;
},
{
glyphname = brokenbar;
layers = (
{
layerId = "A2B16AE3-7741-4CE5-AF1B-C234A467F8D6";
paths = (
{
nodes = (
"176 717 OFFCURVE",
"177 555 OFFCURVE",
"177 548 QCURVE SMOOTH",
"177 409 OFFCURVE",
"142 380 OFFCURVE",
"115 373 OFFCURVE",
"106 373 QCURVE SMOOTH",
"98 373 OFFCURVE",
"89 375 QCURVE SMOOTH",
"75 378 OFFCURVE",
"48 394 OFFCURVE",
"31 419 OFFCURVE",
"31 554 QCURVE SMOOTH",
"31 562 OFFCURVE",
"32 720 OFFCURVE",
"38 740 QCURVE",
"40 756 OFFCURVE",
"58 776 OFFCURVE",
"84 785 OFFCURVE",
"97 785 QCURVE",
"99 785 OFFCURVE",
"118 784 OFFCURVE",
"147 773 OFFCURVE",
"168 753 OFFCURVE",
"170 740 QCURVE"
);
},
{
nodes = (
"176 259 OFFCURVE",
"177 97 OFFCURVE",
"177 90 QCURVE SMOOTH",
"177 -49 OFFCURVE",
"142 -78 OFFCURVE",
"115 -86 OFFCURVE",
"106 -86 QCURVE SMOOTH",
"98 -86 OFFCURVE",
"89 -83 QCURVE",
"75 -80 OFFCURVE",
"48 -64 OFFCURVE",
"31 -39 OFFCURVE",
"31 96 QCURVE SMOOTH",
"31 104 OFFCURVE",
"32 262 OFFCURVE",
"38 282 QCURVE",
"40 298 OFFCURVE",
"58 318 OFFCURVE",
"84 327 OFFCURVE",
"97 327 QCURVE",
"99 327 OFFCURVE",
"118 326 OFFCURVE",
"147 315 OFFCURVE",
"168 295 OFFCURVE",
"170 282 QCURVE"
);
}
);
width = 202;
}
);
unicode = 00A6;
},
{
glyphname = section;
layers = (
{
layerId = "A2B16AE3-7741-4CE5-AF1B-C234A467F8D6";
paths = (
{
nodes = (
"422 185 OFFCURVE",
"434 142 QCURVE SMOOTH",
"444 105 OFFCURVE",
"444 72 QCURVE SMOOTH",
"444 50 OFFCURVE",
"429 -18 OFFCURVE",
"376 -86 OFFCURVE",
"301 -121 OFFCURVE",
"262 -121 QCURVE SMOOTH",
"241 -121 OFFCURVE",
"185 -115 OFFCURVE",
"126 -100 OFFCURVE",
"70 -78 OFFCURVE",
"29 -45 OFFCURVE",
"14 -11 OFFCURVE",
"14 3 QCURVE SMOOTH",
"14 14 OFFCURVE",
"17 26 QCURVE SMOOTH",
"29 73 OFFCURVE",
"65 93 OFFCURVE",
"82 93 QCURVE SMOOTH",
"89 93 OFFCURVE",
"123 86 OFFCURVE",
"183 62 OFFCURVE",
"213 62 QCURVE SMOOTH",
"222 62 OFFCURVE",
"240 69 OFFCURVE",
"251 82 OFFCURVE",
"252 93 OFFCURVE",
"252 94 QCURVE",
"252 102 OFFCURVE",
"246 112 QCURVE",
"241 118 OFFCURVE",
"202 130 OFFCURVE",
"148 148 OFFCURVE",
"90 178 OFFCURVE",
"67 202 QCURVE",
"30 252 OFFCURVE",
"17 318 OFFCURVE",
"17 339 QCURVE SMOOTH",
"17 355 OFFCURVE",
"26 404 OFFCURVE",
"59 456 OFFCURVE",
"73 473 QCURVE",
"42 505 OFFCURVE",
"28 571 OFFCURVE",
"28 589 QCURVE SMOOTH",
"28 631 OFFCURVE",
"47 689 QCURVE SMOOTH",
"60 731 OFFCURVE",
"112 775 OFFCURVE",
"171 795 OFFCURVE",
"225 798 OFFCURVE",
"239 798 QCURVE SMOOTH",
"263 798 OFFCURVE",
"335 788 OFFCURVE",
"401 761 OFFCURVE",
"448 714 OFFCURVE",
"448 677 QCURVE SMOOTH",
"448 637 OFFCURVE",
"416 605 OFFCURVE",
"387 603 OFFCURVE",
"383 603 QCURVE SMOOTH",
"361 603 OFFCURVE",
"307 618 OFFCURVE",
"254 631 OFFCURVE",
"215 631 OFFCURVE",
"210 615 QCURVE SMOOTH",
"206 603 OFFCURVE",
"206 594 QCURVE SMOOTH",
"206 585 OFFCURVE",
"216 564 OFFCURVE",
"246 546 OFFCURVE",
"290 533 OFFCURVE",
"337 516 OFFCURVE",
"384 490 OFFCURVE",
"403 469 QCURVE",
"427 445 OFFCURVE",
"447 376 OFFCURVE",
"447 342 QCURVE SMOOTH",
"447 337 OFFCURVE",
"445 294 OFFCURVE",
"419 226 OFFCURVE",
"398 209 QCURVE"
);
},
{
nodes = (
"192 375 OFFCURVE",
"192 367 QCURVE",
"192 365 OFFCURVE",
"194 353 OFFCURVE",
"210 331 OFFCURVE",
"234 313 OFFCURVE",
"246 311 QCURVE",
"250 311 OFFCURVE",
"253 311 QCURVE SMOOTH",
"263 311 OFFCURVE",
"285 321 OFFCURVE",
"296 340 OFFCURVE",
"296 350 QCURVE SMOOTH",
"296 353 OFFCURVE",
"294 369 OFFCURVE",
"281 381 QCURVE",
"269 386 OFFCURVE",
"243 396 OFFCURVE",
"229 398 OFFCURVE",
"226 398 QCURVE SMOOTH",
"219 398 OFFCURVE",
"203 391 OFFCURVE",
"199 379 QCURVE"
);
}
);
width = 473;
}
);
unicode = 00A7;
},
{
glyphname = dieresis;
layers = (
{
layerId = "A2B16AE3-7741-4CE5-AF1B-C234A467F8D6";
paths = (
{
nodes = (
"140 735 OFFCURVE",
"127 735 QCURVE SMOOTH",
"113 735 OFFCURVE",
"79 746 OFFCURVE",
"51 775 OFFCURVE",
"42 805 OFFCURVE",
"42 816 QCURVE SMOOTH",
"42 824 OFFCURVE",
"44 832 QCURVE SMOOTH",
"48 848 OFFCURVE",
"65 878 OFFCURVE",
"92 896 OFFCURVE",
"117 901 OFFCURVE",
"124 901 QCURVE SMOOTH",
"136 901 OFFCURVE",
"151 897 QCURVE",
"172 896 OFFCURVE",
"197 874 OFFCURVE",
"208 842 OFFCURVE",
"208 825 QCURVE",
"208 823 OFFCURVE",
"207 801 OFFCURVE",
"193 765 OFFCURVE",
"170 741 OFFCURVE",
"154 738 QCURVE SMOOTH"
);
},
{
nodes = (
"362 735 OFFCURVE",
"349 735 QCURVE SMOOTH",
"335 735 OFFCURVE",
"300 746 OFFCURVE",
"273 775 OFFCURVE",
"264 805 OFFCURVE",
"264 816 QCURVE SMOOTH",
"264 824 OFFCURVE",
"266 832 QCURVE SMOOTH",
"270 848 OFFCURVE",
"287 878 OFFCURVE",
"314 896 OFFCURVE",
"339 901 OFFCURVE",
"346 901 QCURVE SMOOTH",
"358 901 OFFCURVE",
"373 897 QCURVE",
"394 896 OFFCURVE",
"419 874 OFFCURVE",
"430 842 OFFCURVE",
"430 825 QCURVE",
"430 823 OFFCURVE",
"429 801 OFFCURVE",
"415 765 OFFCURVE",
"392 741 OFFCURVE",
"376 738 QCURVE SMOOTH"
);
}
);
width = 465;
}
);
unicode = 00A8;
},
{
glyphname = copyright;
layers = (
{
layerId = "A2B16AE3-7741-4CE5-AF1B-C234A467F8D6";
paths = (
{
nodes = (
"20 509 OFFCURVE",
"50 587 OFFCURVE",
"106 645 OFFCURVE",
"188 680 OFFCURVE",
"240 680 QCURVE SMOOTH",
"356 680 OFFCURVE",
"463 572 OFFCURVE",
"471 466 QCURVE",
"471 427 OFFCURVE",
"450 349 OFFCURVE",
"392 288 OFFCURVE",
"313 246 OFFCURVE",
"247 245 QCURVE",
"238 245 OFFCURVE",
"229 245 QCURVE SMOOTH",
"177 245 OFFCURVE",
"96 277 OFFCURVE",
"44 340 OFFCURVE",
"20 423 OFFCURVE",
"20 466 QCURVE SMOOTH"
);
},
{
nodes = (
"351 309 OFFCURVE",
"413 410 OFFCURVE",
"413 473 QCURVE SMOOTH",
"413 477 OFFCURVE",
"411 550 OFFCURVE",
"307 620 OFFCURVE",
"226 620 QCURVE SMOOTH",
"146 620 OFFCURVE",
"83 532 OFFCURVE",
"83 480 QCURVE SMOOTH",
"83 452 OFFCURVE",
"93 391 OFFCURVE",
"125 341 OFFCURVE",
"186 309 OFFCURVE",
"238 309 QCURVE SMOOTH"
);
},
{
nodes = (
"326 412 LINE",
"326 409 OFFCURVE",
"326 406 QCURVE SMOOTH",
"326 394 OFFCURVE",
"312 376 OFFCURVE",
"288 365 OFFCURVE",
"266 362 OFFCURVE",
"259 362 QCURVE SMOOTH",
"256 362 OFFCURVE",
"253 362 QCURVE",
"197 367 OFFCURVE",
"147 414 OFFCURVE",
"147 464 QCURVE SMOOTH",
"147 486 OFFCURVE",
"164 524 OFFCURVE",
"194 551 OFFCURVE",
"235 566 OFFCURVE",
"258 566 QCURVE SMOOTH",
"267 566 OFFCURVE",
"290 560 OFFCURVE",
"310 549 OFFCURVE",
"323 531 OFFCURVE",
"323 519 QCURVE SMOOTH",
"323 503 OFFCURVE",
"300 481 OFFCURVE",
"286 479 QCURVE",
"276 479 OFFCURVE",
"262 481 QCURVE SMOOTH",
"258 482 OFFCURVE",
"247 483 OFFCURVE",
"244 483 QCURVE SMOOTH",
"237 483 OFFCURVE",
"229 475 OFFCURVE",
"229 465 QCURVE",
"229 463 OFFCURVE",
"229 460 QCURVE SMOOTH",
"229 449 OFFCURVE",
"242 441 OFFCURVE",
"251 441 QCURVE SMOOTH",
"255 441 OFFCURVE",
"263 442 OFFCURVE",
"267 443 QCURVE",
"272 443 OFFCURVE",
"281 444 OFFCURVE",
"286 444 QCURVE SMOOTH",
"302 444 OFFCURVE",
"324 432 OFFCURVE",
"326 411 QCURVE"
);
}
);
width = 499;
}
);
unicode = 00A9;
},
{
glyphname = ordfeminine;
layers = (
{
layerId = "A2B16AE3-7741-4CE5-AF1B-C234A467F8D6";
paths = (
{
nodes = (
"282 392 OFFCURVE",
"282 388 QCURVE SMOOTH",
"282 375 OFFCURVE",
"264 357 OFFCURVE",
"245 357 QCURVE SMOOTH",
"229 357 OFFCURVE",
"207 368 OFFCURVE",
"195 377 QCURVE",
"181 376 OFFCURVE",
"150 369 OFFCURVE",
"125 367 OFFCURVE",
"116 367 QCURVE SMOOTH",
"110 367 OFFCURVE",
"88 368 OFFCURVE",
"75 376 QCURVE SMOOTH",
"57 387 OFFCURVE",
"37 432 OFFCURVE",
"35 462 OFFCURVE",
"35 465 QCURVE SMOOTH",
"35 487 OFFCURVE",
"50 529 OFFCURVE",
"68 540 QCURVE SMOOTH",
"78 546 OFFCURVE",
"93 553 OFFCURVE",
"111 557 OFFCURVE",
"133 560 OFFCURVE",
"149 561 QCURVE",
"156 569 OFFCURVE",
"156 574 QCURVE SMOOTH",
"156 581 OFFCURVE",
"139 587 OFFCURVE",
"129 587 QCURVE SMOOTH",
"110 587 OFFCURVE",
"77 578 QCURVE",
"59 582 OFFCURVE",
"49 605 OFFCURVE",
"49 616 QCURVE SMOOTH",
"49 621 OFFCURVE",
"53 643 OFFCURVE",
"75 672 OFFCURVE",
"91 676 QCURVE SMOOTH",
"118 682 OFFCURVE",
"142 682 QCURVE SMOOTH",
"165 682 OFFCURVE",
"225 666 OFFCURVE",
"273 612 OFFCURVE",
"278 561 OFFCURVE",
"278 553 QCURVE SMOOTH",
"278 517 OFFCURVE",
"263 474 QCURVE",
"259 466 OFFCURVE",
"259 458 QCURVE",
"259 456 OFFCURVE",
"261 444 OFFCURVE",
"270 426 OFFCURVE",
"280 408 OFFCURVE",
"281 398 QCURVE SMOOTH"
);
},
{
nodes = (
"142 446 OFFCURVE",
"145 446 QCURVE SMOOTH",
"149 446 OFFCURVE",
"161 455 OFFCURVE",
"166 468 OFFCURVE",
"166 472 QCURVE SMOOTH",
"166 476 OFFCURVE",
"162 487 OFFCURVE",
"150 489 QCURVE SMOOTH",
"145 490 OFFCURVE",
"142 490 QCURVE SMOOTH",
"134 490 OFFCURVE",
"122 481 OFFCURVE",
"120 472 OFFCURVE",
"120 470 QCURVE",
"120 464 OFFCURVE",
"129 449 OFFCURVE",
"140 447 QCURVE"
);
}
);
width = 316;
}
);
unicode = 00AA;
},
{
glyphname = guillemotleft;
layers = (
{
layerId = "A2B16AE3-7741-4CE5-AF1B-C234A467F8D6";
paths = (
{
nodes = (
"336 160 OFFCURVE",
"322 161 OFFCURVE",
"315 163 QCURVE",
"307 164 OFFCURVE",
"264 180 OFFCURVE",
"231 194 QCURVE SMOOTH",
"200 207 OFFCURVE",
"159 225 OFFCURVE",
"148 229 QCURVE SMOOTH",
"116 242 OFFCURVE",
"50 282 OFFCURVE",
"33 308 QCURVE",
"28 319 OFFCURVE",
"23 349 OFFCURVE",
"23 357 QCURVE SMOOTH",
"23 360 LINE SMOOTH",
"23 365 OFFCURVE",
"24 376 OFFCURVE",
"26 382 QCURVE",
"24 381 LINE",
"29 418 OFFCURVE",
"54 458 OFFCURVE",
"74 471 QCURVE",
"73 471 LINE",
"81 477 OFFCURVE",
"110 493 OFFCURVE",
"127 502 QCURVE",
"128 502 LINE",
"128 502 OFFCURVE",
"128 502 QCURVE",
"129 503 LINE",
"129 503 OFFCURVE",
"130 503 QCURVE",
"132 504 LINE",
"132 505 OFFCURVE",
"133 505 QCURVE",
"134 506 LINE",
"134 506 OFFCURVE",
"135 506 QCURVE",
"136 506 LINE",
"136 507 OFFCURVE",
"137 507 QCURVE",
"138 507 OFFCURVE",
"138 508 QCURVE",
"139 508 LINE",
"140 509 OFFCURVE",
"142 509 QCURVE",
"143 510 LINE",
"144 510 OFFCURVE",
"144 511 QCURVE",
"145 511 LINE",
"147 512 OFFCURVE",
"149 513 QCURVE",
"150 513 LINE",
"152 515 OFFCURVE",
"155 516 QCURVE SMOOTH",
"175 526 OFFCURVE",
"207 543 QCURVE SMOOTH",
"240 560 OFFCURVE",
"282 581 OFFCURVE",
"290 584 QCURVE SMOOTH",
"304 588 OFFCURVE",
"323 591 QCURVE SMOOTH",
"328 592 OFFCURVE",
"333 592 QCURVE SMOOTH",
"345 592 OFFCURVE",
"354 588 QCURVE",
"353 588 LINE",
"365 583 OFFCURVE",
"380 565 OFFCURVE",
"387 542 OFFCURVE",
"389 517 OFFCURVE",
"389 507 QCURVE SMOOTH",
"389 480 OFFCURVE",
"356 449 OFFCURVE",
"333 437 QCURVE",
"334 437 LINE",
"261 398 LINE",
"262 399 LINE",
"214 373 LINE",
"215 372 LINE",
"225 366 OFFCURVE",
"276 340 QCURVE",
"285 336 LINE",
"314 320 OFFCURVE",
"350 299 OFFCURVE",
"357 291 QCURVE",
"369 280 OFFCURVE",
"377 263 QCURVE SMOOTH",
"380 255 OFFCURVE",
"384 240 OFFCURVE",
"384 230 QCURVE",
"383 219 OFFCURVE",
"376 195 OFFCURVE",
"365 174 OFFCURVE",
"350 160 OFFCURVE",
"341 160 QCURVE SMOOTH"
);
},
{
nodes = (
"722 147 OFFCURVE",
"708 148 OFFCURVE",
"701 150 QCURVE",
"693 151 OFFCURVE",
"650 167 OFFCURVE",
"617 181 QCURVE SMOOTH",
"586 194 OFFCURVE",
"545 212 OFFCURVE",
"534 216 QCURVE SMOOTH",
"502 229 OFFCURVE",
"436 269 OFFCURVE",
"419 295 QCURVE",
"414 306 OFFCURVE",
"409 336 OFFCURVE",
"409 344 QCURVE SMOOTH",
"409 347 LINE SMOOTH",
"409 352 OFFCURVE",
"410 363 OFFCURVE",
"412 369 QCURVE",
"410 368 LINE",
"415 405 OFFCURVE",
"440 445 OFFCURVE",
"460 458 QCURVE",
"459 458 LINE",
"467 464 OFFCURVE",
"496 480 OFFCURVE",
"513 489 QCURVE",
"514 489 LINE",
"514 489 OFFCURVE",
"514 489 QCURVE",
"515 490 LINE",
"515 490 OFFCURVE",
"516 490 QCURVE",
"518 491 LINE",
"518 492 OFFCURVE",
"519 492 QCURVE",
"520 493 LINE",
"521 493 OFFCURVE",
"523 494 QCURVE",
"524 494 OFFCURVE",
"524 495 QCURVE",
"525 495 LINE",
"526 496 OFFCURVE",
"528 496 QCURVE",
"529 497 LINE",
"530 497 OFFCURVE",
"530 498 QCURVE",
"531 498 LINE",
"533 499 OFFCURVE",
"535 500 QCURVE",
"536 500 LINE",
"538 502 OFFCURVE",
"541 503 QCURVE SMOOTH",
"561 513 OFFCURVE",
"593 530 QCURVE SMOOTH",
"626 547 OFFCURVE",
"668 568 OFFCURVE",
"676 571 QCURVE SMOOTH",
"690 575 OFFCURVE",
"709 578 QCURVE SMOOTH",
"714 579 OFFCURVE",
"719 579 QCURVE SMOOTH",
"731 579 OFFCURVE",
"740 575 QCURVE",
"739 575 LINE",
"751 570 OFFCURVE",
"766 552 OFFCURVE",
"773 529 OFFCURVE",
"775 504 OFFCURVE",
"775 494 QCURVE SMOOTH",
"775 467 OFFCURVE",
"742 436 OFFCURVE",
"719 424 QCURVE",
"720 424 LINE",
"647 385 LINE",
"648 386 LINE",
"600 360 LINE",
"601 359 LINE",
"611 353 OFFCURVE",
"662 327 QCURVE",
"671 323 LINE",
"700 307 OFFCURVE",
"736 286 OFFCURVE",
"743 278 QCURVE",
"755 267 OFFCURVE",
"763 250 QCURVE SMOOTH",
"766 242 OFFCURVE",
"770 227 OFFCURVE",
"770 217 QCURVE",
"769 206 OFFCURVE",
"762 182 OFFCURVE",
"751 161 OFFCURVE",
"736 147 OFFCURVE",
"727 147 QCURVE SMOOTH"
);
}
);
width = 804;
}
);
unicode = 00AB;
},
{
glyphname = uni00AD;
layers = (
{
layerId = "A2B16AE3-7741-4CE5-AF1B-C234A467F8D6";
paths = (
{
nodes = (
"284 238 OFFCURVE",
"165 237 OFFCURVE",
"159 237 QCURVE SMOOTH",
"56 237 OFFCURVE",
"27 272 OFFCURVE",
"20 299 OFFCURVE",
"20 308 QCURVE SMOOTH",
"20 317 OFFCURVE",
"22 325 QCURVE SMOOTH",
"25 339 OFFCURVE",
"41 366 OFFCURVE",
"66 383 OFFCURVE",
"165 383 QCURVE SMOOTH",
"171 383 OFFCURVE",
"287 382 OFFCURVE",
"307 376 QCURVE",
"323 374 OFFCURVE",
"343 356 OFFCURVE",
"352 330 OFFCURVE",
"352 317 QCURVE",
"352 315 OFFCURVE",
"351 296 OFFCURVE",
"340 267 OFFCURVE",
"320 246 OFFCURVE",
"307 244 QCURVE"
);
}
);
width = 366;
}
);
unicode = 00AD;
},
{
glyphname = registered;
layers = (
{
layerId = "A2B16AE3-7741-4CE5-AF1B-C234A467F8D6";
paths = (
{
nodes = (
"28 507 OFFCURVE",
"59 588 OFFCURVE",
"117 647 OFFCURVE",
"200 682 OFFCURVE",
"253 682 QCURVE SMOOTH",
"372 682 OFFCURVE",
"481 572 OFFCURVE",
"490 462 QCURVE",
"490 423 OFFCURVE",
"468 342 OFFCURVE",
"408 280 OFFCURVE",
"328 236 OFFCURVE",
"261 235 QCURVE",
"252 235 OFFCURVE",
"243 235 QCURVE SMOOTH",
"190 235 OFFCURVE",
"107 268 OFFCURVE",
"53 333 OFFCURVE",
"28 418 OFFCURVE",
"28 463 QCURVE SMOOTH"
);
},
{
nodes = (
"362 303 OFFCURVE",
"424 404 OFFCURVE",
"424 467 QCURVE SMOOTH",
"424 471 OFFCURVE",
"422 544 OFFCURVE",
"318 614 OFFCURVE",
"237 614 QCURVE SMOOTH",
"157 614 OFFCURVE",
"94 526 OFFCURVE",
"94 474 QCURVE SMOOTH",
"94 446 OFFCURVE",
"104 385 OFFCURVE",
"136 335 OFFCURVE",
"197 303 OFFCURVE",
"249 303 QCURVE SMOOTH"
);
},
{
nodes = (
"162 484 LINE",
"162 484 OFFCURVE",
"162 485 QCURVE",
"162 486 LINE",
"162 487 OFFCURVE",
"162 488 QCURVE",
"162 488 OFFCURVE",
"162 489 QCURVE",
"162 489 OFFCURVE",
"162 490 QCURVE",
"162 498 LINE SMOOTH",
"162 505 OFFCURVE",
"161 512 QCURVE",
"161 532 LINE SMOOTH",
"161 549 OFFCURVE",
"166 573 OFFCURVE",
"185 588 OFFCURVE",
"217 593 OFFCURVE",
"237 593 QCURVE SMOOTH",
"244 593 OFFCURVE",
"252 593 QCURVE",
"300 592 OFFCURVE",
"356 546 OFFCURVE",
"356 514 QCURVE SMOOTH",
"356 497 OFFCURVE",
"337 462 OFFCURVE",
"316 447 QCURVE",
"318 443 OFFCURVE",
"325 433 OFFCURVE",
"329 426 QCURVE",
"342 408 OFFCURVE",
"359 376 OFFCURVE",
"359 368 QCURVE SMOOTH",
"359 362 OFFCURVE",
"356 358 QCURVE SMOOTH",
"338 339 OFFCURVE",
"321 339 QCURVE SMOOTH",
"302 339 OFFCURVE",
"268 382 OFFCURVE",
"248 415 QCURVE",
"248 408 LINE",
"245 388 LINE",
"231 353 OFFCURVE",
"209 338 OFFCURVE",
"202 338 QCURVE SMOOTH",
"196 338 OFFCURVE",
"178 351 OFFCURVE",
"162 399 OFFCURVE",
"162 433 QCURVE SMOOTH"
);
},
{
nodes = (
"274 527 OFFCURVE",
"251 531 OFFCURVE",
"242 531 QCURVE",
"243 491 LINE",
"245 491 OFFCURVE",
"247 491 QCURVE",
"249 491 OFFCURVE",
"259 493 OFFCURVE",
"270 499 OFFCURVE",
"276 508 OFFCURVE",
"276 512 QCURVE",
"276 514 OFFCURVE",
"276 515 QCURVE"
);
}
);
width = 511;
}
);
unicode = 00AE;
},
{
glyphname = macron;
layers = (
{
layerId = "A2B16AE3-7741-4CE5-AF1B-C234A467F8D6";
paths = (
{
nodes = (
"305 725 OFFCURVE",
"186 724 OFFCURVE",
"180 724 QCURVE SMOOTH",
"77 724 OFFCURVE",
"48 759 OFFCURVE",
"41 786 OFFCURVE",
"41 795 QCURVE SMOOTH",
"41 804 OFFCURVE",
"43 812 QCURVE SMOOTH",
"46 826 OFFCURVE",
"62 853 OFFCURVE",
"87 870 OFFCURVE",
"186 870 QCURVE SMOOTH",
"192 870 OFFCURVE",
"308 869 OFFCURVE",
"328 863 QCURVE",
"344 861 OFFCURVE",
"364 843 OFFCURVE",
"373 817 OFFCURVE",
"373 804 QCURVE",
"373 802 OFFCURVE",
"372 783 OFFCURVE",
"361 754 OFFCURVE",
"341 733 OFFCURVE",
"328 731 QCURVE"
);
}
);
width = 404;
}
);
unicode = 00AF;
},
{
glyphname = degree;
layers = (
{
layerId = "A2B16AE3-7741-4CE5-AF1B-C234A467F8D6";
paths = (
{
nodes = (
"43 566 OFFCURVE",
"61 620 OFFCURVE",
"94 659 OFFCURVE",
"144 682 OFFCURVE",
"176 682 QCURVE SMOOTH",
"246 682 OFFCURVE",
"309 609 OFFCURVE",
"309 542 QCURVE SMOOTH",
"309 516 OFFCURVE",
"296 463 OFFCURVE",
"267 418 OFFCURVE",
"218 389 OFFCURVE",
"180 387 QCURVE",
"174 387 OFFCURVE",
"169 387 QCURVE SMOOTH",
"138 387 OFFCURVE",
"89 408 OFFCURVE",
"56 451 OFFCURVE",
"43 508 OFFCURVE",
"43 537 QCURVE SMOOTH"
);
},
{
nodes = (
"194 487 OFFCURVE",
"205 518 OFFCURVE",
"205 539 QCURVE SMOOTH",
"205 555 OFFCURVE",
"185 580 OFFCURVE",
"171 580 QCURVE SMOOTH",
"157 580 OFFCURVE",
"146 553 OFFCURVE",
"146 538 QCURVE SMOOTH",
"146 529 OFFCURVE",
"147 512 OFFCURVE",
"153 497 OFFCURVE",
"164 487 OFFCURVE",
"173 487 QCURVE SMOOTH"
);
}
);
width = 341;
}
);
unicode = 00B0;
},
{
glyphname = plusminus;
layers = (
{
layerId = "A2B16AE3-7741-4CE5-AF1B-C234A467F8D6";
paths = (
{
nodes = (
"393 502 OFFCURVE",
"414 465 OFFCURVE",
"414 443 QCURVE",
"414 441 OFFCURVE",
"413 416 OFFCURVE",
"389 375 OFFCURVE",
"369 372 QCURVE",
"353 368 OFFCURVE",
"286 367 QCURVE",
"284 299 OFFCURVE",
"280 286 QCURVE",
"278 262 OFFCURVE",
"241 241 OFFCURVE",
"219 241 QCURVE",
"217 241 OFFCURVE",
"192 242 OFFCURVE",
"151 266 OFFCURVE",
"148 286 QCURVE",
"146 294 OFFCURVE",
"144 334 OFFCURVE",
"143 366 QCURVE",
"55 369 OFFCURVE",
"43 382 QCURVE",
"21 410 OFFCURVE",
"21 436 QCURVE SMOOTH",
"21 445 OFFCURVE",
"23 453 QCURVE SMOOTH",
"26 467 OFFCURVE",
"42 494 OFFCURVE",
"55 502 QCURVE SMOOTH",
"66 510 OFFCURVE",
"142 510 QCURVE",
"143 601 OFFCURVE",
"158 612 QCURVE",
"186 635 OFFCURVE",
"212 635 QCURVE SMOOTH",
"221 635 OFFCURVE",
"229 632 QCURVE",
"243 629 OFFCURVE",
"270 613 OFFCURVE",
"278 600 QCURVE",
"286 590 OFFCURVE",
"286 510 QCURVE",
"357 508 OFFCURVE",
"369 504 QCURVE"
);
},
{
nodes = (
"324 65 OFFCURVE",
"187 64 OFFCURVE",
"181 64 QCURVE SMOOTH",
"63 64 OFFCURVE",
"34 99 OFFCURVE",
"27 126 OFFCURVE",
"27 135 QCURVE SMOOTH",
"27 144 OFFCURVE",
"29 152 QCURVE SMOOTH",
"32 166 OFFCURVE",
"48 193 OFFCURVE",
"73 210 OFFCURVE",
"187 210 QCURVE SMOOTH",
"193 210 OFFCURVE",
"327 209 OFFCURVE",
"347 203 QCURVE",
"363 201 OFFCURVE",
"383 183 OFFCURVE",
"392 157 OFFCURVE",
"392 144 QCURVE",
"392 142 OFFCURVE",
"391 123 OFFCURVE",
"380 94 OFFCURVE",
"360 73 OFFCURVE",
"347 71 QCURVE"
);
}
);
width = 433;
}
);
unicode = 00B1;
},
{
glyphname = acute;
layers = (
{
layerId = "A2B16AE3-7741-4CE5-AF1B-C234A467F8D6";
paths = (
{
nodes = (
"176 927 OFFCURVE",
"188 927 QCURVE",
"190 927 OFFCURVE",
"206 926 OFFCURVE",
"232 913 OFFCURVE",
"257 891 OFFCURVE",
"270 866 OFFCURVE",
"270 855 QCURVE",
"270 853 OFFCURVE",
"269 839 OFFCURVE",
"248 809 OFFCURVE",
"147 736 OFFCURVE",
"125 733 OFFCURVE",
"120 733 QCURVE SMOOTH",
"110 733 OFFCURVE",
"85 740 OFFCURVE",
"73 748 QCURVE",
"58 756 OFFCURVE",
"39 790 OFFCURVE",
"37 813 OFFCURVE",
"37 813 QCURVE",
"37 835 OFFCURVE",
"127 903 OFFCURVE",
"165 921 QCURVE SMOOTH"
);
}
);
width = 292;
}
);
unicode = 00B4;
},
{
glyphname = paragraph;
layers = (
{
layerId = "A2B16AE3-7741-4CE5-AF1B-C234A467F8D6";
paths = (
{
nodes = (
"612 563 OFFCURVE",
"549 561 QCURVE",
"550 556 OFFCURVE",
"550 551 QCURVE",
"552 533 OFFCURVE",
"552 517 QCURVE SMOOTH",
"552 364 LINE SMOOTH",
"552 311 OFFCURVE",
"551 24 OFFCURVE",
"551 -28 QCURVE SMOOTH",
"551 -49 LINE SMOOTH",
"551 -60 OFFCURVE",
"548 -81 OFFCURVE",
"540 -100 OFFCURVE",
"531 -108 QCURVE",
"530 -109 LINE",
"523 -112 OFFCURVE",
"502 -118 OFFCURVE",
"489 -119 OFFCURVE",
"487 -119 QCURVE",
"478 -119 OFFCURVE",
"460 -114 OFFCURVE",
"454 -106 QCURVE SMOOTH",
"447 -97 OFFCURVE",
"438 -53 OFFCURVE",
"433 5 OFFCURVE",
"431 71 OFFCURVE",
"431 317 OFFCURVE",
"432 496 OFFCURVE",
"432 510 QCURVE SMOOTH",
"432 560 LINE",
"322 560 LINE",
"323 556 OFFCURVE",
"323 551 QCURVE",
"325 533 OFFCURVE",
"325 517 QCURVE SMOOTH",
"325 364 LINE SMOOTH",
"325 311 OFFCURVE",
"323 24 OFFCURVE",
"323 -28 QCURVE SMOOTH",
"323 -49 LINE SMOOTH",
"323 -60 OFFCURVE",
"321 -81 OFFCURVE",
"313 -100 OFFCURVE",
"304 -108 QCURVE",
"302 -109 LINE SMOOTH",
"295 -112 OFFCURVE",
"274 -118 OFFCURVE",
"262 -119 OFFCURVE",
"260 -119 QCURVE",
"251 -119 OFFCURVE",
"233 -114 OFFCURVE",
"226 -106 QCURVE SMOOTH",
"219 -97 OFFCURVE",
"211 -53 OFFCURVE",
"205 5 OFFCURVE",
"204 71 OFFCURVE",
"204 221 QCURVE SMOOTH",
"204 367 LINE",
"98 374 OFFCURVE",
"66 400 QCURVE SMOOTH",
"20 437 OFFCURVE",
"20 518 QCURVE SMOOTH",
"20 544 OFFCURVE",
"35 590 OFFCURVE",
"61 626 OFFCURVE",
"97 651 OFFCURVE",
"119 655 QCURVE SMOOTH",
"135 658 OFFCURVE",
"163 662 OFFCURVE",
"180 663 OFFCURVE",
"185 663 QCURVE SMOOTH",
"194 663 OFFCURVE",
"203 662 QCURVE",
"203 662 OFFCURVE",
"204 662 QCURVE",
"205 662 OFFCURVE",
"206 662 QCURVE",
"208 662 LINE",
"208 662 OFFCURVE",
"209 662 QCURVE",
"210 662 OFFCURVE",
"210 662 QCURVE",
"229 662 LINE",
"230 662 OFFCURVE",
"231 662 QCURVE",
"234 662 LINE SMOOTH",
"239 662 OFFCURVE",
"244 662 QCURVE SMOOTH",
"254 662 LINE",
"256 662 OFFCURVE",
"258 662 QCURVE",
"262 662 LINE",
"264 662 OFFCURVE",
"266 662 QCURVE",
"386 662 LINE SMOOTH",
"606 662 OFFCURVE",
"620 658 QCURVE",
"632 657 OFFCURVE",
"646 644 OFFCURVE",
"653 626 OFFCURVE",
"653 617 QCURVE",
"653 615 OFFCURVE",
"652 602 OFFCURVE",
"644 581 OFFCURVE",
"630 566 OFFCURVE",
"620 565 QCURVE"
);
}
);
width = 695;
}
);
unicode = 00B6;
},
{
glyphname = periodcentered;
layers = (
{
layerId = "A2B16AE3-7741-4CE5-AF1B-C234A467F8D6";
paths = (
{
nodes = (
"144 292 OFFCURVE",
"129 292 QCURVE SMOOTH",
"113 292 OFFCURVE",
"73 304 OFFCURVE",
"40 336 OFFCURVE",
"30 369 OFFCURVE",
"30 380 QCURVE SMOOTH",
"30 392 OFFCURVE",
"34 403 QCURVE",
"37 421 OFFCURVE",
"57 454 OFFCURVE",
"88 475 OFFCURVE",
"118 481 OFFCURVE",
"127 481 QCURVE SMOOTH",
"142 481 OFFCURVE",
"158 477 QCURVE",
"182 475 OFFCURVE",
"210 450 OFFCURVE",
"223 413 OFFCURVE",
"223 394 QCURVE SMOOTH",
"223 391 OFFCURVE",
"222 366 OFFCURVE",
"206 326 OFFCURVE",
"179 298 OFFCURVE",
"160 295 QCURVE SMOOTH"
);
}
);
width = 259;
}
);
unicode = 00B7;
},
{
glyphname = cedilla;
layers = (
{
layerId = "A2B16AE3-7741-4CE5-AF1B-C234A467F8D6";
paths = (
{
nodes = (
"140 -168 OFFCURVE",
"157 -159 OFFCURVE",
"167 -159 QCURVE SMOOTH",
"172 -159 OFFCURVE",
"181 -160 OFFCURVE",
"186 -161 QCURVE",
"187 -161 LINE",
"188 -161 OFFCURVE",
"188 -161 QCURVE",
"188 -161 OFFCURVE",
"189 -161 QCURVE",
"193 -161 LINE SMOOTH",
"197 -161 OFFCURVE",
"199 -162 QCURVE SMOOTH",
"203 -163 OFFCURVE",
"208 -163 QCURVE SMOOTH",
"214 -163 OFFCURVE",
"233 -159 OFFCURVE",
"246 -153 QCURVE",
"250 -145 OFFCURVE",
"250 -137 QCURVE SMOOTH",
"250 -129 OFFCURVE",
"243 -112 OFFCURVE",
"238 -110 QCURVE",
"238 -111 LINE",
"231 -107 OFFCURVE",
"205 -106 OFFCURVE",
"198 -106 QCURVE",
"197 -106 OFFCURVE",
"196 -106 QCURVE",
"195 -106 OFFCURVE",
"193 -106 QCURVE",
"192 -106 OFFCURVE",
"192 -106 QCURVE",
"190 -106 LINE",
"190 -106 OFFCURVE",
"190 -106 QCURVE",
"182 -106 LINE SMOOTH",
"172 -106 OFFCURVE",
"166 -105 QCURVE SMOOTH",
"149 -103 OFFCURVE",
"131 -72 OFFCURVE",
"131 -58 QCURVE SMOOTH",
"131 -52 LINE SMOOTH",
"131 -41 OFFCURVE",
"129 -9 OFFCURVE",
"129 10 QCURVE SMOOTH",
"129 34 LINE",
"228 34 LINE",
"229 3 LINE",
"229 -16 LINE",
"236 -16 LINE SMOOTH",
"266 -16 OFFCURVE",
"311 -35 OFFCURVE",
"341 -66 OFFCURVE",
"356 -106 OFFCURVE",
"356 -128 QCURVE SMOOTH",
"356 -152 OFFCURVE",
"339 -199 OFFCURVE",
"304 -236 OFFCURVE",
"254 -259 OFFCURVE",
"221 -259 QCURVE SMOOTH",
"218 -259 LINE",
"218 -259 OFFCURVE",
"218 -259 QCURVE",
"217 -259 OFFCURVE",
"217 -259 QCURVE",
"216 -259 LINE",
"216 -259 OFFCURVE",
"215 -259 QCURVE",
"215 -259 OFFCURVE",
"215 -259 QCURVE",
"209 -259 LINE SMOOTH",
"203 -259 OFFCURVE",
"198 -258 QCURVE SMOOTH",
"166 -253 OFFCURVE",
"128 -236 OFFCURVE",
"128 -208 QCURVE SMOOTH",
"128 -197 OFFCURVE",
"133 -180 QCURVE"
);
}
);
width = 386;
}
);
unicode = 00B8;
},
{
glyphname = ordmasculine;
layers = (
{
layerId = "A2B16AE3-7741-4CE5-AF1B-C234A467F8D6";
paths = (
{
nodes = (
"28 553 OFFCURVE",
"45 609 OFFCURVE",
"77 650 OFFCURVE",
"124 675 OFFCURVE",
"154 675 QCURVE SMOOTH",
"222 675 OFFCURVE",
"283 598 OFFCURVE",
"283 528 QCURVE SMOOTH",
"283 501 OFFCURVE",
"271 444 OFFCURVE",
"242 398 OFFCURVE",
"194 366 OFFCURVE",
"159 364 QCURVE",
"154 364 OFFCURVE",
"149 364 QCURVE SMOOTH",
"118 364 OFFCURVE",
"71 387 OFFCURVE",
"41 432 OFFCURVE",
"28 491 OFFCURVE",
"28 523 QCURVE SMOOTH"
);
},
{
nodes = (
"173 472 OFFCURVE",
"185 506 OFFCURVE",
"185 530 QCURVE SMOOTH",
"185 548 OFFCURVE",
"165 576 OFFCURVE",
"150 576 QCURVE SMOOTH",
"135 576 OFFCURVE",
"124 546 OFFCURVE",
"124 529 QCURVE SMOOTH",
"124 519 OFFCURVE",
"125 499 OFFCURVE",
"132 483 OFFCURVE",
"143 472 OFFCURVE",
"152 472 QCURVE SMOOTH"
);
}
);
width = 313;
}
);
unicode = 00BA;
},
{
glyphname = guillemotright;
layers = (
{
layerId = "A2B16AE3-7741-4CE5-AF1B-C234A467F8D6";
paths = (
{
nodes = (
"79 578 OFFCURVE",
"93 577 OFFCURVE",
"100 575 QCURVE",
"108 574 OFFCURVE",
"151 558 OFFCURVE",
"184 544 QCURVE SMOOTH",
"215 531 OFFCURVE",
"256 513 OFFCURVE",
"267 509 QCURVE SMOOTH",
"299 496 OFFCURVE",
"365 456 OFFCURVE",
"382 430 QCURVE",
"387 419 OFFCURVE",
"392 389 OFFCURVE",
"392 381 QCURVE SMOOTH",
"392 378 LINE SMOOTH",
"392 373 OFFCURVE",
"391 362 OFFCURVE",
"389 356 QCURVE",
"391 357 LINE",
"386 320 OFFCURVE",
"361 280 OFFCURVE",
"341 267 QCURVE",
"342 267 LINE",
"334 261 OFFCURVE",
"305 245 OFFCURVE",
"288 236 QCURVE",
"288 236 OFFCURVE",
"287 236 QCURVE",
"286 235 LINE",
"286 235 OFFCURVE",
"285 235 QCURVE",
"285 234 LINE",
"284 234 OFFCURVE",
"284 234 QCURVE",
"283 234 LINE",
"283 233 OFFCURVE",
"282 233 QCURVE",
"281 232 LINE",
"280 232 OFFCURVE",
"278 231 QCURVE",
"277 231 OFFCURVE",
"277 230 QCURVE",
"276 230 LINE",
"275 229 OFFCURVE",
"273 229 QCURVE",
"272 228 LINE",
"271 228 OFFCURVE",
"271 227 QCURVE",
"270 227 LINE",
"268 226 OFFCURVE",
"266 225 QCURVE",
"265 225 LINE",
"263 224 OFFCURVE",
"261 223 QCURVE",
"260 222 LINE",
"240 212 OFFCURVE",
"208 195 QCURVE SMOOTH",
"175 178 OFFCURVE",
"133 157 OFFCURVE",
"125 154 QCURVE SMOOTH",
"111 150 OFFCURVE",
"92 147 QCURVE SMOOTH",
"87 146 OFFCURVE",
"82 146 QCURVE SMOOTH",
"70 146 OFFCURVE",
"61 150 QCURVE",
"62 150 LINE",
"50 154 OFFCURVE",
"35 173 OFFCURVE",
"28 196 OFFCURVE",
"26 221 OFFCURVE",
"26 231 QCURVE SMOOTH",
"26 258 OFFCURVE",
"59 289 OFFCURVE",
"82 301 QCURVE",
"81 301 LINE",
"154 340 LINE",
"153 339 LINE",
"201 365 LINE",
"200 366 LINE",
"190 372 OFFCURVE",
"139 398 QCURVE",
"130 402 LINE",
"101 418 OFFCURVE",
"65 439 OFFCURVE",
"58 447 QCURVE",
"46 458 OFFCURVE",
"38 475 QCURVE SMOOTH",
"35 483 OFFCURVE",
"31 498 OFFCURVE",
"31 508 QCURVE",
"32 519 OFFCURVE",
"39 543 OFFCURVE",
"50 564 OFFCURVE",
"65 578 OFFCURVE",
"74 578 QCURVE SMOOTH"
);
},
{
nodes = (
"465 565 OFFCURVE",
"479 564 OFFCURVE",
"486 562 QCURVE",
"494 561 OFFCURVE",
"537 545 OFFCURVE",
"570 531 QCURVE SMOOTH",
"601 518 OFFCURVE",
"642 500 OFFCURVE",
"653 496 QCURVE SMOOTH",
"685 483 OFFCURVE",
"751 443 OFFCURVE",
"768 417 QCURVE",
"773 406 OFFCURVE",
"778 376 OFFCURVE",
"778 368 QCURVE SMOOTH",
"778 365 LINE SMOOTH",
"778 360 OFFCURVE",
"777 349 OFFCURVE",
"775 343 QCURVE",
"777 344 LINE",
"772 307 OFFCURVE",
"747 267 OFFCURVE",
"727 254 QCURVE",
"728 254 LINE",
"720 248 OFFCURVE",
"691 232 OFFCURVE",
"674 223 QCURVE",
"674 223 OFFCURVE",
"673 223 QCURVE",
"672 222 LINE",
"672 222 OFFCURVE",
"671 222 QCURVE",
"671 221 LINE",
"670 221 OFFCURVE",
"670 221 QCURVE",
"669 221 LINE",
"669 220 OFFCURVE",
"668 220 QCURVE",
"667 219 LINE",
"666 219 OFFCURVE",
"664 218 QCURVE",
"663 218 OFFCURVE",
"663 217 QCURVE",
"662 217 LINE",
"661 216 OFFCURVE",
"659 216 QCURVE",
"658 215 LINE",
"657 215 OFFCURVE",
"657 214 QCURVE",
"656 214 LINE",
"654 213 OFFCURVE",
"652 212 QCURVE",
"651 212 LINE",
"649 211 OFFCURVE",
"647 210 QCURVE",
"646 209 LINE",
"626 199 OFFCURVE",
"594 182 QCURVE SMOOTH",
"561 165 OFFCURVE",
"519 144 OFFCURVE",
"511 141 QCURVE SMOOTH",
"497 137 OFFCURVE",
"478 134 QCURVE SMOOTH",
"473 133 OFFCURVE",
"468 133 QCURVE SMOOTH",
"456 133 OFFCURVE",
"447 137 QCURVE",
"448 137 LINE",
"436 141 OFFCURVE",
"421 160 OFFCURVE",
"414 183 OFFCURVE",
"412 208 OFFCURVE",
"412 218 QCURVE SMOOTH",
"412 245 OFFCURVE",
"445 276 OFFCURVE",
"468 288 QCURVE",
"467 288 LINE",
"540 327 LINE",
"539 326 LINE",
"587 352 LINE",
"586 353 LINE",
"576 359 OFFCURVE",
"525 385 QCURVE",
"516 389 LINE",
"487 405 OFFCURVE",
"451 426 OFFCURVE",
"444 434 QCURVE",
"432 445 OFFCURVE",
"424 462 QCURVE SMOOTH",
"421 470 OFFCURVE",
"417 485 OFFCURVE",
"417 495 QCURVE",
"418 506 OFFCURVE",
"425 530 OFFCURVE",
"436 551 OFFCURVE",
"451 565 OFFCURVE",
"460 565 QCURVE SMOOTH"
);
}
);
width = 804;
}
);
unicode = 00BB;
},
{
glyphname = questiondown;
layers = (
{
layerId = "A2B16AE3-7741-4CE5-AF1B-C234A467F8D6";
paths = (
{
nodes = (
"221 680 OFFCURVE",
"232 680 QCURVE SMOOTH",
"243 680 OFFCURVE",
"274 671 OFFCURVE",
"304 645 OFFCURVE",
"316 616 OFFCURVE",
"316 605 QCURVE SMOOTH",
"316 597 OFFCURVE",
"313 588 QCURVE",
"310 572 OFFCURVE",
"287 548 OFFCURVE",
"257 534 OFFCURVE",
"236 532 OFFCURVE",
"233 532 QCURVE SMOOTH",
"219 532 OFFCURVE",
"206 537 QCURVE",
"176 540 OFFCURVE",
"153 577 OFFCURVE",
"153 596 QCURVE SMOOTH",
"153 600 OFFCURVE",
"156 628 OFFCURVE",
"186 671 OFFCURVE",
"210 677 QCURVE SMOOTH"
);
},
{
nodes = (
"224 510 OFFCURVE",
"231 510 QCURVE SMOOTH",
"239 510 OFFCURVE",
"263 505 OFFCURVE",
"288 489 OFFCURVE",
"306 466 OFFCURVE",
"308 452 QCURVE",
"315 427 OFFCURVE",
"315 404 QCURVE SMOOTH",
"315 370 OFFCURVE",
"276 283 OFFCURVE",
"225 248 QCURVE",
"218 239 OFFCURVE",
"203 232 OFFCURVE",
"191 227 OFFCURVE",
"183 218 OFFCURVE",
"181 206 QCURVE",
"178 200 OFFCURVE",
"178 194 QCURVE SMOOTH",
"178 188 OFFCURVE",
"185 172 OFFCURVE",
"203 157 OFFCURVE",
"217 155 OFFCURVE",
"219 155 QCURVE",
"228 155 OFFCURVE",
"236 162 QCURVE SMOOTH",
"248 171 OFFCURVE",
"262 189 OFFCURVE",
"273 208 OFFCURVE",
"284 229 OFFCURVE",
"291 241 QCURVE",
"307 256 OFFCURVE",
"334 258 OFFCURVE",
"339 258 QCURVE SMOOTH",
"356 258 OFFCURVE",
"392 246 OFFCURVE",
"421 216 OFFCURVE",
"422 196 QCURVE",
"422 193 OFFCURVE",
"422 191 QCURVE",
"422 167 OFFCURVE",
"405 121 OFFCURVE",
"372 79 OFFCURVE",
"328 45 OFFCURVE",
"304 33 QCURVE",
"270 20 OFFCURVE",
"216 11 OFFCURVE",
"196 11 QCURVE SMOOTH",
"183 11 OFFCURVE",
"138 16 OFFCURVE",
"74 46 OFFCURVE",
"44 75 QCURVE",
"23 102 OFFCURVE",
"15 154 OFFCURVE",
"15 168 QCURVE SMOOTH",
"15 193 OFFCURVE",
"32 259 OFFCURVE",
"88 338 OFFCURVE",
"134 368 QCURVE",
"159 386 OFFCURVE",
"171 431 OFFCURVE",
"177 472 OFFCURVE",
"190 504 OFFCURVE",
"217 509 QCURVE SMOOTH"
);
}
);
width = 436;
}
);
unicode = 00BF;
},
{
glyphname = Eth;
layers = (
{
layerId = "A2B16AE3-7741-4CE5-AF1B-C234A467F8D6";
paths = (
{
nodes = (
"525 221 OFFCURVE",
"466 107 OFFCURVE",
"385 44 OFFCURVE",
"287 19 OFFCURVE",
"239 15 QCURVE",
"217 15 OFFCURVE",
"190 14 OFFCURVE",
"186 14 QCURVE SMOOTH",
"169 14 OFFCURVE",
"138 21 OFFCURVE",
"121 42 OFFCURVE",
"121 60 QCURVE SMOOTH",
"121 66 OFFCURVE",
"122 72 QCURVE",
"118 90 OFFCURVE",
"115 163 OFFCURVE",
"115 222 QCURVE SMOOTH",
"115 245 OFFCURVE",
"115 272 QCURVE",
"55 275 OFFCURVE",
"44 288 QCURVE SMOOTH",
"29 306 OFFCURVE",
"22 333 OFFCURVE",
"22 342 QCURVE SMOOTH",
"22 351 OFFCURVE",
"24 359 QCURVE SMOOTH",
"27 373 OFFCURVE",
"43 400 OFFCURVE",
"56 409 QCURVE",
"65 414 OFFCURVE",
"116 416 QCURVE",
"116 482 OFFCURVE",
"116 563 QCURVE SMOOTH",
"116 589 OFFCURVE",
"118 634 OFFCURVE",
"130 665 OFFCURVE",
"154 681 OFFCURVE",
"173 681 QCURVE SMOOTH",
"176 681 OFFCURVE",
"178 681 QCURVE",
"203 683 OFFCURVE",
"227 683 QCURVE SMOOTH",
"299 683 OFFCURVE",
"425 639 OFFCURVE",
"511 538 OFFCURVE",
"537 420 OFFCURVE",
"537 368 QCURVE SMOOTH",
"537 341 OFFCURVE",
"534 313 QCURVE SMOOTH"
);
},
{
nodes = (
"375 345 OFFCURVE",
"375 348 QCURVE SMOOTH",
"375 398 OFFCURVE",
"345 469 OFFCURVE",
"306 509 OFFCURVE",
"283 515 OFFCURVE",
"279 515 QCURVE SMOOTH",
"272 515 OFFCURVE",
"271 509 QCURVE",
"271 414 LINE",
"300 413 OFFCURVE",
"309 410 QCURVE",
"325 408 OFFCURVE",
"345 390 OFFCURVE",
"354 364 OFFCURVE",
"354 351 QCURVE",
"354 349 OFFCURVE",
"353 330 OFFCURVE",
"342 301 OFFCURVE",
"322 280 OFFCURVE",
"309 278 QCURVE",
"299 275 OFFCURVE",
"271 274 QCURVE",
"271 189 LINE",
"284 189 OFFCURVE",
"320 209 OFFCURVE",
"352 248 OFFCURVE",
"374 305 OFFCURVE",
"375 342 QCURVE"
);
}
);
width = 566;
}
);
unicode = 00D0;
},
{
glyphname = multiply;
layers = (
{
layerId = "A2B16AE3-7741-4CE5-AF1B-C234A467F8D6";
paths = (
{
nodes = (
"354 229 OFFCURVE",
"354 215 QCURVE SMOOTH",
"354 208 OFFCURVE",
"345 181 OFFCURVE",
"310 150 OFFCURVE",
"279 142 OFFCURVE",
"272 142 QCURVE SMOOTH",
"259 142 OFFCURVE",
"248 150 QCURVE SMOOTH",
"243 154 OFFCURVE",
"212 182 OFFCURVE",
"187 207 QCURVE",
"139 162 OFFCURVE",
"125 155 QCURVE",
"111 144 OFFCURVE",
"97 144 QCURVE SMOOTH",
"91 144 OFFCURVE",
"63 152 OFFCURVE",
"32 187 OFFCURVE",
"25 217 OFFCURVE",
"25 223 QCURVE SMOOTH",
"25 237 OFFCURVE",
"33 249 QCURVE SMOOTH",
"42 262 OFFCURVE",
"87 309 QCURVE",
"29 371 OFFCURVE",
"29 391 QCURVE",
"29 391 OFFCURVE",
"29 392 QCURVE",
"33 438 OFFCURVE",
"66 455 QCURVE",
"79 463 OFFCURVE",
"101 468 OFFCURVE",
"108 468 QCURVE SMOOTH",
"116 468 OFFCURVE",
"124 466 QCURVE SMOOTH",
"136 464 OFFCURVE",
"190 409 QCURVE",
"253 469 OFFCURVE",
"273 469 QCURVE",
"273 469 OFFCURVE",
"274 469 QCURVE",
"322 463 OFFCURVE",
"338 432 QCURVE",
"346 419 OFFCURVE",
"351 397 OFFCURVE",
"351 390 QCURVE SMOOTH",
"351 382 OFFCURVE",
"349 374 QCURVE",
"347 360 OFFCURVE",
"290 306 QCURVE",
"339 252 OFFCURVE",
"343 242 QCURVE"
);
}
);
width = 380;
}
);
unicode = 00D7;
},
{
glyphname = Oslash;
layers = (
{
layerId = "A2B16AE3-7741-4CE5-AF1B-C234A467F8D6";
paths = (
{
nodes = (
"280 19 OFFCURVE",
"229 19 QCURVE SMOOTH",
"217 19 OFFCURVE",
"205 21 QCURVE SMOOTH",
"196 22 OFFCURVE",
"188 24 QCURVE",
"166 -62 OFFCURVE",
"161 -64 QCURVE SMOOTH",
"151 -67 OFFCURVE",
"134 -67 OFFCURVE",
"127 -64 QCURVE SMOOTH",
"122 -61 OFFCURVE",
"113 -52 OFFCURVE",
"111 -47 QCURVE",
"111 -47 OFFCURVE",
"111 -46 QCURVE",
"111 -36 OFFCURVE",
"129 47 QCURVE",
"118 54 OFFCURVE",
"108 63 QCURVE SMOOTH",
"69 96 OFFCURVE",
"29 201 OFFCURVE",
"24 258 QCURVE",
"20 293 OFFCURVE",
"20 327 QCURVE SMOOTH",
"20 350 OFFCURVE",
"26 430 OFFCURVE",
"37 497 QCURVE",
"37 499 LINE",
"43 518 OFFCURVE",
"56 557 OFFCURVE",
"76 593 OFFCURVE",
"105 625 OFFCURVE",
"126 637 QCURVE SMOOTH",
"166 660 OFFCURVE",
"213 668 QCURVE",
"230 670 OFFCURVE",
"248 670 QCURVE SMOOTH",
"261 670 OFFCURVE",
"274 669 QCURVE",
"292 742 OFFCURVE",
"294 745 QCURVE SMOOTH",
"297 751 OFFCURVE",
"308 756 OFFCURVE",
"316 757 OFFCURVE",
"317 757 QCURVE",
"322 757 OFFCURVE",
"335 753 OFFCURVE",
"346 745 OFFCURVE",
"352 737 OFFCURVE",
"352 733 QCURVE",
"352 732 OFFCURVE",
"352 731 QCURVE",
"352 727 OFFCURVE",
"335 649 QCURVE",
"349 641 OFFCURVE",
"362 631 QCURVE SMOOTH",
"388 610 OFFCURVE",
"408 580 QCURVE",
"408 579 LINE",
"427 542 OFFCURVE",
"453 444 OFFCURVE",
"460 360 OFFCURVE",
"460 329 QCURVE SMOOTH",
"460 305 OFFCURVE",
"455 227 OFFCURVE",
"428 133 OFFCURVE",
"381 61 OFFCURVE",
"346 45 QCURVE"
);
},
{
nodes = (
"186 294 OFFCURVE",
"199 349 QCURVE SMOOTH",
"221 447 OFFCURVE",
"239 521 QCURVE",
"238 521 OFFCURVE",
"238 521 QCURVE",
"212 520 OFFCURVE",
"181 474 OFFCURVE",
"165 411 OFFCURVE",
"163 366 OFFCURVE",
"163 356 QCURVE SMOOTH",
"163 337 OFFCURVE",
"165 322 QCURVE SMOOTH",
"168 295 OFFCURVE",
"172 262 QCURVE SMOOTH",
"173 254 OFFCURVE",
"175 246 QCURVE"
);
},
{
nodes = (
"296 219 OFFCURVE",
"309 278 OFFCURVE",
"315 345 OFFCURVE",
"315 377 QCURVE SMOOTH",
"315 382 OFFCURVE",
"314 425 OFFCURVE",
"306 455 QCURVE SMOOTH",
"302 470 OFFCURVE",
"296 481 QCURVE",
"281 415 OFFCURVE",
"242 247 OFFCURVE",
"226 181 QCURVE",
"233 179 OFFCURVE",
"241 179 QCURVE SMOOTH",
"266 179 OFFCURVE",
"290 205 QCURVE"
);
}
);
width = 474;
}
);
unicode = 00D8;
},
{
glyphname = Thorn;
layers = (
{
layerId = "A2B16AE3-7741-4CE5-AF1B-C234A467F8D6";
paths = (
{
nodes = (
"168 28 LINE SMOOTH",
"158 23 OFFCURVE",
"129 15 OFFCURVE",
"112 14 OFFCURVE",
"110 14 QCURVE",
"97 14 OFFCURVE",
"72 21 OFFCURVE",
"63 32 QCURVE SMOOTH",
"53 45 OFFCURVE",
"41 107 OFFCURVE",
"34 189 OFFCURVE",
"32 282 OFFCURVE",
"32 369 OFFCURVE",
"33 442 OFFCURVE",
"33 462 QCURVE SMOOTH",
"33 521 LINE SMOOTH",
"33 557 OFFCURVE",
"47 624 OFFCURVE",
"84 673 OFFCURVE",
"120 673 QCURVE SMOOTH",
"140 673 OFFCURVE",
"168 645 OFFCURVE",
"185 601 OFFCURVE",
"189 574 QCURVE",
"189 573 OFFCURVE",
"189 573 QCURVE",
"189 573 OFFCURVE",
"189 573 QCURVE",
"189 572 OFFCURVE",
"189 572 QCURVE",
"190 572 LINE",
"190 572 OFFCURVE",
"190 571 QCURVE",
"190 571 OFFCURVE",
"190 571 QCURVE",
"190 571 OFFCURVE",
"190 571 QCURVE",
"190 570 LINE",
"190 570 OFFCURVE",
"190 570 QCURVE",
"190 570 OFFCURVE",
"190 569 QCURVE",
"190 569 OFFCURVE",
"190 569 QCURVE",
"190 569 OFFCURVE",
"190 568 QCURVE",
"190 568 OFFCURVE",
"191 568 QCURVE",
"191 568 OFFCURVE",
"191 568 QCURVE",
"191 567 LINE",
"191 567 OFFCURVE",
"191 567 QCURVE",
"191 567 OFFCURVE",
"191 566 QCURVE",
"191 566 OFFCURVE",
"191 566 QCURVE",
"202 567 OFFCURVE",
"210 567 QCURVE SMOOTH",
"218 567 OFFCURVE",
"224 566 QCURVE",
"242 566 OFFCURVE",
"280 560 OFFCURVE",
"303 556 QCURVE SMOOTH",
"333 550 OFFCURVE",
"383 515 OFFCURVE",
"419 464 OFFCURVE",
"439 399 OFFCURVE",
"439 362 QCURVE SMOOTH",
"439 248 OFFCURVE",
"375 195 QCURVE SMOOTH",
"332 159 OFFCURVE",
"197 149 QCURVE",
"197 112 LINE SMOOTH",
"197 97 OFFCURVE",
"193 67 OFFCURVE",
"182 40 OFFCURVE",
"170 29 QCURVE"
);
},
{
nodes = (
"203 299 LINE",
"244 299 OFFCURVE",
"277 336 OFFCURVE",
"277 356 QCURVE SMOOTH",
"277 359 OFFCURVE",
"275 384 OFFCURVE",
"239 417 OFFCURVE",
"212 417 QCURVE SMOOTH",
"208 417 OFFCURVE",
"203 417 QCURVE"
);
}
);
width = 457;
}
);
unicode = 00DE;
},
{
glyphname = germandbls;
layers = (
{
layerId = "A2B16AE3-7741-4CE5-AF1B-C234A467F8D6";
paths = (
{
nodes = (
"27 127 LINE",
"27 130 OFFCURVE",
"27 132 QCURVE",
"27 134 LINE",
"27 136 OFFCURVE",
"27 138 QCURVE",
"27 140 LINE",
"27 143 OFFCURVE",
"27 145 QCURVE",
"27 147 LINE",
"27 148 OFFCURVE",
"27 149 QCURVE",
"27 150 LINE",
"27 151 OFFCURVE",
"27 152 QCURVE",
"27 181 LINE",
"27 182 OFFCURVE",
"27 183 QCURVE",
"27 187 LINE SMOOTH",
"27 190 OFFCURVE",
"27 193 QCURVE SMOOTH",
"27 196 LINE SMOOTH",
"27 199 OFFCURVE",
"27 202 QCURVE",
"27 204 LINE",
"27 207 OFFCURVE",
"27 211 QCURVE",
"27 213 LINE",
"27 214 OFFCURVE",
"27 215 QCURVE",
"27 217 LINE",
"27 218 OFFCURVE",
"27 220 QCURVE",
"27 254 LINE",
"27 256 OFFCURVE",
"27 258 QCURVE",
"27 297 OFFCURVE",
"28 378 OFFCURVE",
"29 451 OFFCURVE",
"31 511 OFFCURVE",
"32 529 QCURVE",
"36 569 OFFCURVE",
"87 626 OFFCURVE",
"163 661 OFFCURVE",
"238 672 OFFCURVE",
"267 672 QCURVE SMOOTH",
"283 672 OFFCURVE",
"299 671 QCURVE SMOOTH",
"329 668 OFFCURVE",
"384 637 OFFCURVE",
"427 590 OFFCURVE",
"453 529 OFFCURVE",
"453 495 QCURVE SMOOTH",
"453 460 OFFCURVE",
"419 385 OFFCURVE",
"371 349 QCURVE",
"381 343 OFFCURVE",
"416 330 OFFCURVE",
"448 300 OFFCURVE",
"470 245 OFFCURVE",
"470 202 QCURVE SMOOTH",
"470 198 OFFCURVE",
"470 194 QCURVE",
"468 130 OFFCURVE",
"418 40 OFFCURVE",
"365 29 QCURVE",
"357 27 LINE",
"341 24 OFFCURVE",
"317 22 OFFCURVE",
"296 22 QCURVE SMOOTH",
"263 22 OFFCURVE",
"223 43 OFFCURVE",
"213 75 QCURVE",
"218 139 LINE",
"221 158 OFFCURVE",
"251 170 OFFCURVE",
"286 176 OFFCURVE",
"317 185 OFFCURVE",
"320 201 QCURVE",
"320 204 OFFCURVE",
"316 222 OFFCURVE",
"300 244 OFFCURVE",
"269 266 OFFCURVE",
"244 273 QCURVE SMOOTH",
"230 277 OFFCURVE",
"210 300 OFFCURVE",
"200 329 OFFCURVE",
"200 357 OFFCURVE",
"206 366 QCURVE",
"209 373 OFFCURVE",
"217 383 OFFCURVE",
"224 391 QCURVE SMOOTH",
"233 402 OFFCURVE",
"263 447 OFFCURVE",
"278 485 OFFCURVE",
"278 498 QCURVE SMOOTH",
"278 504 OFFCURVE",
"273 525 OFFCURVE",
"245 525 QCURVE SMOOTH",
"239 525 OFFCURVE",
"231 526 OFFCURVE",
"229 526 QCURVE",
"224 526 OFFCURVE",
"212 523 OFFCURVE",
"197 513 OFFCURVE",
"188 502 QCURVE SMOOTH",
"181 492 OFFCURVE",
"176 450 OFFCURVE",
"176 401 OFFCURVE",
"178 355 OFFCURVE",
"178 342 QCURVE",
"178 341 OFFCURVE",
"178 341 QCURVE",
"178 340 LINE",
"178 340 OFFCURVE",
"178 339 QCURVE",
"178 338 LINE",
"178 337 OFFCURVE",
"178 336 QCURVE",
"178 335 LINE",
"178 334 OFFCURVE",
"178 334 QCURVE",
"178 333 LINE",
"178 332 OFFCURVE",
"178 331 QCURVE",
"178 328 LINE",
"178 326 OFFCURVE",
"178 325 QCURVE",
"178 312 LINE",
"178 311 OFFCURVE",
"178 310 QCURVE",
"178 308 LINE",
"178 290 OFFCURVE",
"179 272 QCURVE",
"179 250 OFFCURVE",
"180 198 OFFCURVE",
"180 177 QCURVE SMOOTH",
"180 163 OFFCURVE",
"181 139 OFFCURVE",
"182 127 QCURVE SMOOTH",
"183 122 OFFCURVE",
"183 118 QCURVE",
"183 116 OFFCURVE",
"182 111 OFFCURVE",
"182 106 QCURVE SMOOTH",
"182 92 OFFCURVE",
"172 65 OFFCURVE",
"157 43 OFFCURVE",
"138 27 OFFCURVE",
"128 24 QCURVE",
"83 23 LINE",
"78 22 OFFCURVE",
"73 22 QCURVE SMOOTH",
"48 22 OFFCURVE",
"27 73 OFFCURVE",
"27 126 QCURVE"
);
}
);
width = 487;
}
);
unicode = 00DF;
},
